{"glyphs":{"0":{"ha":943,"x_min":54,"x_max":888,"o":"m 471 -17 q 256 43 350 -17 q 108 216 161 103 q 54 486 54 329 q 108 756 54 643 q 256 929 161 869 q 471 989 350 989 q 686 929 592 989 q 834 756 781 869 q 888 486 888 643 q 834 216 888 329 q 686 43 781 103 q 471 -17 592 -17 m 471 174 q 610 250 560 174 q 661 486 661 326 q 610 722 661 646 q 471 799 560 799 q 333 722 383 799 q 282 486 282 646 q 333 250 282 326 q 471 174 383 174 z "},"1":{"ha":544,"x_min":10,"x_max":429,"o":"m 429 972 l 429 0 l 204 0 l 204 792 l 10 792 l 10 972 l 429 972 z "},"2":{"ha":819,"x_min":1,"x_max":781,"o":"m 781 183 l 781 0 l 46 0 l 46 146 l 421 500 q 501 598 481 557 q 522 679 522 639 q 483 769 522 738 q 367 800 443 800 q 251 776 303 800 q 165 703 200 751 l 1 808 q 158 941 58 893 q 388 989 258 989 q 577 953 496 989 q 703 853 658 918 q 749 701 749 789 q 715 553 749 622 q 586 394 682 483 l 363 183 l 781 183 z "},"3":{"ha":822,"x_min":-1,"x_max":772,"o":"m 508 576 q 704 481 636 556 q 772 297 772 407 q 728 141 772 213 q 592 26 683 69 q 369 -17 501 -17 q 167 10 267 -17 q -1 88 68 38 l 86 260 q 215 195 142 218 q 364 172 288 172 q 497 205 449 172 q 546 297 546 238 q 364 417 546 417 l 261 417 l 261 565 l 461 792 l 47 792 l 47 972 l 728 972 l 728 826 l 508 576 z "},"4":{"ha":957,"x_min":43,"x_max":944,"o":"m 944 204 l 786 204 l 786 0 l 567 0 l 567 204 l 43 204 l 43 356 l 501 972 l 738 972 l 313 388 l 574 388 l 574 569 l 786 569 l 786 388 l 944 388 l 944 204 z "},"5":{"ha":826,"x_min":14,"x_max":789,"o":"m 388 607 q 691 525 593 607 q 789 306 789 443 q 744 144 789 217 q 609 27 700 71 q 385 -17 518 -17 q 183 10 282 -17 q 14 88 83 38 l 103 260 q 231 195 158 218 q 379 172 303 172 q 513 206 464 172 q 561 299 561 239 q 510 393 561 361 q 335 425 460 425 l 86 425 l 136 972 l 729 972 l 729 792 l 324 792 l 308 607 l 388 607 z "},"6":{"ha":885,"x_min":54,"x_max":857,"o":"m 522 610 q 692 572 615 610 q 813 466 768 535 q 857 307 857 397 q 808 136 857 210 q 676 23 760 63 q 489 -17 592 -17 q 169 108 285 -17 q 54 465 54 233 q 117 749 54 631 q 291 928 179 867 q 550 989 403 989 q 699 972 628 989 q 821 922 771 954 l 738 757 q 556 806 665 806 q 360 733 432 806 q 282 524 288 661 q 522 610 368 610 m 476 151 q 594 190 549 151 q 639 296 639 229 q 594 402 639 363 q 474 442 549 442 q 353 401 400 442 q 306 296 306 360 q 351 192 306 232 q 476 151 397 151 z "},"7":{"ha":861,"x_min":36,"x_max":815,"o":"m 815 972 l 815 826 l 454 0 l 210 0 l 558 789 l 236 789 l 236 631 l 36 631 l 36 972 l 815 972 z "},"8":{"ha":917,"x_min":49,"x_max":868,"o":"m 719 511 q 830 417 792 475 q 868 282 868 358 q 817 124 868 192 q 672 20 765 57 q 457 -17 579 -17 q 242 20 335 -17 q 99 124 150 57 q 49 282 49 192 q 87 417 49 358 q 196 511 125 475 q 113 595 142 544 q 83 711 83 646 q 131 858 83 796 q 263 955 178 921 q 457 989 347 989 q 653 955 568 989 q 786 858 739 921 q 833 711 833 796 q 804 595 833 646 q 719 511 775 544 m 457 824 q 348 791 389 824 q 307 701 307 758 q 347 614 307 646 q 457 582 388 582 q 568 614 526 582 q 610 701 610 646 q 568 791 610 758 q 457 824 526 824 m 457 149 q 591 187 542 149 q 640 289 640 225 q 591 390 640 353 q 457 428 542 428 q 325 390 374 428 q 276 289 276 353 q 325 186 276 224 q 457 149 374 149 z "},"9":{"ha":885,"x_min":28,"x_max":831,"o":"m 396 989 q 715 865 600 989 q 831 507 831 740 q 769 224 831 342 q 594 44 707 106 q 335 -17 482 -17 q 186 1 257 -17 q 65 50 115 18 l 149 215 q 331 167 219 167 q 526 240 454 167 q 604 450 599 313 q 363 363 517 363 q 193 400 269 363 q 72 506 117 438 q 28 665 28 575 q 76 836 28 763 q 209 949 125 910 q 396 989 293 989 m 413 531 q 533 572 486 531 q 579 676 579 613 q 534 781 579 740 q 410 821 489 821 q 292 782 338 821 q 247 676 247 743 q 292 570 247 610 q 413 531 338 531 z "},"\u0000":{"ha":0,"x_min":0,"x_max":0,"o":""},"\r":{"ha":393,"x_min":0,"x_max":0,"o":""}," ":{"ha":393,"x_min":0,"x_max":0,"o":""},"A":{"ha":1106,"x_min":107,"x_max":999,"o":"m 553 989 q 788 936 688 989 q 943 781 888 883 q 999 532 999 678 l 999 0 l 774 0 l 774 233 l 329 233 l 329 0 l 107 0 l 107 532 q 163 781 107 678 q 318 936 218 883 q 553 989 418 989 m 774 414 l 774 553 q 714 735 774 674 q 551 797 654 797 q 388 735 447 797 q 329 553 329 674 l 329 414 l 774 414 z "},"Á":{"ha":1106,"x_min":107,"x_max":999,"o":"m 553 989 q 788 936 688 989 q 943 781 888 883 q 999 532 999 678 l 999 0 l 774 0 l 774 233 l 329 233 l 329 0 l 107 0 l 107 532 q 163 781 107 678 q 318 936 218 883 q 553 989 418 989 m 774 414 l 774 553 q 714 735 774 674 q 551 797 654 797 q 388 735 447 797 q 329 553 329 674 l 329 414 l 774 414 m 614 1251 l 847 1251 l 596 1051 l 426 1051 l 614 1251 z "},"Ă":{"ha":1106,"x_min":107,"x_max":999,"o":"m 553 989 q 788 936 688 989 q 943 781 888 883 q 999 532 999 678 l 999 0 l 774 0 l 774 233 l 329 233 l 329 0 l 107 0 l 107 532 q 163 781 107 678 q 318 936 218 883 q 553 989 418 989 m 774 414 l 774 553 q 714 735 774 674 q 551 797 654 797 q 388 735 447 797 q 329 553 329 674 l 329 414 l 774 414 m 553 1040 q 372 1097 443 1040 q 297 1251 301 1154 l 433 1251 q 469 1180 435 1207 q 553 1153 503 1153 q 637 1180 603 1153 q 672 1251 671 1207 l 808 1251 q 733 1097 804 1154 q 553 1040 663 1040 z "},"Ắ":{"ha":1106,"x_min":107,"x_max":999,"o":"m 553 989 q 788 936 688 989 q 943 781 888 883 q 999 532 999 678 l 999 0 l 774 0 l 774 233 l 329 233 l 329 0 l 107 0 l 107 532 q 163 781 107 678 q 318 936 218 883 q 553 989 418 989 m 774 414 l 774 553 q 714 735 774 674 q 551 797 654 797 q 388 735 447 797 q 329 553 329 674 l 329 414 l 774 414 m 553 1040 q 374 1086 444 1040 q 297 1210 304 1132 l 428 1210 q 467 1163 432 1181 q 553 1144 501 1144 q 639 1163 604 1144 q 678 1210 674 1181 l 808 1210 q 731 1086 801 1132 q 553 1040 661 1040 m 588 1419 l 808 1419 l 590 1251 l 433 1251 l 588 1419 z "},"Ặ":{"ha":1106,"x_min":107,"x_max":999,"o":"m 553 989 q 788 936 688 989 q 943 781 888 883 q 999 532 999 678 l 999 0 l 774 0 l 774 233 l 329 233 l 329 0 l 107 0 l 107 532 q 163 781 107 678 q 318 936 218 883 q 553 989 418 989 m 774 414 l 774 553 q 714 735 774 674 q 551 797 654 797 q 388 735 447 797 q 329 553 329 674 l 329 414 l 774 414 m 553 -292 q 484 -266 511 -292 q 457 -199 457 -240 q 484 -129 457 -157 q 553 -101 511 -101 q 621 -129 593 -101 q 649 -199 649 -157 q 622 -266 649 -240 q 553 -292 594 -292 m 553 1040 q 372 1097 443 1040 q 297 1251 301 1154 l 433 1251 q 469 1180 435 1207 q 553 1153 503 1153 q 637 1180 603 1153 q 672 1251 671 1207 l 808 1251 q 733 1097 804 1154 q 553 1040 663 1040 z "},"Ằ":{"ha":1106,"x_min":107,"x_max":999,"o":"m 553 989 q 788 936 688 989 q 943 781 888 883 q 999 532 999 678 l 999 0 l 774 0 l 774 233 l 329 233 l 329 0 l 107 0 l 107 532 q 163 781 107 678 q 318 936 218 883 q 553 989 418 989 m 774 414 l 774 553 q 714 735 774 674 q 551 797 654 797 q 388 735 447 797 q 329 553 329 674 l 329 414 l 774 414 m 553 1040 q 374 1086 444 1040 q 297 1210 304 1132 l 428 1210 q 467 1163 432 1181 q 553 1144 501 1144 q 639 1163 604 1144 q 678 1210 674 1181 l 808 1210 q 731 1086 801 1132 q 553 1040 661 1040 m 299 1419 l 519 1419 l 672 1251 l 517 1251 l 299 1419 z "},"Ẳ":{"ha":1106,"x_min":107,"x_max":999,"o":"m 553 989 q 788 936 688 989 q 943 781 888 883 q 999 532 999 678 l 999 0 l 774 0 l 774 233 l 329 233 l 329 0 l 107 0 l 107 532 q 163 781 107 678 q 318 936 218 883 q 553 989 418 989 m 774 414 l 774 553 q 714 735 774 674 q 551 797 654 797 q 388 735 447 797 q 329 553 329 674 l 329 414 l 774 414 m 553 1040 q 374 1086 444 1040 q 297 1210 304 1132 l 428 1210 q 467 1163 432 1181 q 553 1144 501 1144 q 639 1163 604 1144 q 678 1210 674 1181 l 808 1210 q 731 1086 801 1132 q 553 1040 661 1040 m 535 1264 q 586 1322 586 1289 q 573 1351 586 1340 q 539 1363 560 1363 q 478 1346 510 1363 l 442 1413 q 557 1443 489 1443 q 650 1413 615 1443 q 685 1333 685 1383 q 658 1261 685 1293 q 588 1213 631 1229 l 535 1264 z "},"Ẵ":{"ha":1106,"x_min":107,"x_max":999,"o":"m 553 989 q 788 936 688 989 q 943 781 888 883 q 999 532 999 678 l 999 0 l 774 0 l 774 233 l 329 233 l 329 0 l 107 0 l 107 532 q 163 781 107 678 q 318 936 218 883 q 553 989 418 989 m 774 414 l 774 553 q 714 735 774 674 q 551 797 654 797 q 388 735 447 797 q 329 553 329 674 l 329 414 l 774 414 m 553 1040 q 374 1086 444 1040 q 297 1210 304 1132 l 428 1210 q 467 1163 432 1181 q 553 1144 501 1144 q 639 1163 604 1144 q 678 1210 674 1181 l 808 1210 q 731 1086 801 1132 q 553 1040 661 1040 m 656 1249 q 589 1260 618 1249 q 525 1294 560 1272 q 492 1313 508 1304 q 464 1321 476 1321 q 421 1304 436 1321 q 403 1257 406 1288 l 292 1257 q 335 1385 293 1340 q 453 1431 378 1431 q 515 1419 489 1431 q 579 1386 540 1408 q 616 1365 601 1372 q 644 1358 631 1358 q 688 1376 672 1358 q 706 1421 703 1393 l 814 1421 q 771 1294 813 1340 q 656 1249 729 1249 z "},"Ǎ":{"ha":1106,"x_min":107,"x_max":999,"o":"m 553 989 q 788 936 688 989 q 943 781 888 883 q 999 532 999 678 l 999 0 l 774 0 l 774 233 l 329 233 l 329 0 l 107 0 l 107 532 q 163 781 107 678 q 318 936 218 883 q 553 989 418 989 m 774 414 l 774 553 q 714 735 774 674 q 551 797 654 797 q 388 735 447 797 q 329 553 329 674 l 329 414 l 774 414 m 832 1251 l 649 1051 l 457 1051 l 274 1251 l 432 1251 l 553 1147 l 674 1251 l 832 1251 z "},"Â":{"ha":1106,"x_min":107,"x_max":999,"o":"m 553 989 q 788 936 688 989 q 943 781 888 883 q 999 532 999 678 l 999 0 l 774 0 l 774 233 l 329 233 l 329 0 l 107 0 l 107 532 q 163 781 107 678 q 318 936 218 883 q 553 989 418 989 m 774 414 l 774 553 q 714 735 774 674 q 551 797 654 797 q 388 735 447 797 q 329 553 329 674 l 329 414 l 774 414 m 674 1051 l 553 1157 l 432 1051 l 274 1051 l 457 1251 l 649 1251 l 832 1051 l 674 1051 z "},"Ấ":{"ha":1106,"x_min":107,"x_max":1094,"o":"m 553 989 q 788 936 688 989 q 943 781 888 883 q 999 532 999 678 l 999 0 l 774 0 l 774 233 l 329 233 l 329 0 l 107 0 l 107 532 q 163 781 107 678 q 318 936 218 883 q 553 989 418 989 m 774 414 l 774 553 q 714 735 774 674 q 551 797 654 797 q 388 735 447 797 q 329 553 329 674 l 329 414 l 774 414 m 672 1051 l 553 1131 l 433 1051 l 274 1051 l 458 1210 l 647 1210 l 832 1051 l 672 1051 m 874 1353 l 1094 1353 l 876 1185 l 719 1185 l 874 1353 z "},"Ậ":{"ha":1106,"x_min":107,"x_max":999,"o":"m 553 989 q 788 936 688 989 q 943 781 888 883 q 999 532 999 678 l 999 0 l 774 0 l 774 233 l 329 233 l 329 0 l 107 0 l 107 532 q 163 781 107 678 q 318 936 218 883 q 553 989 418 989 m 774 414 l 774 553 q 714 735 774 674 q 551 797 654 797 q 388 735 447 797 q 329 553 329 674 l 329 414 l 774 414 m 553 -292 q 484 -266 511 -292 q 457 -199 457 -240 q 484 -129 457 -157 q 553 -101 511 -101 q 621 -129 593 -101 q 649 -199 649 -157 q 622 -266 649 -240 q 553 -292 594 -292 m 674 1051 l 553 1157 l 432 1051 l 274 1051 l 457 1251 l 649 1251 l 832 1051 l 674 1051 z "},"Ầ":{"ha":1106,"x_min":107,"x_max":999,"o":"m 553 989 q 788 936 688 989 q 943 781 888 883 q 999 532 999 678 l 999 0 l 774 0 l 774 233 l 329 233 l 329 0 l 107 0 l 107 532 q 163 781 107 678 q 318 936 218 883 q 553 989 418 989 m 774 414 l 774 553 q 714 735 774 674 q 551 797 654 797 q 388 735 447 797 q 329 553 329 674 l 329 414 l 774 414 m 672 1051 l 553 1131 l 433 1051 l 274 1051 l 458 1210 l 647 1210 l 832 1051 l 672 1051 m 585 1353 l 806 1353 l 958 1185 l 803 1185 l 585 1353 z "},"Ẩ":{"ha":1106,"x_min":107,"x_max":999,"o":"m 553 989 q 788 936 688 989 q 943 781 888 883 q 999 532 999 678 l 999 0 l 774 0 l 774 233 l 329 233 l 329 0 l 107 0 l 107 532 q 163 781 107 678 q 318 936 218 883 q 553 989 418 989 m 774 414 l 774 553 q 714 735 774 674 q 551 797 654 797 q 388 735 447 797 q 329 553 329 674 l 329 414 l 774 414 m 672 1051 l 553 1131 l 433 1051 l 274 1051 l 458 1210 l 647 1210 l 832 1051 l 672 1051 m 747 1210 q 799 1268 799 1235 q 785 1297 799 1286 q 751 1308 772 1308 q 690 1292 722 1308 l 654 1358 q 769 1389 701 1389 q 863 1359 828 1389 q 897 1279 897 1329 q 870 1207 897 1239 q 800 1158 843 1175 l 747 1210 z "},"Ẫ":{"ha":1106,"x_min":107,"x_max":999,"o":"m 553 989 q 788 936 688 989 q 943 781 888 883 q 999 532 999 678 l 999 0 l 774 0 l 774 233 l 329 233 l 329 0 l 107 0 l 107 532 q 163 781 107 678 q 318 936 218 883 q 553 989 418 989 m 774 414 l 774 553 q 714 735 774 674 q 551 797 654 797 q 388 735 447 797 q 329 553 329 674 l 329 414 l 774 414 m 672 1051 l 553 1131 l 433 1051 l 274 1051 l 458 1210 l 647 1210 l 832 1051 l 672 1051 m 656 1258 q 589 1270 618 1258 q 525 1304 560 1282 q 492 1322 508 1314 q 464 1331 476 1331 q 421 1314 436 1331 q 403 1267 406 1297 l 292 1267 q 335 1395 293 1350 q 453 1440 378 1440 q 515 1429 489 1440 q 579 1396 540 1418 q 616 1375 601 1382 q 644 1368 631 1368 q 688 1385 672 1368 q 706 1431 703 1403 l 814 1431 q 771 1304 813 1350 q 656 1258 729 1258 z "},"Ȁ":{"ha":1106,"x_min":107,"x_max":999,"o":"m 553 989 q 788 936 688 989 q 943 781 888 883 q 999 532 999 678 l 999 0 l 774 0 l 774 233 l 329 233 l 329 0 l 107 0 l 107 532 q 163 781 107 678 q 318 936 218 883 q 553 989 418 989 m 774 414 l 774 553 q 714 735 774 674 q 551 797 654 797 q 388 735 447 797 q 329 553 329 674 l 329 414 l 774 414 m 189 1251 l 392 1251 l 492 1051 l 333 1051 l 189 1251 m 469 1251 l 672 1251 l 772 1051 l 614 1051 l 469 1251 z "},"Ä":{"ha":1106,"x_min":107,"x_max":999,"o":"m 553 989 q 788 936 688 989 q 943 781 888 883 q 999 532 999 678 l 999 0 l 774 0 l 774 233 l 329 233 l 329 0 l 107 0 l 107 532 q 163 781 107 678 q 318 936 218 883 q 553 989 418 989 m 774 414 l 774 553 q 714 735 774 674 q 551 797 654 797 q 388 735 447 797 q 329 553 329 674 l 329 414 l 774 414 m 413 1058 q 343 1085 371 1058 q 315 1154 315 1113 q 343 1223 315 1196 q 413 1250 371 1250 q 481 1223 454 1250 q 508 1154 508 1196 q 481 1085 508 1113 q 413 1058 454 1058 m 693 1058 q 624 1085 651 1058 q 597 1154 597 1113 q 624 1223 597 1196 q 693 1250 651 1250 q 763 1223 735 1250 q 790 1154 790 1196 q 763 1085 790 1113 q 693 1058 735 1058 z "},"Ạ":{"ha":1106,"x_min":107,"x_max":999,"o":"m 553 989 q 788 936 688 989 q 943 781 888 883 q 999 532 999 678 l 999 0 l 774 0 l 774 233 l 329 233 l 329 0 l 107 0 l 107 532 q 163 781 107 678 q 318 936 218 883 q 553 989 418 989 m 774 414 l 774 553 q 714 735 774 674 q 551 797 654 797 q 388 735 447 797 q 329 553 329 674 l 329 414 l 774 414 m 553 -292 q 484 -266 511 -292 q 457 -199 457 -240 q 484 -129 457 -157 q 553 -101 511 -101 q 621 -129 593 -101 q 649 -199 649 -157 q 622 -266 649 -240 q 553 -292 594 -292 z "},"À":{"ha":1106,"x_min":107,"x_max":999,"o":"m 553 989 q 788 936 688 989 q 943 781 888 883 q 999 532 999 678 l 999 0 l 774 0 l 774 233 l 329 233 l 329 0 l 107 0 l 107 532 q 163 781 107 678 q 318 936 218 883 q 553 989 418 989 m 774 414 l 774 553 q 714 735 774 674 q 551 797 654 797 q 388 735 447 797 q 329 553 329 674 l 329 414 l 774 414 m 258 1251 l 492 1251 l 679 1051 l 510 1051 l 258 1251 z "},"Ả":{"ha":1106,"x_min":107,"x_max":999,"o":"m 553 989 q 788 936 688 989 q 943 781 888 883 q 999 532 999 678 l 999 0 l 774 0 l 774 233 l 329 233 l 329 0 l 107 0 l 107 532 q 163 781 107 678 q 318 936 218 883 q 553 989 418 989 m 774 414 l 774 553 q 714 735 774 674 q 551 797 654 797 q 388 735 447 797 q 329 553 329 674 l 329 414 l 774 414 m 526 1110 q 581 1149 565 1128 q 597 1194 597 1169 q 579 1237 597 1221 q 532 1253 561 1253 q 450 1226 490 1253 l 406 1314 q 556 1361 465 1361 q 676 1320 629 1361 q 722 1213 722 1279 q 594 1038 722 1096 l 526 1110 z "},"Ȃ":{"ha":1106,"x_min":107,"x_max":999,"o":"m 553 989 q 788 936 688 989 q 943 781 888 883 q 999 532 999 678 l 999 0 l 774 0 l 774 233 l 329 233 l 329 0 l 107 0 l 107 532 q 163 781 107 678 q 318 936 218 883 q 553 989 418 989 m 774 414 l 774 553 q 714 735 774 674 q 551 797 654 797 q 388 735 447 797 q 329 553 329 674 l 329 414 l 774 414 m 297 1051 q 372 1206 301 1149 q 553 1263 443 1263 q 733 1206 663 1263 q 808 1051 804 1149 l 672 1051 q 637 1123 671 1096 q 553 1150 603 1150 q 469 1123 503 1150 q 433 1051 435 1096 l 297 1051 z "},"Ā":{"ha":1106,"x_min":107,"x_max":999,"o":"m 553 989 q 788 936 688 989 q 943 781 888 883 q 999 532 999 678 l 999 0 l 774 0 l 774 233 l 329 233 l 329 0 l 107 0 l 107 532 q 163 781 107 678 q 318 936 218 883 q 553 989 418 989 m 774 414 l 774 553 q 714 735 774 674 q 551 797 654 797 q 388 735 447 797 q 329 553 329 674 l 329 414 l 774 414 m 296 1213 l 810 1213 l 810 1090 l 296 1090 l 296 1213 z "},"Ą":{"ha":1106,"x_min":107,"x_max":1031,"o":"m 553 989 q 788 936 688 989 q 943 781 888 883 q 999 532 999 678 l 999 0 l 774 0 l 774 233 l 329 233 l 329 0 l 107 0 l 107 532 q 163 781 107 678 q 318 936 218 883 q 553 989 418 989 m 774 414 l 774 553 q 714 735 774 674 q 551 797 654 797 q 388 735 447 797 q 329 553 329 674 l 329 414 l 774 414 m 890 -322 q 750 -280 801 -322 q 699 -167 699 -237 q 752 -40 699 -99 q 913 57 806 18 l 999 0 q 874 -74 911 -39 q 836 -149 836 -110 q 858 -195 836 -178 q 915 -212 879 -212 q 1000 -192 963 -212 l 1031 -290 q 967 -313 1004 -304 q 890 -322 929 -322 z "},"Å":{"ha":1106,"x_min":107,"x_max":999,"o":"m 553 989 q 788 936 688 989 q 943 781 888 883 q 999 532 999 678 l 999 0 l 774 0 l 774 233 l 329 233 l 329 0 l 107 0 l 107 532 q 163 781 107 678 q 318 936 218 883 q 553 989 418 989 m 774 414 l 774 553 q 714 735 774 674 q 551 797 654 797 q 388 735 447 797 q 329 553 329 674 l 329 414 l 774 414 m 551 1047 q 430 1096 479 1047 q 381 1215 381 1144 q 430 1335 381 1286 q 551 1383 479 1383 q 675 1335 625 1383 q 725 1215 725 1286 q 675 1096 725 1144 q 551 1047 625 1047 m 551 1131 q 612 1155 588 1131 q 636 1215 636 1179 q 612 1276 636 1251 q 551 1300 588 1300 q 492 1276 517 1300 q 468 1215 468 1251 q 492 1155 468 1179 q 551 1131 515 1131 z "},"Ǻ":{"ha":1106,"x_min":107,"x_max":999,"o":"m 553 989 q 788 936 688 989 q 943 781 888 883 q 999 532 999 678 l 999 0 l 774 0 l 774 233 l 329 233 l 329 0 l 107 0 l 107 532 q 163 781 107 678 q 318 936 218 883 q 553 989 418 989 m 774 414 l 774 553 q 714 735 774 674 q 551 797 654 797 q 388 735 447 797 q 329 553 329 674 l 329 414 l 774 414 m 701 1303 q 725 1215 725 1263 q 675 1096 725 1144 q 551 1047 625 1047 q 430 1096 479 1047 q 381 1215 381 1144 q 430 1335 381 1286 q 551 1383 479 1383 q 624 1369 586 1383 l 744 1494 l 851 1411 l 701 1303 m 551 1131 q 612 1155 588 1131 q 636 1215 636 1179 q 612 1276 636 1251 q 551 1300 588 1300 q 492 1276 517 1300 q 468 1215 468 1251 q 492 1155 468 1179 q 551 1131 515 1131 z "},"Ã":{"ha":1106,"x_min":107,"x_max":999,"o":"m 553 989 q 788 936 688 989 q 943 781 888 883 q 999 532 999 678 l 999 0 l 774 0 l 774 233 l 329 233 l 329 0 l 107 0 l 107 532 q 163 781 107 678 q 318 936 218 883 q 553 989 418 989 m 774 414 l 774 553 q 714 735 774 674 q 551 797 654 797 q 388 735 447 797 q 329 553 329 674 l 329 414 l 774 414 m 657 1047 q 591 1062 619 1047 q 528 1101 563 1076 q 491 1126 506 1118 q 463 1135 476 1135 q 415 1115 433 1135 q 396 1057 397 1094 l 286 1057 q 333 1205 289 1150 q 449 1260 376 1260 q 513 1245 485 1260 q 578 1204 542 1231 q 615 1179 600 1188 q 643 1171 629 1171 q 690 1191 671 1171 q 710 1246 708 1211 l 819 1246 q 773 1101 817 1156 q 657 1047 729 1047 z "},"Æ":{"ha":1508,"x_min":97,"x_max":1457,"o":"m 1457 179 l 1457 0 l 703 0 l 703 246 l 324 246 l 324 0 l 97 0 l 97 535 q 210 859 97 746 q 533 972 322 972 l 1438 972 l 1438 793 l 925 793 l 925 579 l 1379 579 l 1379 408 l 925 408 l 925 179 l 1457 179 m 703 424 l 703 781 l 553 781 q 380 719 436 781 q 324 529 324 657 l 324 424 l 703 424 z "},"Ǽ":{"ha":1508,"x_min":97,"x_max":1457,"o":"m 1457 179 l 1457 0 l 703 0 l 703 246 l 324 246 l 324 0 l 97 0 l 97 535 q 210 859 97 746 q 533 972 322 972 l 1438 972 l 1438 793 l 925 793 l 925 579 l 1379 579 l 1379 408 l 925 408 l 925 179 l 1457 179 m 703 424 l 703 781 l 553 781 q 380 719 436 781 q 324 529 324 657 l 324 424 l 703 424 m 810 1251 l 1043 1251 l 792 1051 l 622 1051 l 810 1251 z "},"B":{"ha":1063,"x_min":115,"x_max":1007,"o":"m 829 506 q 960 417 913 479 q 1007 265 1007 356 q 908 69 1007 138 q 618 0 808 0 l 115 0 l 115 972 l 590 972 q 863 904 768 972 q 958 719 958 836 q 924 593 958 649 q 829 506 890 538 m 339 803 l 339 574 l 563 574 q 689 603 646 574 q 732 689 732 632 q 689 774 732 746 q 563 803 646 803 l 339 803 m 601 169 q 735 199 690 169 q 781 289 781 228 q 601 410 781 410 l 339 410 l 339 169 l 601 169 z "},"C":{"ha":1018,"x_min":54,"x_max":982,"o":"m 581 -17 q 312 48 432 -17 q 123 227 192 113 q 54 486 54 342 q 123 745 54 631 q 312 924 192 860 q 582 989 432 989 q 810 944 708 989 q 982 817 913 900 l 838 683 q 593 797 739 797 q 432 758 503 797 q 322 647 361 718 q 282 486 282 576 q 322 325 282 396 q 432 215 361 254 q 593 175 503 175 q 838 290 739 175 l 982 157 q 810 28 913 72 q 581 -17 707 -17 z "},"Ć":{"ha":1018,"x_min":54,"x_max":982,"o":"m 581 -17 q 312 48 432 -17 q 123 227 192 113 q 54 486 54 342 q 123 745 54 631 q 312 924 192 860 q 582 989 432 989 q 810 944 708 989 q 982 817 913 900 l 838 683 q 593 797 739 797 q 432 758 503 797 q 322 647 361 718 q 282 486 282 576 q 322 325 282 396 q 432 215 361 254 q 593 175 503 175 q 838 290 739 175 l 982 157 q 810 28 913 72 q 581 -17 707 -17 m 636 1251 l 869 1251 l 618 1051 l 449 1051 l 636 1251 z "},"Č":{"ha":1018,"x_min":54,"x_max":982,"o":"m 581 -17 q 312 48 432 -17 q 123 227 192 113 q 54 486 54 342 q 123 745 54 631 q 312 924 192 860 q 582 989 432 989 q 810 944 708 989 q 982 817 913 900 l 838 683 q 593 797 739 797 q 432 758 503 797 q 322 647 361 718 q 282 486 282 576 q 322 325 282 396 q 432 215 361 254 q 593 175 503 175 q 838 290 739 175 l 982 157 q 810 28 913 72 q 581 -17 707 -17 m 854 1251 l 671 1051 l 479 1051 l 296 1251 l 454 1251 l 575 1147 l 696 1251 l 854 1251 z "},"Ç":{"ha":1018,"x_min":54,"x_max":982,"o":"m 581 -17 q 312 48 432 -17 q 123 227 192 113 q 54 486 54 342 q 123 745 54 631 q 312 924 192 860 q 582 989 432 989 q 810 944 708 989 q 982 817 913 900 l 838 683 q 593 797 739 797 q 432 758 503 797 q 322 647 361 718 q 282 486 282 576 q 322 325 282 396 q 432 215 361 254 q 593 175 503 175 q 838 290 739 175 l 982 157 q 810 28 913 72 q 581 -17 707 -17 m 506 -322 q 435 -315 469 -322 q 376 -293 400 -307 l 410 -200 q 500 -221 454 -221 q 572 -176 572 -221 q 504 -136 572 -136 l 457 -136 l 493 11 l 608 11 l 589 -69 q 680 -108 650 -76 q 710 -185 710 -139 q 654 -285 710 -249 q 506 -322 599 -322 z "},"Ḉ":{"ha":1018,"x_min":54,"x_max":982,"o":"m 581 -17 q 312 48 432 -17 q 123 227 192 113 q 54 486 54 342 q 123 745 54 631 q 312 924 192 860 q 582 989 432 989 q 810 944 708 989 q 982 817 913 900 l 838 683 q 593 797 739 797 q 432 758 503 797 q 322 647 361 718 q 282 486 282 576 q 322 325 282 396 q 432 215 361 254 q 593 175 503 175 q 838 290 739 175 l 982 157 q 810 28 913 72 q 581 -17 707 -17 m 506 -322 q 435 -315 469 -322 q 376 -293 400 -307 l 410 -200 q 500 -221 454 -221 q 572 -176 572 -221 q 504 -136 572 -136 l 457 -136 l 493 11 l 608 11 l 589 -69 q 680 -108 650 -76 q 710 -185 710 -139 q 654 -285 710 -249 q 506 -322 599 -322 m 636 1251 l 869 1251 l 618 1051 l 449 1051 l 636 1251 z "},"Ĉ":{"ha":1018,"x_min":54,"x_max":982,"o":"m 581 -17 q 312 48 432 -17 q 123 227 192 113 q 54 486 54 342 q 123 745 54 631 q 312 924 192 860 q 582 989 432 989 q 810 944 708 989 q 982 817 913 900 l 838 683 q 593 797 739 797 q 432 758 503 797 q 322 647 361 718 q 282 486 282 576 q 322 325 282 396 q 432 215 361 254 q 593 175 503 175 q 838 290 739 175 l 982 157 q 810 28 913 72 q 581 -17 707 -17 m 696 1051 l 575 1157 l 454 1051 l 296 1051 l 479 1251 l 671 1251 l 854 1051 l 696 1051 z "},"Ċ":{"ha":1018,"x_min":54,"x_max":982,"o":"m 581 -17 q 312 48 432 -17 q 123 227 192 113 q 54 486 54 342 q 123 745 54 631 q 312 924 192 860 q 582 989 432 989 q 810 944 708 989 q 982 817 913 900 l 838 683 q 593 797 739 797 q 432 758 503 797 q 322 647 361 718 q 282 486 282 576 q 322 325 282 396 q 432 215 361 254 q 593 175 503 175 q 838 290 739 175 l 982 157 q 810 28 913 72 q 581 -17 707 -17 m 575 1058 q 491 1092 524 1058 q 458 1176 458 1125 q 491 1260 458 1226 q 575 1293 524 1293 q 659 1260 626 1293 q 692 1176 692 1226 q 659 1092 692 1125 q 575 1058 626 1058 z "},"D":{"ha":1147,"x_min":115,"x_max":1093,"o":"m 115 972 l 557 972 q 837 912 715 972 q 1026 742 958 851 q 1093 486 1093 632 q 1026 231 1093 340 q 837 60 958 121 q 557 0 715 0 l 115 0 l 115 972 m 546 185 q 778 266 692 185 q 865 486 865 347 q 778 706 865 625 q 546 788 692 788 l 340 788 l 340 185 l 546 185 z "},"Ǆ":{"ha":2013,"x_min":115,"x_max":1989,"o":"m 115 972 l 557 972 q 837 912 715 972 q 1026 742 958 851 q 1093 486 1093 632 q 1026 231 1093 340 q 837 60 958 121 q 557 0 715 0 l 115 0 l 115 972 m 546 185 q 778 266 692 185 q 865 486 865 347 q 778 706 865 625 q 546 788 692 788 l 340 788 l 340 185 l 546 185 m 1989 181 l 1989 0 l 1139 0 l 1139 131 l 1369 411 l 1215 411 l 1215 579 l 1507 579 l 1682 792 l 1149 792 l 1149 972 l 1968 972 l 1968 843 l 1749 575 l 1890 575 l 1890 408 l 1613 408 l 1425 181 l 1989 181 m 1842 1251 l 1658 1051 l 1467 1051 l 1283 1251 l 1442 1251 l 1563 1147 l 1683 1251 l 1842 1251 z "},"Ð":{"ha":1165,"x_min":1,"x_max":1111,"o":"m 133 972 l 575 972 q 855 912 733 972 q 1044 742 976 851 q 1111 486 1111 632 q 1044 231 1111 340 q 855 60 976 121 q 575 0 733 0 l 133 0 l 133 972 m 564 185 q 797 266 710 185 q 883 486 883 347 q 797 706 883 625 q 564 788 710 788 l 358 788 l 358 185 l 564 185 m 1 569 l 601 569 l 601 419 l 1 419 l 1 569 z "},"Ď":{"ha":1147,"x_min":115,"x_max":1093,"o":"m 115 972 l 557 972 q 837 912 715 972 q 1026 742 958 851 q 1093 486 1093 632 q 1026 231 1093 340 q 837 60 958 121 q 557 0 715 0 l 115 0 l 115 972 m 546 185 q 778 266 692 185 q 865 486 865 347 q 778 706 865 625 q 546 788 692 788 l 340 788 l 340 185 l 546 185 m 793 1250 l 610 1050 l 418 1050 l 235 1250 l 393 1250 l 514 1146 l 635 1250 l 793 1250 z "},"Đ":{"ha":1165,"x_min":1,"x_max":1111,"o":"m 133 972 l 575 972 q 855 912 733 972 q 1044 742 976 851 q 1111 486 1111 632 q 1044 231 1111 340 q 855 60 976 121 q 575 0 733 0 l 133 0 l 133 972 m 564 185 q 797 266 710 185 q 883 486 883 347 q 797 706 883 625 q 564 788 710 788 l 358 788 l 358 185 l 564 185 m 1 569 l 601 569 l 601 419 l 1 419 l 1 569 z "},"Ḍ":{"ha":1147,"x_min":115,"x_max":1093,"o":"m 115 972 l 557 972 q 837 912 715 972 q 1026 742 958 851 q 1093 486 1093 632 q 1026 231 1093 340 q 837 60 958 121 q 557 0 715 0 l 115 0 l 115 972 m 546 185 q 778 266 692 185 q 865 486 865 347 q 778 706 865 625 q 546 788 692 788 l 340 788 l 340 185 l 546 185 m 518 -292 q 449 -266 476 -292 q 422 -199 422 -240 q 449 -129 422 -157 q 518 -101 476 -101 q 586 -129 558 -101 q 614 -199 614 -157 q 587 -266 614 -240 q 518 -292 560 -292 z "},"Ḏ":{"ha":1147,"x_min":115,"x_max":1093,"o":"m 115 972 l 557 972 q 837 912 715 972 q 1026 742 958 851 q 1093 486 1093 632 q 1026 231 1093 340 q 837 60 958 121 q 557 0 715 0 l 115 0 l 115 972 m 546 185 q 778 266 692 185 q 865 486 865 347 q 778 706 865 625 q 546 788 692 788 l 340 788 l 340 185 l 546 185 m 261 -132 l 775 -132 l 775 -253 l 261 -253 l 261 -132 z "},"ǅ":{"ha":1915,"x_min":115,"x_max":1869,"o":"m 115 972 l 557 972 q 837 912 715 972 q 1026 742 958 851 q 1093 486 1093 632 q 1026 231 1093 340 q 837 60 958 121 q 557 0 715 0 l 115 0 l 115 972 m 546 185 q 778 266 692 185 q 865 486 865 347 q 778 706 865 625 q 546 788 692 788 l 340 788 l 340 185 l 546 185 m 1869 167 l 1869 0 l 1203 0 l 1203 131 l 1351 306 l 1250 306 l 1250 450 l 1474 450 l 1583 581 l 1213 581 l 1213 747 l 1857 747 l 1857 617 l 1715 449 l 1821 449 l 1821 304 l 1593 304 l 1476 167 l 1869 167 m 1810 1043 l 1626 843 l 1435 843 l 1251 1043 l 1410 1043 l 1531 939 l 1651 1043 l 1810 1043 z "},"E":{"ha":926,"x_min":54,"x_max":910,"o":"m 910 83 q 735 10 840 36 q 513 -17 631 -17 q 263 20 365 -17 q 107 123 160 57 q 54 274 54 189 q 97 411 54 351 q 215 500 140 471 q 127 583 158 531 q 96 701 96 636 q 144 846 96 781 q 292 950 193 911 q 533 989 390 989 q 718 970 628 989 q 875 919 808 951 l 813 747 q 542 807 685 807 q 378 774 433 807 q 324 686 324 742 q 360 608 324 635 q 472 581 397 581 l 738 581 l 738 403 l 458 403 q 328 374 374 403 q 282 289 282 344 q 341 198 282 231 q 522 165 400 165 q 694 188 608 165 q 840 253 781 211 l 910 83 z "},"É":{"ha":926,"x_min":54,"x_max":910,"o":"m 910 83 q 735 10 840 36 q 513 -17 631 -17 q 263 20 365 -17 q 107 123 160 57 q 54 274 54 189 q 97 411 54 351 q 215 500 140 471 q 127 583 158 531 q 96 701 96 636 q 144 846 96 781 q 292 950 193 911 q 533 989 390 989 q 718 970 628 989 q 875 919 808 951 l 813 747 q 542 807 685 807 q 378 774 433 807 q 324 686 324 742 q 360 608 324 635 q 472 581 397 581 l 738 581 l 738 403 l 458 403 q 328 374 374 403 q 282 289 282 344 q 341 198 282 231 q 522 165 400 165 q 694 188 608 165 q 840 253 781 211 l 910 83 m 564 1251 l 797 1251 l 546 1051 l 376 1051 l 564 1251 z "},"Ĕ":{"ha":926,"x_min":54,"x_max":910,"o":"m 910 83 q 735 10 840 36 q 513 -17 631 -17 q 263 20 365 -17 q 107 123 160 57 q 54 274 54 189 q 97 411 54 351 q 215 500 140 471 q 127 583 158 531 q 96 701 96 636 q 144 846 96 781 q 292 950 193 911 q 533 989 390 989 q 718 970 628 989 q 875 919 808 951 l 813 747 q 542 807 685 807 q 378 774 433 807 q 324 686 324 742 q 360 608 324 635 q 472 581 397 581 l 738 581 l 738 403 l 458 403 q 328 374 374 403 q 282 289 282 344 q 341 198 282 231 q 522 165 400 165 q 694 188 608 165 q 840 253 781 211 l 910 83 m 503 1040 q 322 1097 393 1040 q 247 1251 251 1154 l 383 1251 q 419 1180 385 1207 q 503 1153 453 1153 q 587 1180 553 1153 q 622 1251 621 1207 l 758 1251 q 683 1097 754 1154 q 503 1040 613 1040 z "},"Ě":{"ha":926,"x_min":54,"x_max":910,"o":"m 910 83 q 735 10 840 36 q 513 -17 631 -17 q 263 20 365 -17 q 107 123 160 57 q 54 274 54 189 q 97 411 54 351 q 215 500 140 471 q 127 583 158 531 q 96 701 96 636 q 144 846 96 781 q 292 950 193 911 q 533 989 390 989 q 718 970 628 989 q 875 919 808 951 l 813 747 q 542 807 685 807 q 378 774 433 807 q 324 686 324 742 q 360 608 324 635 q 472 581 397 581 l 738 581 l 738 403 l 458 403 q 328 374 374 403 q 282 289 282 344 q 341 198 282 231 q 522 165 400 165 q 694 188 608 165 q 840 253 781 211 l 910 83 m 782 1251 l 599 1051 l 407 1051 l 224 1251 l 382 1251 l 503 1147 l 624 1251 l 782 1251 z "},"Ḝ":{"ha":926,"x_min":54,"x_max":910,"o":"m 910 83 q 735 10 840 36 q 513 -17 631 -17 q 263 20 365 -17 q 107 123 160 57 q 54 274 54 189 q 97 411 54 351 q 215 500 140 471 q 127 583 158 531 q 96 701 96 636 q 144 846 96 781 q 292 950 193 911 q 533 989 390 989 q 718 970 628 989 q 875 919 808 951 l 813 747 q 542 807 685 807 q 378 774 433 807 q 324 686 324 742 q 360 608 324 635 q 472 581 397 581 l 738 581 l 738 403 l 458 403 q 328 374 374 403 q 282 289 282 344 q 341 198 282 231 q 522 165 400 165 q 694 188 608 165 q 840 253 781 211 l 910 83 m 457 -322 q 386 -315 421 -322 q 328 -293 351 -307 l 361 -200 q 451 -221 406 -221 q 524 -176 524 -221 q 456 -136 524 -136 l 408 -136 l 444 11 l 560 11 l 540 -69 q 631 -108 601 -76 q 661 -185 661 -139 q 606 -285 661 -249 q 457 -322 550 -322 m 503 1040 q 322 1097 393 1040 q 247 1251 251 1154 l 383 1251 q 419 1180 385 1207 q 503 1153 453 1153 q 587 1180 553 1153 q 622 1251 621 1207 l 758 1251 q 683 1097 754 1154 q 503 1040 613 1040 z "},"Ê":{"ha":926,"x_min":54,"x_max":910,"o":"m 910 83 q 735 10 840 36 q 513 -17 631 -17 q 263 20 365 -17 q 107 123 160 57 q 54 274 54 189 q 97 411 54 351 q 215 500 140 471 q 127 583 158 531 q 96 701 96 636 q 144 846 96 781 q 292 950 193 911 q 533 989 390 989 q 718 970 628 989 q 875 919 808 951 l 813 747 q 542 807 685 807 q 378 774 433 807 q 324 686 324 742 q 360 608 324 635 q 472 581 397 581 l 738 581 l 738 403 l 458 403 q 328 374 374 403 q 282 289 282 344 q 341 198 282 231 q 522 165 400 165 q 694 188 608 165 q 840 253 781 211 l 910 83 m 624 1051 l 503 1157 l 382 1051 l 224 1051 l 407 1251 l 599 1251 l 782 1051 l 624 1051 z "},"Ế":{"ha":926,"x_min":54,"x_max":1044,"o":"m 910 83 q 735 10 840 36 q 513 -17 631 -17 q 263 20 365 -17 q 107 123 160 57 q 54 274 54 189 q 97 411 54 351 q 215 500 140 471 q 127 583 158 531 q 96 701 96 636 q 144 846 96 781 q 292 950 193 911 q 533 989 390 989 q 718 970 628 989 q 875 919 808 951 l 813 747 q 542 807 685 807 q 378 774 433 807 q 324 686 324 742 q 360 608 324 635 q 472 581 397 581 l 738 581 l 738 403 l 458 403 q 328 374 374 403 q 282 289 282 344 q 341 198 282 231 q 522 165 400 165 q 694 188 608 165 q 840 253 781 211 l 910 83 m 622 1051 l 503 1131 l 383 1051 l 224 1051 l 408 1210 l 597 1210 l 782 1051 l 622 1051 m 824 1353 l 1044 1353 l 826 1185 l 669 1185 l 824 1353 z "},"Ệ":{"ha":926,"x_min":54,"x_max":910,"o":"m 910 83 q 735 10 840 36 q 513 -17 631 -17 q 263 20 365 -17 q 107 123 160 57 q 54 274 54 189 q 97 411 54 351 q 215 500 140 471 q 127 583 158 531 q 96 701 96 636 q 144 846 96 781 q 292 950 193 911 q 533 989 390 989 q 718 970 628 989 q 875 919 808 951 l 813 747 q 542 807 685 807 q 378 774 433 807 q 324 686 324 742 q 360 608 324 635 q 472 581 397 581 l 738 581 l 738 403 l 458 403 q 328 374 374 403 q 282 289 282 344 q 341 198 282 231 q 522 165 400 165 q 694 188 608 165 q 840 253 781 211 l 910 83 m 503 -292 q 434 -266 461 -292 q 407 -199 407 -240 q 434 -129 407 -157 q 503 -101 461 -101 q 571 -129 543 -101 q 599 -199 599 -157 q 572 -266 599 -240 q 503 -292 544 -292 m 624 1051 l 503 1157 l 382 1051 l 224 1051 l 407 1251 l 599 1251 l 782 1051 l 624 1051 z "},"Ề":{"ha":926,"x_min":54,"x_max":910,"o":"m 910 83 q 735 10 840 36 q 513 -17 631 -17 q 263 20 365 -17 q 107 123 160 57 q 54 274 54 189 q 97 411 54 351 q 215 500 140 471 q 127 583 158 531 q 96 701 96 636 q 144 846 96 781 q 292 950 193 911 q 533 989 390 989 q 718 970 628 989 q 875 919 808 951 l 813 747 q 542 807 685 807 q 378 774 433 807 q 324 686 324 742 q 360 608 324 635 q 472 581 397 581 l 738 581 l 738 403 l 458 403 q 328 374 374 403 q 282 289 282 344 q 341 198 282 231 q 522 165 400 165 q 694 188 608 165 q 840 253 781 211 l 910 83 m 622 1051 l 503 1131 l 383 1051 l 224 1051 l 408 1210 l 597 1210 l 782 1051 l 622 1051 m 535 1353 l 756 1353 l 908 1185 l 753 1185 l 535 1353 z "},"Ể":{"ha":926,"x_min":54,"x_max":910,"o":"m 910 83 q 735 10 840 36 q 513 -17 631 -17 q 263 20 365 -17 q 107 123 160 57 q 54 274 54 189 q 97 411 54 351 q 215 500 140 471 q 127 583 158 531 q 96 701 96 636 q 144 846 96 781 q 292 950 193 911 q 533 989 390 989 q 718 970 628 989 q 875 919 808 951 l 813 747 q 542 807 685 807 q 378 774 433 807 q 324 686 324 742 q 360 608 324 635 q 472 581 397 581 l 738 581 l 738 403 l 458 403 q 328 374 374 403 q 282 289 282 344 q 341 198 282 231 q 522 165 400 165 q 694 188 608 165 q 840 253 781 211 l 910 83 m 622 1051 l 503 1131 l 383 1051 l 224 1051 l 408 1210 l 597 1210 l 782 1051 l 622 1051 m 697 1210 q 749 1268 749 1235 q 735 1297 749 1286 q 701 1308 722 1308 q 640 1292 672 1308 l 604 1358 q 719 1389 651 1389 q 813 1359 778 1389 q 847 1279 847 1329 q 820 1207 847 1239 q 750 1158 793 1175 l 697 1210 z "},"Ễ":{"ha":926,"x_min":54,"x_max":910,"o":"m 910 83 q 735 10 840 36 q 513 -17 631 -17 q 263 20 365 -17 q 107 123 160 57 q 54 274 54 189 q 97 411 54 351 q 215 500 140 471 q 127 583 158 531 q 96 701 96 636 q 144 846 96 781 q 292 950 193 911 q 533 989 390 989 q 718 970 628 989 q 875 919 808 951 l 813 747 q 542 807 685 807 q 378 774 433 807 q 324 686 324 742 q 360 608 324 635 q 472 581 397 581 l 738 581 l 738 403 l 458 403 q 328 374 374 403 q 282 289 282 344 q 341 198 282 231 q 522 165 400 165 q 694 188 608 165 q 840 253 781 211 l 910 83 m 622 1051 l 503 1131 l 383 1051 l 224 1051 l 408 1210 l 597 1210 l 782 1051 l 622 1051 m 606 1258 q 539 1270 568 1258 q 475 1304 510 1282 q 442 1322 458 1314 q 414 1331 426 1331 q 371 1314 386 1331 q 353 1267 356 1297 l 242 1267 q 285 1395 243 1350 q 403 1440 328 1440 q 465 1429 439 1440 q 529 1396 490 1418 q 566 1375 551 1382 q 594 1368 581 1368 q 638 1385 622 1368 q 656 1431 653 1403 l 764 1431 q 721 1304 763 1350 q 606 1258 679 1258 z "},"Ȅ":{"ha":926,"x_min":54,"x_max":910,"o":"m 910 83 q 735 10 840 36 q 513 -17 631 -17 q 263 20 365 -17 q 107 123 160 57 q 54 274 54 189 q 97 411 54 351 q 215 500 140 471 q 127 583 158 531 q 96 701 96 636 q 144 846 96 781 q 292 950 193 911 q 533 989 390 989 q 718 970 628 989 q 875 919 808 951 l 813 747 q 542 807 685 807 q 378 774 433 807 q 324 686 324 742 q 360 608 324 635 q 472 581 397 581 l 738 581 l 738 403 l 458 403 q 328 374 374 403 q 282 289 282 344 q 341 198 282 231 q 522 165 400 165 q 694 188 608 165 q 840 253 781 211 l 910 83 m 139 1251 l 342 1251 l 442 1051 l 283 1051 l 139 1251 m 419 1251 l 622 1251 l 722 1051 l 564 1051 l 419 1251 z "},"Ë":{"ha":926,"x_min":54,"x_max":910,"o":"m 910 83 q 735 10 840 36 q 513 -17 631 -17 q 263 20 365 -17 q 107 123 160 57 q 54 274 54 189 q 97 411 54 351 q 215 500 140 471 q 127 583 158 531 q 96 701 96 636 q 144 846 96 781 q 292 950 193 911 q 533 989 390 989 q 718 970 628 989 q 875 919 808 951 l 813 747 q 542 807 685 807 q 378 774 433 807 q 324 686 324 742 q 360 608 324 635 q 472 581 397 581 l 738 581 l 738 403 l 458 403 q 328 374 374 403 q 282 289 282 344 q 341 198 282 231 q 522 165 400 165 q 694 188 608 165 q 840 253 781 211 l 910 83 m 363 1058 q 293 1085 321 1058 q 265 1154 265 1113 q 293 1223 265 1196 q 363 1250 321 1250 q 431 1223 404 1250 q 458 1154 458 1196 q 431 1085 458 1113 q 363 1058 404 1058 m 643 1058 q 574 1085 601 1058 q 547 1154 547 1113 q 574 1223 547 1196 q 643 1250 601 1250 q 713 1223 685 1250 q 740 1154 740 1196 q 713 1085 740 1113 q 643 1058 685 1058 z "},"Ė":{"ha":926,"x_min":54,"x_max":910,"o":"m 910 83 q 735 10 840 36 q 513 -17 631 -17 q 263 20 365 -17 q 107 123 160 57 q 54 274 54 189 q 97 411 54 351 q 215 500 140 471 q 127 583 158 531 q 96 701 96 636 q 144 846 96 781 q 292 950 193 911 q 533 989 390 989 q 718 970 628 989 q 875 919 808 951 l 813 747 q 542 807 685 807 q 378 774 433 807 q 324 686 324 742 q 360 608 324 635 q 472 581 397 581 l 738 581 l 738 403 l 458 403 q 328 374 374 403 q 282 289 282 344 q 341 198 282 231 q 522 165 400 165 q 694 188 608 165 q 840 253 781 211 l 910 83 m 503 1058 q 419 1092 451 1058 q 386 1176 386 1125 q 419 1260 386 1226 q 503 1293 451 1293 q 587 1260 554 1293 q 619 1176 619 1226 q 587 1092 619 1125 q 503 1058 554 1058 z "},"Ẹ":{"ha":926,"x_min":54,"x_max":910,"o":"m 910 83 q 735 10 840 36 q 513 -17 631 -17 q 263 20 365 -17 q 107 123 160 57 q 54 274 54 189 q 97 411 54 351 q 215 500 140 471 q 127 583 158 531 q 96 701 96 636 q 144 846 96 781 q 292 950 193 911 q 533 989 390 989 q 718 970 628 989 q 875 919 808 951 l 813 747 q 542 807 685 807 q 378 774 433 807 q 324 686 324 742 q 360 608 324 635 q 472 581 397 581 l 738 581 l 738 403 l 458 403 q 328 374 374 403 q 282 289 282 344 q 341 198 282 231 q 522 165 400 165 q 694 188 608 165 q 840 253 781 211 l 910 83 m 503 -292 q 434 -266 461 -292 q 407 -199 407 -240 q 434 -129 407 -157 q 503 -101 461 -101 q 571 -129 543 -101 q 599 -199 599 -157 q 572 -266 599 -240 q 503 -292 544 -292 z "},"È":{"ha":926,"x_min":54,"x_max":910,"o":"m 910 83 q 735 10 840 36 q 513 -17 631 -17 q 263 20 365 -17 q 107 123 160 57 q 54 274 54 189 q 97 411 54 351 q 215 500 140 471 q 127 583 158 531 q 96 701 96 636 q 144 846 96 781 q 292 950 193 911 q 533 989 390 989 q 718 970 628 989 q 875 919 808 951 l 813 747 q 542 807 685 807 q 378 774 433 807 q 324 686 324 742 q 360 608 324 635 q 472 581 397 581 l 738 581 l 738 403 l 458 403 q 328 374 374 403 q 282 289 282 344 q 341 198 282 231 q 522 165 400 165 q 694 188 608 165 q 840 253 781 211 l 910 83 m 208 1251 l 442 1251 l 629 1051 l 460 1051 l 208 1251 z "},"Ẻ":{"ha":926,"x_min":54,"x_max":910,"o":"m 910 83 q 735 10 840 36 q 513 -17 631 -17 q 263 20 365 -17 q 107 123 160 57 q 54 274 54 189 q 97 411 54 351 q 215 500 140 471 q 127 583 158 531 q 96 701 96 636 q 144 846 96 781 q 292 950 193 911 q 533 989 390 989 q 718 970 628 989 q 875 919 808 951 l 813 747 q 542 807 685 807 q 378 774 433 807 q 324 686 324 742 q 360 608 324 635 q 472 581 397 581 l 738 581 l 738 403 l 458 403 q 328 374 374 403 q 282 289 282 344 q 341 198 282 231 q 522 165 400 165 q 694 188 608 165 q 840 253 781 211 l 910 83 m 476 1110 q 531 1149 515 1128 q 547 1194 547 1169 q 529 1237 547 1221 q 482 1253 511 1253 q 400 1226 440 1253 l 356 1314 q 506 1361 415 1361 q 626 1320 579 1361 q 672 1213 672 1279 q 544 1038 672 1096 l 476 1110 z "},"Ȇ":{"ha":926,"x_min":54,"x_max":910,"o":"m 910 83 q 735 10 840 36 q 513 -17 631 -17 q 263 20 365 -17 q 107 123 160 57 q 54 274 54 189 q 97 411 54 351 q 215 500 140 471 q 127 583 158 531 q 96 701 96 636 q 144 846 96 781 q 292 950 193 911 q 533 989 390 989 q 718 970 628 989 q 875 919 808 951 l 813 747 q 542 807 685 807 q 378 774 433 807 q 324 686 324 742 q 360 608 324 635 q 472 581 397 581 l 738 581 l 738 403 l 458 403 q 328 374 374 403 q 282 289 282 344 q 341 198 282 231 q 522 165 400 165 q 694 188 608 165 q 840 253 781 211 l 910 83 m 247 1051 q 322 1206 251 1149 q 503 1263 393 1263 q 683 1206 613 1263 q 758 1051 754 1149 l 622 1051 q 587 1123 621 1096 q 503 1150 553 1150 q 419 1123 453 1150 q 383 1051 385 1096 l 247 1051 z "},"Ē":{"ha":926,"x_min":54,"x_max":910,"o":"m 910 83 q 735 10 840 36 q 513 -17 631 -17 q 263 20 365 -17 q 107 123 160 57 q 54 274 54 189 q 97 411 54 351 q 215 500 140 471 q 127 583 158 531 q 96 701 96 636 q 144 846 96 781 q 292 950 193 911 q 533 989 390 989 q 718 970 628 989 q 875 919 808 951 l 813 747 q 542 807 685 807 q 378 774 433 807 q 324 686 324 742 q 360 608 324 635 q 472 581 397 581 l 738 581 l 738 403 l 458 403 q 328 374 374 403 q 282 289 282 344 q 341 198 282 231 q 522 165 400 165 q 694 188 608 165 q 840 253 781 211 l 910 83 m 246 1213 l 760 1213 l 760 1090 l 246 1090 l 246 1213 z "},"Ḗ":{"ha":926,"x_min":54,"x_max":910,"o":"m 910 83 q 735 10 840 36 q 513 -17 631 -17 q 263 20 365 -17 q 107 123 160 57 q 54 274 54 189 q 97 411 54 351 q 215 500 140 471 q 127 583 158 531 q 96 701 96 636 q 144 846 96 781 q 292 950 193 911 q 533 989 390 989 q 718 970 628 989 q 875 919 808 951 l 813 747 q 542 807 685 807 q 378 774 433 807 q 324 686 324 742 q 360 608 324 635 q 472 581 397 581 l 738 581 l 738 403 l 458 403 q 328 374 374 403 q 282 289 282 344 q 341 198 282 231 q 522 165 400 165 q 694 188 608 165 q 840 253 781 211 l 910 83 m 246 1189 l 760 1189 l 760 1074 l 246 1074 l 246 1189 m 538 1443 l 758 1443 l 540 1275 l 383 1275 l 538 1443 z "},"Ḕ":{"ha":926,"x_min":54,"x_max":910,"o":"m 910 83 q 735 10 840 36 q 513 -17 631 -17 q 263 20 365 -17 q 107 123 160 57 q 54 274 54 189 q 97 411 54 351 q 215 500 140 471 q 127 583 158 531 q 96 701 96 636 q 144 846 96 781 q 292 950 193 911 q 533 989 390 989 q 718 970 628 989 q 875 919 808 951 l 813 747 q 542 807 685 807 q 378 774 433 807 q 324 686 324 742 q 360 608 324 635 q 472 581 397 581 l 738 581 l 738 403 l 458 403 q 328 374 374 403 q 282 289 282 344 q 341 198 282 231 q 522 165 400 165 q 694 188 608 165 q 840 253 781 211 l 910 83 m 246 1189 l 760 1189 l 760 1074 l 246 1074 l 246 1189 m 249 1443 l 469 1443 l 622 1275 l 467 1275 l 249 1443 z "},"Ę":{"ha":926,"x_min":54,"x_max":910,"o":"m 774 -212 q 858 -192 821 -212 l 889 -290 q 825 -313 863 -304 q 750 -322 788 -322 q 608 -280 660 -322 q 557 -167 557 -237 q 628 -8 557 -78 q 513 -17 572 -17 q 263 20 365 -17 q 107 123 160 57 q 54 274 54 189 q 97 411 54 351 q 215 500 140 471 q 127 583 158 531 q 96 701 96 636 q 144 846 96 781 q 292 950 193 911 q 533 989 390 989 q 718 970 628 989 q 875 919 808 951 l 813 747 q 542 807 685 807 q 378 774 433 807 q 324 686 324 742 q 360 608 324 635 q 472 581 397 581 l 738 581 l 738 403 l 458 403 q 328 374 374 403 q 282 289 282 344 q 341 198 282 231 q 522 165 400 165 q 693 189 607 165 q 840 253 779 213 l 910 83 q 694 -144 694 -40 q 716 -194 694 -176 q 774 -212 738 -212 z "},"Ẽ":{"ha":926,"x_min":54,"x_max":910,"o":"m 910 83 q 735 10 840 36 q 513 -17 631 -17 q 263 20 365 -17 q 107 123 160 57 q 54 274 54 189 q 97 411 54 351 q 215 500 140 471 q 127 583 158 531 q 96 701 96 636 q 144 846 96 781 q 292 950 193 911 q 533 989 390 989 q 718 970 628 989 q 875 919 808 951 l 813 747 q 542 807 685 807 q 378 774 433 807 q 324 686 324 742 q 360 608 324 635 q 472 581 397 581 l 738 581 l 738 403 l 458 403 q 328 374 374 403 q 282 289 282 344 q 341 198 282 231 q 522 165 400 165 q 694 188 608 165 q 840 253 781 211 l 910 83 m 607 1047 q 541 1062 569 1047 q 478 1101 513 1076 q 441 1126 456 1118 q 413 1135 426 1135 q 365 1115 383 1135 q 346 1057 347 1094 l 236 1057 q 283 1205 239 1150 q 399 1260 326 1260 q 463 1245 435 1260 q 528 1204 492 1231 q 565 1179 550 1188 q 593 1171 579 1171 q 640 1191 621 1171 q 660 1246 658 1211 l 769 1246 q 723 1101 767 1156 q 607 1047 679 1047 z "},"Ʒ":{"ha":886,"x_min":35,"x_max":835,"o":"m 549 578 q 761 483 688 557 q 835 299 835 410 q 789 141 835 213 q 649 26 743 69 q 415 -17 554 -17 q 204 10 307 -17 q 35 86 101 38 l 111 260 q 248 193 169 217 q 408 169 326 169 q 554 203 501 169 q 607 297 607 238 q 558 388 607 356 q 410 419 510 419 l 306 419 l 306 565 l 522 793 l 75 793 l 75 972 l 785 972 l 785 826 l 549 578 z "},"Ǯ":{"ha":886,"x_min":35,"x_max":835,"o":"m 549 578 q 761 483 688 557 q 835 299 835 410 q 789 141 835 213 q 649 26 743 69 q 415 -17 554 -17 q 204 10 307 -17 q 35 86 101 38 l 111 260 q 248 193 169 217 q 408 169 326 169 q 554 203 501 169 q 607 297 607 238 q 558 388 607 356 q 410 419 510 419 l 306 419 l 306 565 l 522 793 l 75 793 l 75 972 l 785 972 l 785 826 l 549 578 m 710 1251 l 526 1051 l 335 1051 l 151 1251 l 310 1251 l 431 1147 l 551 1251 l 710 1251 z "},"F":{"ha":854,"x_min":107,"x_max":838,"o":"m 568 797 q 392 747 451 797 q 332 594 332 696 l 332 535 l 732 535 l 732 354 l 332 354 l 332 0 l 107 0 l 107 593 q 224 885 107 781 q 553 989 342 989 q 710 972 636 989 q 838 921 783 954 l 768 743 q 568 797 685 797 z "},"G":{"ha":1071,"x_min":54,"x_max":996,"o":"m 772 501 l 978 501 l 978 0 l 808 0 l 808 58 q 547 -17 707 -17 q 300 42 413 -17 q 121 212 188 100 q 54 478 54 324 q 123 742 54 626 q 314 924 192 858 q 589 989 436 989 q 821 946 717 989 q 996 821 925 903 l 851 688 q 600 797 747 797 q 435 758 507 797 q 322 646 363 718 q 282 479 282 574 q 322 311 282 381 q 428 206 361 242 q 574 171 494 171 q 772 238 692 171 l 772 501 z "},"Ğ":{"ha":1071,"x_min":54,"x_max":996,"o":"m 772 501 l 978 501 l 978 0 l 808 0 l 808 58 q 547 -17 707 -17 q 300 42 413 -17 q 121 212 188 100 q 54 478 54 324 q 123 742 54 626 q 314 924 192 858 q 589 989 436 989 q 821 946 717 989 q 996 821 925 903 l 851 688 q 600 797 747 797 q 435 758 507 797 q 322 646 363 718 q 282 479 282 574 q 322 311 282 381 q 428 206 361 242 q 574 171 494 171 q 772 238 692 171 l 772 501 m 579 1040 q 399 1097 469 1040 q 324 1251 328 1154 l 460 1251 q 495 1180 461 1207 q 579 1153 529 1153 q 663 1180 629 1153 q 699 1251 697 1207 l 835 1251 q 760 1097 831 1154 q 579 1040 689 1040 z "},"Ǧ":{"ha":1071,"x_min":54,"x_max":996,"o":"m 772 501 l 978 501 l 978 0 l 808 0 l 808 58 q 547 -17 707 -17 q 300 42 413 -17 q 121 212 188 100 q 54 478 54 324 q 123 742 54 626 q 314 924 192 858 q 589 989 436 989 q 821 946 717 989 q 996 821 925 903 l 851 688 q 600 797 747 797 q 435 758 507 797 q 322 646 363 718 q 282 479 282 574 q 322 311 282 381 q 428 206 361 242 q 574 171 494 171 q 772 238 692 171 l 772 501 m 858 1251 l 675 1051 l 483 1051 l 300 1251 l 458 1251 l 579 1147 l 700 1251 l 858 1251 z "},"Ĝ":{"ha":1071,"x_min":54,"x_max":996,"o":"m 772 501 l 978 501 l 978 0 l 808 0 l 808 58 q 547 -17 707 -17 q 300 42 413 -17 q 121 212 188 100 q 54 478 54 324 q 123 742 54 626 q 314 924 192 858 q 589 989 436 989 q 821 946 717 989 q 996 821 925 903 l 851 688 q 600 797 747 797 q 435 758 507 797 q 322 646 363 718 q 282 479 282 574 q 322 311 282 381 q 428 206 361 242 q 574 171 494 171 q 772 238 692 171 l 772 501 m 700 1051 l 579 1157 l 458 1051 l 300 1051 l 483 1251 l 675 1251 l 858 1051 l 700 1051 z "},"Ģ":{"ha":1071,"x_min":54,"x_max":996,"o":"m 772 501 l 978 501 l 978 0 l 808 0 l 808 58 q 547 -17 707 -17 q 300 42 413 -17 q 121 212 188 100 q 54 478 54 324 q 123 742 54 626 q 314 924 192 858 q 589 989 436 989 q 821 946 717 989 q 996 821 925 903 l 851 688 q 600 797 747 797 q 435 758 507 797 q 322 646 363 718 q 282 479 282 574 q 322 311 282 381 q 428 206 361 242 q 574 171 494 171 q 772 238 692 171 l 772 501 m 565 -99 q 635 -122 610 -99 q 661 -182 661 -144 q 636 -272 661 -225 l 588 -367 l 486 -367 l 521 -256 q 483 -228 496 -247 q 469 -182 469 -210 q 495 -122 469 -144 q 565 -99 521 -99 z "},"Ġ":{"ha":1071,"x_min":54,"x_max":996,"o":"m 772 501 l 978 501 l 978 0 l 808 0 l 808 58 q 547 -17 707 -17 q 300 42 413 -17 q 121 212 188 100 q 54 478 54 324 q 123 742 54 626 q 314 924 192 858 q 589 989 436 989 q 821 946 717 989 q 996 821 925 903 l 851 688 q 600 797 747 797 q 435 758 507 797 q 322 646 363 718 q 282 479 282 574 q 322 311 282 381 q 428 206 361 242 q 574 171 494 171 q 772 238 692 171 l 772 501 m 579 1058 q 495 1092 528 1058 q 463 1176 463 1125 q 495 1260 463 1226 q 579 1293 528 1293 q 663 1260 631 1293 q 696 1176 696 1226 q 663 1092 696 1125 q 579 1058 631 1058 z "},"Ḡ":{"ha":1071,"x_min":54,"x_max":996,"o":"m 772 501 l 978 501 l 978 0 l 808 0 l 808 58 q 547 -17 707 -17 q 300 42 413 -17 q 121 212 188 100 q 54 478 54 324 q 123 742 54 626 q 314 924 192 858 q 589 989 436 989 q 821 946 717 989 q 996 821 925 903 l 851 688 q 600 797 747 797 q 435 758 507 797 q 322 646 363 718 q 282 479 282 574 q 322 311 282 381 q 428 206 361 242 q 574 171 494 171 q 772 238 692 171 l 772 501 m 322 1213 l 836 1213 l 836 1090 l 322 1090 l 322 1213 z "},"Ǥ":{"ha":1133,"x_min":54,"x_max":1104,"o":"m 772 501 l 978 501 l 978 0 l 808 0 l 808 58 q 547 -17 707 -17 q 300 42 413 -17 q 121 212 188 100 q 54 478 54 324 q 123 742 54 626 q 314 924 192 858 q 589 989 436 989 q 821 946 717 989 q 996 821 925 903 l 851 688 q 600 797 747 797 q 435 758 507 797 q 322 646 363 718 q 282 479 282 574 q 322 311 282 381 q 428 206 361 242 q 574 171 494 171 q 772 238 692 171 l 772 501 m 550 423 l 1104 423 l 1104 274 l 550 274 l 550 423 z "},"H":{"ha":1122,"x_min":115,"x_max":1007,"o":"m 1007 972 l 1007 0 l 782 0 l 782 399 l 340 399 l 340 0 l 115 0 l 115 972 l 340 972 l 340 589 l 782 589 l 782 972 l 1007 972 z "},"Ħ":{"ha":1158,"x_min":1,"x_max":1157,"o":"m 1025 972 l 1025 0 l 800 0 l 800 399 l 358 399 l 358 0 l 133 0 l 133 972 l 358 972 l 358 589 l 800 589 l 800 972 l 1025 972 m 1 858 l 1157 858 l 1157 708 l 1 708 l 1 858 z "},"Ḫ":{"ha":1122,"x_min":115,"x_max":1007,"o":"m 1007 972 l 1007 0 l 782 0 l 782 399 l 340 399 l 340 0 l 115 0 l 115 972 l 340 972 l 340 589 l 782 589 l 782 972 l 1007 972 m 561 -301 q 382 -247 453 -301 q 306 -103 311 -192 l 435 -103 q 472 -170 436 -144 q 561 -196 507 -196 q 651 -170 615 -196 q 688 -103 686 -144 l 817 -103 q 740 -247 811 -192 q 561 -301 669 -301 z "},"Ȟ":{"ha":1122,"x_min":115,"x_max":1007,"o":"m 1007 972 l 1007 0 l 782 0 l 782 399 l 340 399 l 340 0 l 115 0 l 115 972 l 340 972 l 340 589 l 782 589 l 782 972 l 1007 972 m 840 1251 l 657 1051 l 465 1051 l 282 1251 l 440 1251 l 561 1147 l 682 1251 l 840 1251 z "},"Ĥ":{"ha":1122,"x_min":115,"x_max":1007,"o":"m 1007 972 l 1007 0 l 782 0 l 782 399 l 340 399 l 340 0 l 115 0 l 115 972 l 340 972 l 340 589 l 782 589 l 782 972 l 1007 972 m 682 1051 l 561 1157 l 440 1051 l 282 1051 l 465 1251 l 657 1251 l 840 1051 l 682 1051 z "},"Ḥ":{"ha":1122,"x_min":115,"x_max":1007,"o":"m 1007 972 l 1007 0 l 782 0 l 782 399 l 340 399 l 340 0 l 115 0 l 115 972 l 340 972 l 340 589 l 782 589 l 782 972 l 1007 972 m 561 -292 q 492 -266 519 -292 q 465 -199 465 -240 q 492 -129 465 -157 q 561 -101 519 -101 q 629 -129 601 -101 q 657 -199 657 -157 q 630 -266 657 -240 q 561 -292 603 -292 z "},"I":{"ha":671,"x_min":54,"x_max":617,"o":"m 449 792 l 449 181 l 617 181 l 617 0 l 54 0 l 54 181 l 224 181 l 224 792 l 54 792 l 54 972 l 617 972 l 617 792 l 449 792 z "},"Ĳ":{"ha":1006,"x_min":85,"x_max":899,"o":"m 454 -151 q 251 -123 346 -151 q 85 -44 157 -94 l 169 125 q 306 59 233 82 q 450 36 379 36 q 617 98 561 36 q 674 289 674 160 l 674 972 l 899 972 l 899 303 q 844 55 899 157 q 689 -99 789 -47 q 454 -151 589 -151 m 107 972 l 332 972 l 332 308 l 107 308 l 107 972 z "},"Í":{"ha":671,"x_min":54,"x_max":631,"o":"m 449 792 l 449 181 l 617 181 l 617 0 l 54 0 l 54 181 l 224 181 l 224 792 l 54 792 l 54 972 l 617 972 l 617 792 l 449 792 m 397 1251 l 631 1251 l 379 1051 l 210 1051 l 397 1251 z "},"Ĭ":{"ha":671,"x_min":54,"x_max":617,"o":"m 449 792 l 449 181 l 617 181 l 617 0 l 54 0 l 54 181 l 224 181 l 224 792 l 54 792 l 54 972 l 617 972 l 617 792 l 449 792 m 336 1040 q 156 1097 226 1040 q 81 1251 85 1154 l 217 1251 q 252 1180 218 1207 q 336 1153 286 1153 q 420 1180 386 1153 q 456 1251 454 1207 l 592 1251 q 517 1097 588 1154 q 336 1040 446 1040 z "},"Î":{"ha":671,"x_min":54,"x_max":617,"o":"m 449 792 l 449 181 l 617 181 l 617 0 l 54 0 l 54 181 l 224 181 l 224 792 l 54 792 l 54 972 l 617 972 l 617 792 l 449 792 m 457 1051 l 336 1157 l 215 1051 l 57 1051 l 240 1251 l 432 1251 l 615 1051 l 457 1051 z "},"Ȉ":{"ha":671,"x_min":-28,"x_max":617,"o":"m 449 792 l 449 181 l 617 181 l 617 0 l 54 0 l 54 181 l 224 181 l 224 792 l 54 792 l 54 972 l 617 972 l 617 792 l 449 792 m -28 1251 l 175 1251 l 275 1051 l 117 1051 l -28 1251 m 253 1251 l 456 1251 l 556 1051 l 397 1051 l 253 1251 z "},"Ï":{"ha":671,"x_min":54,"x_max":617,"o":"m 449 792 l 449 181 l 617 181 l 617 0 l 54 0 l 54 181 l 224 181 l 224 792 l 54 792 l 54 972 l 617 972 l 617 792 l 449 792 m 196 1058 q 126 1085 154 1058 q 99 1154 99 1113 q 126 1223 99 1196 q 196 1250 154 1250 q 265 1223 238 1250 q 292 1154 292 1196 q 265 1085 292 1113 q 196 1058 238 1058 m 476 1058 q 408 1085 435 1058 q 381 1154 381 1113 q 408 1223 381 1196 q 476 1250 435 1250 q 546 1223 518 1250 q 574 1154 574 1196 q 546 1085 574 1113 q 476 1058 518 1058 z "},"Ḯ":{"ha":671,"x_min":54,"x_max":617,"o":"m 449 792 l 449 181 l 617 181 l 617 0 l 54 0 l 54 181 l 224 181 l 224 792 l 54 792 l 54 972 l 617 972 l 617 792 l 449 792 m 200 1058 q 135 1084 161 1058 q 108 1150 108 1110 q 135 1215 108 1189 q 200 1242 161 1242 q 267 1215 240 1242 q 293 1150 293 1189 q 267 1084 293 1110 q 200 1058 240 1058 m 472 1058 q 407 1084 433 1058 q 381 1150 381 1110 q 408 1215 381 1189 q 472 1242 435 1242 q 538 1215 511 1242 q 564 1150 564 1189 q 538 1084 564 1110 q 472 1058 511 1058 m 371 1443 l 592 1443 l 374 1275 l 217 1275 l 371 1443 z "},"İ":{"ha":671,"x_min":54,"x_max":617,"o":"m 449 792 l 449 181 l 617 181 l 617 0 l 54 0 l 54 181 l 224 181 l 224 792 l 54 792 l 54 972 l 617 972 l 617 792 l 449 792 m 336 1058 q 252 1092 285 1058 q 219 1176 219 1125 q 252 1260 219 1226 q 336 1293 285 1293 q 420 1260 388 1293 q 453 1176 453 1226 q 420 1092 453 1125 q 336 1058 388 1058 z "},"Ị":{"ha":671,"x_min":54,"x_max":617,"o":"m 449 792 l 449 181 l 617 181 l 617 0 l 54 0 l 54 181 l 224 181 l 224 792 l 54 792 l 54 972 l 617 972 l 617 792 l 449 792 m 336 -292 q 267 -266 294 -292 q 240 -199 240 -240 q 267 -129 240 -157 q 336 -101 294 -101 q 404 -129 376 -101 q 432 -199 432 -157 q 405 -266 432 -240 q 336 -292 378 -292 z "},"Ì":{"ha":671,"x_min":42,"x_max":617,"o":"m 449 792 l 449 181 l 617 181 l 617 0 l 54 0 l 54 181 l 224 181 l 224 792 l 54 792 l 54 972 l 617 972 l 617 792 l 449 792 m 42 1251 l 275 1251 l 463 1051 l 293 1051 l 42 1251 z "},"Ỉ":{"ha":671,"x_min":54,"x_max":617,"o":"m 449 792 l 449 181 l 617 181 l 617 0 l 54 0 l 54 181 l 224 181 l 224 792 l 54 792 l 54 972 l 617 972 l 617 792 l 449 792 m 310 1110 q 365 1149 349 1128 q 381 1194 381 1169 q 363 1237 381 1221 q 315 1253 344 1253 q 233 1226 274 1253 l 189 1314 q 339 1361 249 1361 q 459 1320 413 1361 q 506 1213 506 1279 q 378 1038 506 1096 l 310 1110 z "},"Ȋ":{"ha":671,"x_min":54,"x_max":617,"o":"m 449 792 l 449 181 l 617 181 l 617 0 l 54 0 l 54 181 l 224 181 l 224 792 l 54 792 l 54 972 l 617 972 l 617 792 l 449 792 m 81 1051 q 156 1206 85 1149 q 336 1263 226 1263 q 517 1206 446 1263 q 592 1051 588 1149 l 456 1051 q 420 1123 454 1096 q 336 1150 386 1150 q 252 1123 286 1150 q 217 1051 218 1096 l 81 1051 z "},"Ī":{"ha":671,"x_min":54,"x_max":617,"o":"m 449 792 l 449 181 l 617 181 l 617 0 l 54 0 l 54 181 l 224 181 l 224 792 l 54 792 l 54 972 l 617 972 l 617 792 l 449 792 m 79 1213 l 593 1213 l 593 1090 l 79 1090 l 79 1213 z "},"Į":{"ha":671,"x_min":54,"x_max":617,"o":"m 449 792 l 449 181 l 617 181 l 617 0 l 54 0 l 54 181 l 224 181 l 224 792 l 54 792 l 54 972 l 617 972 l 617 792 l 449 792 m 390 -322 q 269 -280 315 -322 q 224 -168 224 -237 q 264 -45 224 -103 q 383 57 304 13 l 450 0 q 380 -76 400 -40 q 360 -147 360 -111 q 376 -194 360 -176 q 418 -212 393 -212 q 463 -199 443 -212 l 493 -293 q 390 -322 453 -322 z "},"Ĩ":{"ha":671,"x_min":54,"x_max":617,"o":"m 449 792 l 449 181 l 617 181 l 617 0 l 54 0 l 54 181 l 224 181 l 224 792 l 54 792 l 54 972 l 617 972 l 617 792 l 449 792 m 440 1047 q 374 1062 403 1047 q 311 1101 346 1076 q 274 1126 289 1118 q 246 1135 260 1135 q 199 1115 217 1135 q 179 1057 181 1094 l 69 1057 q 116 1205 72 1150 q 232 1260 160 1260 q 297 1245 268 1260 q 361 1204 325 1231 q 398 1179 383 1188 q 426 1171 413 1171 q 473 1191 454 1171 q 493 1246 492 1211 l 603 1246 q 556 1101 600 1156 q 440 1047 513 1047 z "},"J":{"ha":750,"x_min":-22,"x_max":643,"o":"m 292 -156 q 112 -119 193 -156 q -22 -14 31 -82 l 100 136 q 279 29 179 29 q 418 190 418 29 l 418 792 l 78 792 l 78 972 l 643 972 l 643 203 q 554 -66 643 24 q 292 -156 465 -156 z "},"Ĵ":{"ha":750,"x_min":-22,"x_max":643,"o":"m 292 -156 q 112 -119 193 -156 q -22 -14 31 -82 l 100 136 q 279 29 179 29 q 418 190 418 29 l 418 792 l 78 792 l 78 972 l 643 972 l 643 203 q 554 -66 643 24 q 292 -156 465 -156 m 482 1051 l 361 1157 l 240 1051 l 82 1051 l 265 1251 l 457 1251 l 640 1051 l 482 1051 z "},"K":{"ha":1028,"x_min":115,"x_max":1043,"o":"m 469 382 l 339 246 l 339 0 l 115 0 l 115 972 l 339 972 l 339 518 l 769 972 l 1019 972 l 617 539 l 1043 0 l 781 0 l 469 382 z "},"Ǩ":{"ha":1028,"x_min":115,"x_max":1043,"o":"m 469 382 l 339 246 l 339 0 l 115 0 l 115 972 l 339 972 l 339 518 l 769 972 l 1019 972 l 617 539 l 1043 0 l 781 0 l 469 382 m 806 1251 l 622 1051 l 431 1051 l 247 1251 l 406 1251 l 526 1147 l 647 1251 l 806 1251 z "},"Ķ":{"ha":1028,"x_min":115,"x_max":1043,"o":"m 469 382 l 339 246 l 339 0 l 115 0 l 115 972 l 339 972 l 339 518 l 769 972 l 1019 972 l 617 539 l 1043 0 l 781 0 l 469 382 m 526 -101 q 597 -124 571 -101 q 622 -185 622 -147 q 597 -275 622 -228 l 549 -369 l 447 -369 l 482 -258 q 444 -231 457 -250 q 431 -185 431 -212 q 456 -124 431 -147 q 526 -101 482 -101 z "},"L":{"ha":839,"x_min":115,"x_max":828,"o":"m 115 972 l 340 972 l 340 183 l 828 183 l 828 0 l 115 0 l 115 972 z "},"Ǉ":{"ha":1631,"x_min":115,"x_max":1524,"o":"m 115 972 l 340 972 l 340 183 l 828 183 l 828 0 l 115 0 l 115 972 m 1172 -156 q 992 -119 1074 -156 q 858 -14 911 -82 l 981 136 q 1160 29 1060 29 q 1299 190 1299 29 l 1299 792 l 958 792 l 958 972 l 1524 972 l 1524 203 q 1435 -66 1524 24 q 1172 -156 1346 -156 z "},"Ĺ":{"ha":839,"x_min":101,"x_max":828,"o":"m 115 972 l 340 972 l 340 183 l 828 183 l 828 0 l 115 0 l 115 972 m 289 1251 l 522 1251 l 271 1051 l 101 1051 l 289 1251 z "},"Ľ":{"ha":839,"x_min":115,"x_max":828,"o":"m 115 972 l 340 972 l 340 183 l 828 183 l 828 0 l 115 0 l 115 972 m 599 1029 l 761 1029 l 733 750 l 599 750 l 599 1029 z "},"Ļ":{"ha":839,"x_min":115,"x_max":828,"o":"m 115 972 l 340 972 l 340 183 l 828 183 l 828 0 l 115 0 l 115 972 m 488 -101 q 558 -124 532 -101 q 583 -185 583 -147 q 558 -275 583 -228 l 510 -369 l 408 -369 l 443 -258 q 405 -231 418 -250 q 392 -185 392 -212 q 417 -124 392 -147 q 488 -101 443 -101 z "},"Ŀ":{"ha":839,"x_min":115,"x_max":828,"o":"m 115 972 l 340 972 l 340 183 l 828 183 l 828 0 l 115 0 l 115 972 m 649 457 q 564 491 597 457 q 531 578 531 525 q 564 665 531 631 q 649 699 597 699 q 733 665 700 699 q 767 578 767 631 q 733 491 767 525 q 649 457 700 457 z "},"Ḷ":{"ha":839,"x_min":115,"x_max":828,"o":"m 115 972 l 340 972 l 340 183 l 828 183 l 828 0 l 115 0 l 115 972 m 488 -292 q 419 -266 446 -292 q 392 -199 392 -240 q 419 -129 392 -157 q 488 -101 446 -101 q 556 -129 528 -101 q 583 -199 583 -157 q 556 -266 583 -240 q 488 -292 529 -292 z "},"ǈ":{"ha":1265,"x_min":115,"x_max":1192,"o":"m 115 972 l 340 972 l 340 183 l 828 183 l 828 0 l 115 0 l 115 972 m 883 -281 q 710 -239 769 -281 l 768 -82 q 860 -108 806 -108 q 925 -81 901 -108 q 949 0 949 -54 l 949 747 l 1165 747 l 1165 1 q 1091 -205 1165 -129 q 883 -281 1017 -281 m 1057 851 q 960 886 997 851 q 922 972 922 921 q 960 1058 922 1024 q 1057 1093 997 1093 q 1154 1060 1117 1093 q 1192 976 1192 1026 q 1154 887 1192 922 q 1057 851 1117 851 z "},"Ḻ":{"ha":839,"x_min":115,"x_max":828,"o":"m 115 972 l 340 972 l 340 183 l 828 183 l 828 0 l 115 0 l 115 972 m 231 -132 l 744 -132 l 744 -253 l 231 -253 l 231 -132 z "},"Ł":{"ha":857,"x_min":-19,"x_max":846,"o":"m 133 972 l 358 972 l 358 183 l 846 183 l 846 0 l 133 0 l 133 972 m -19 422 l 503 814 l 583 706 l 61 314 l -19 422 z "},"M":{"ha":1696,"x_min":115,"x_max":1589,"o":"m 1225 989 q 1493 888 1397 989 q 1589 597 1589 788 l 1589 0 l 1364 0 l 1364 590 q 1310 745 1364 693 q 1169 797 1257 797 q 1017 742 1074 797 q 960 576 960 688 l 960 0 l 735 0 l 735 590 q 685 745 735 693 q 549 797 635 797 q 397 742 454 797 q 340 576 340 688 l 340 0 l 115 0 l 115 972 l 333 972 l 333 853 q 451 953 378 918 q 621 989 525 989 q 796 952 721 989 q 911 846 871 915 q 1042 952 961 915 q 1225 989 1124 989 z "},"Ṃ":{"ha":1696,"x_min":115,"x_max":1589,"o":"m 1225 989 q 1493 888 1397 989 q 1589 597 1589 788 l 1589 0 l 1364 0 l 1364 590 q 1310 745 1364 693 q 1169 797 1257 797 q 1017 742 1074 797 q 960 576 960 688 l 960 0 l 735 0 l 735 590 q 685 745 735 693 q 549 797 635 797 q 397 742 454 797 q 340 576 340 688 l 340 0 l 115 0 l 115 972 l 333 972 l 333 853 q 451 953 378 918 q 621 989 525 989 q 796 952 721 989 q 911 846 871 915 q 1042 952 961 915 q 1225 989 1124 989 m 849 -292 q 780 -266 807 -292 q 753 -199 753 -240 q 780 -129 753 -157 q 849 -101 807 -101 q 917 -129 889 -101 q 944 -199 944 -157 q 917 -266 944 -240 q 849 -292 890 -292 z "},"N":{"ha":1106,"x_min":115,"x_max":999,"o":"m 631 989 q 901 880 804 989 q 999 569 999 771 l 999 0 l 774 0 l 774 563 q 719 738 774 679 q 567 797 664 797 q 402 734 464 797 q 340 547 340 671 l 340 0 l 115 0 l 115 972 l 333 972 l 333 854 q 458 955 383 921 q 631 989 533 989 z "},"Ǌ":{"ha":1856,"x_min":115,"x_max":1749,"o":"m 631 989 q 901 880 804 989 q 999 569 999 771 l 999 0 l 774 0 l 774 563 q 719 738 774 679 q 567 797 664 797 q 402 734 464 797 q 340 547 340 671 l 340 0 l 115 0 l 115 972 l 333 972 l 333 854 q 458 955 383 921 q 631 989 533 989 m 1397 -156 q 1217 -119 1299 -156 q 1083 -14 1136 -82 l 1206 136 q 1385 29 1285 29 q 1524 190 1524 29 l 1524 792 l 1183 792 l 1183 972 l 1749 972 l 1749 203 q 1660 -66 1749 24 q 1397 -156 1571 -156 z "},"Ń":{"ha":1106,"x_min":115,"x_max":999,"o":"m 631 989 q 901 880 804 989 q 999 569 999 771 l 999 0 l 774 0 l 774 563 q 719 738 774 679 q 567 797 664 797 q 402 734 464 797 q 340 547 340 671 l 340 0 l 115 0 l 115 972 l 333 972 l 333 854 q 458 955 383 921 q 631 989 533 989 m 618 1251 l 851 1251 l 600 1051 l 431 1051 l 618 1251 z "},"Ň":{"ha":1106,"x_min":115,"x_max":999,"o":"m 631 989 q 901 880 804 989 q 999 569 999 771 l 999 0 l 774 0 l 774 563 q 719 738 774 679 q 567 797 664 797 q 402 734 464 797 q 340 547 340 671 l 340 0 l 115 0 l 115 972 l 333 972 l 333 854 q 458 955 383 921 q 631 989 533 989 m 836 1251 l 653 1051 l 461 1051 l 278 1251 l 436 1251 l 557 1147 l 678 1251 l 836 1251 z "},"Ņ":{"ha":1106,"x_min":115,"x_max":999,"o":"m 631 989 q 901 880 804 989 q 999 569 999 771 l 999 0 l 774 0 l 774 563 q 719 738 774 679 q 567 797 664 797 q 402 734 464 797 q 340 547 340 671 l 340 0 l 115 0 l 115 972 l 333 972 l 333 854 q 458 955 383 921 q 631 989 533 989 m 557 -101 q 627 -124 601 -101 q 653 -185 653 -147 q 628 -275 653 -228 l 579 -369 l 478 -369 l 513 -258 q 474 -231 488 -250 q 461 -185 461 -212 q 487 -124 461 -147 q 557 -101 513 -101 z "},"Ṅ":{"ha":1106,"x_min":115,"x_max":999,"o":"m 631 989 q 901 880 804 989 q 999 569 999 771 l 999 0 l 774 0 l 774 563 q 719 738 774 679 q 567 797 664 797 q 402 734 464 797 q 340 547 340 671 l 340 0 l 115 0 l 115 972 l 333 972 l 333 854 q 458 955 383 921 q 631 989 533 989 m 557 1058 q 473 1092 506 1058 q 440 1176 440 1125 q 473 1260 440 1226 q 557 1293 506 1293 q 641 1260 608 1293 q 674 1176 674 1226 q 641 1092 674 1125 q 557 1058 608 1058 z "},"Ṇ":{"ha":1106,"x_min":115,"x_max":999,"o":"m 631 989 q 901 880 804 989 q 999 569 999 771 l 999 0 l 774 0 l 774 563 q 719 738 774 679 q 567 797 664 797 q 402 734 464 797 q 340 547 340 671 l 340 0 l 115 0 l 115 972 l 333 972 l 333 854 q 458 955 383 921 q 631 989 533 989 m 557 -292 q 488 -266 515 -292 q 461 -199 461 -240 q 488 -129 461 -157 q 557 -101 515 -101 q 625 -129 597 -101 q 653 -199 653 -157 q 626 -266 653 -240 q 557 -292 599 -292 z "},"Ŋ":{"ha":1106,"x_min":115,"x_max":999,"o":"m 631 989 q 901 880 804 989 q 999 569 999 771 l 999 79 q 910 -190 999 -100 q 650 -281 821 -281 q 505 -258 572 -281 q 388 -189 438 -235 l 493 -28 q 638 -92 554 -92 q 739 -51 704 -92 q 774 69 774 -11 l 774 563 q 719 738 774 679 q 567 797 664 797 q 402 734 464 797 q 340 547 340 671 l 340 0 l 115 0 l 115 972 l 333 972 l 333 854 q 458 955 383 921 q 631 989 533 989 z "},"ǋ":{"ha":1532,"x_min":115,"x_max":1458,"o":"m 631 989 q 901 880 804 989 q 999 569 999 771 l 999 0 l 774 0 l 774 563 q 719 738 774 679 q 567 797 664 797 q 402 734 464 797 q 340 547 340 671 l 340 0 l 115 0 l 115 972 l 333 972 l 333 854 q 458 955 383 921 q 631 989 533 989 m 1150 -281 q 976 -239 1036 -281 l 1035 -82 q 1126 -108 1072 -108 q 1192 -81 1168 -108 q 1215 0 1215 -54 l 1215 747 l 1432 747 l 1432 1 q 1358 -205 1432 -129 q 1150 -281 1283 -281 m 1324 851 q 1226 886 1264 851 q 1189 972 1189 921 q 1226 1058 1189 1024 q 1324 1093 1264 1093 q 1421 1060 1383 1093 q 1458 976 1458 1026 q 1421 887 1458 922 q 1324 851 1383 851 z "},"Ṉ":{"ha":1106,"x_min":115,"x_max":999,"o":"m 631 989 q 901 880 804 989 q 999 569 999 771 l 999 0 l 774 0 l 774 563 q 719 738 774 679 q 567 797 664 797 q 402 734 464 797 q 340 547 340 671 l 340 0 l 115 0 l 115 972 l 333 972 l 333 854 q 458 955 383 921 q 631 989 533 989 m 300 -132 l 814 -132 l 814 -253 l 300 -253 l 300 -132 z "},"Ñ":{"ha":1106,"x_min":115,"x_max":999,"o":"m 631 989 q 901 880 804 989 q 999 569 999 771 l 999 0 l 774 0 l 774 563 q 719 738 774 679 q 567 797 664 797 q 402 734 464 797 q 340 547 340 671 l 340 0 l 115 0 l 115 972 l 333 972 l 333 854 q 458 955 383 921 q 631 989 533 989 m 661 1047 q 595 1062 624 1047 q 532 1101 567 1076 q 495 1126 510 1118 q 467 1135 481 1135 q 419 1115 438 1135 q 400 1057 401 1094 l 290 1057 q 337 1205 293 1150 q 453 1260 381 1260 q 517 1245 489 1260 q 582 1204 546 1231 q 619 1179 604 1188 q 647 1171 633 1171 q 694 1191 675 1171 q 714 1246 713 1211 l 824 1246 q 777 1101 821 1156 q 661 1047 733 1047 z "},"O":{"ha":1172,"x_min":54,"x_max":1118,"o":"m 586 -17 q 313 49 435 -17 q 123 228 192 114 q 54 486 54 343 q 123 744 54 629 q 313 924 192 858 q 586 989 435 989 q 858 924 738 989 q 1049 744 979 858 q 1118 486 1118 629 q 1049 228 1118 343 q 858 49 979 114 q 586 -17 738 -17 m 586 175 q 742 215 672 175 q 851 325 811 254 q 890 486 890 396 q 851 647 890 576 q 742 758 811 718 q 586 797 672 797 q 431 758 500 797 q 322 647 361 718 q 282 486 282 576 q 322 325 282 396 q 431 215 361 254 q 586 175 500 175 z "},"Ó":{"ha":1172,"x_min":54,"x_max":1118,"o":"m 586 -17 q 313 49 435 -17 q 123 228 192 114 q 54 486 54 343 q 123 744 54 629 q 313 924 192 858 q 586 989 435 989 q 858 924 738 989 q 1049 744 979 858 q 1118 486 1118 629 q 1049 228 1118 343 q 858 49 979 114 q 586 -17 738 -17 m 586 175 q 742 215 672 175 q 851 325 811 254 q 890 486 890 396 q 851 647 890 576 q 742 758 811 718 q 586 797 672 797 q 431 758 500 797 q 322 647 361 718 q 282 486 282 576 q 322 325 282 396 q 431 215 361 254 q 586 175 500 175 m 647 1251 l 881 1251 l 629 1051 l 460 1051 l 647 1251 z "},"Ŏ":{"ha":1172,"x_min":54,"x_max":1118,"o":"m 586 -17 q 313 49 435 -17 q 123 228 192 114 q 54 486 54 343 q 123 744 54 629 q 313 924 192 858 q 586 989 435 989 q 858 924 738 989 q 1049 744 979 858 q 1118 486 1118 629 q 1049 228 1118 343 q 858 49 979 114 q 586 -17 738 -17 m 586 175 q 742 215 672 175 q 851 325 811 254 q 890 486 890 396 q 851 647 890 576 q 742 758 811 718 q 586 797 672 797 q 431 758 500 797 q 322 647 361 718 q 282 486 282 576 q 322 325 282 396 q 431 215 361 254 q 586 175 500 175 m 586 1040 q 406 1097 476 1040 q 331 1251 335 1154 l 467 1251 q 502 1180 468 1207 q 586 1153 536 1153 q 670 1180 636 1153 q 706 1251 704 1207 l 842 1251 q 767 1097 838 1154 q 586 1040 696 1040 z "},"Ô":{"ha":1172,"x_min":54,"x_max":1118,"o":"m 586 -17 q 313 49 435 -17 q 123 228 192 114 q 54 486 54 343 q 123 744 54 629 q 313 924 192 858 q 586 989 435 989 q 858 924 738 989 q 1049 744 979 858 q 1118 486 1118 629 q 1049 228 1118 343 q 858 49 979 114 q 586 -17 738 -17 m 586 175 q 742 215 672 175 q 851 325 811 254 q 890 486 890 396 q 851 647 890 576 q 742 758 811 718 q 586 797 672 797 q 431 758 500 797 q 322 647 361 718 q 282 486 282 576 q 322 325 282 396 q 431 215 361 254 q 586 175 500 175 m 707 1051 l 586 1157 l 465 1051 l 307 1051 l 490 1251 l 682 1251 l 865 1051 l 707 1051 z "},"Ố":{"ha":1172,"x_min":54,"x_max":1128,"o":"m 586 -17 q 313 49 435 -17 q 123 228 192 114 q 54 486 54 343 q 123 744 54 629 q 313 924 192 858 q 586 989 435 989 q 858 924 738 989 q 1049 744 979 858 q 1118 486 1118 629 q 1049 228 1118 343 q 858 49 979 114 q 586 -17 738 -17 m 586 175 q 742 215 672 175 q 851 325 811 254 q 890 486 890 396 q 851 647 890 576 q 742 758 811 718 q 586 797 672 797 q 431 758 500 797 q 322 647 361 718 q 282 486 282 576 q 322 325 282 396 q 431 215 361 254 q 586 175 500 175 m 706 1051 l 586 1131 l 467 1051 l 307 1051 l 492 1210 l 681 1210 l 865 1051 l 706 1051 m 907 1353 l 1128 1353 l 910 1185 l 753 1185 l 907 1353 z "},"Ộ":{"ha":1172,"x_min":54,"x_max":1118,"o":"m 586 -17 q 313 49 435 -17 q 123 228 192 114 q 54 486 54 343 q 123 744 54 629 q 313 924 192 858 q 586 989 435 989 q 858 924 738 989 q 1049 744 979 858 q 1118 486 1118 629 q 1049 228 1118 343 q 858 49 979 114 q 586 -17 738 -17 m 586 175 q 742 215 672 175 q 851 325 811 254 q 890 486 890 396 q 851 647 890 576 q 742 758 811 718 q 586 797 672 797 q 431 758 500 797 q 322 647 361 718 q 282 486 282 576 q 322 325 282 396 q 431 215 361 254 q 586 175 500 175 m 586 -292 q 517 -266 544 -292 q 490 -199 490 -240 q 517 -129 490 -157 q 586 -101 544 -101 q 654 -129 626 -101 q 682 -199 682 -157 q 655 -266 682 -240 q 586 -292 628 -292 m 707 1051 l 586 1157 l 465 1051 l 307 1051 l 490 1251 l 682 1251 l 865 1051 l 707 1051 z "},"Ồ":{"ha":1172,"x_min":54,"x_max":1118,"o":"m 586 -17 q 313 49 435 -17 q 123 228 192 114 q 54 486 54 343 q 123 744 54 629 q 313 924 192 858 q 586 989 435 989 q 858 924 738 989 q 1049 744 979 858 q 1118 486 1118 629 q 1049 228 1118 343 q 858 49 979 114 q 586 -17 738 -17 m 586 175 q 742 215 672 175 q 851 325 811 254 q 890 486 890 396 q 851 647 890 576 q 742 758 811 718 q 586 797 672 797 q 431 758 500 797 q 322 647 361 718 q 282 486 282 576 q 322 325 282 396 q 431 215 361 254 q 586 175 500 175 m 706 1051 l 586 1131 l 467 1051 l 307 1051 l 492 1210 l 681 1210 l 865 1051 l 706 1051 m 618 1353 l 839 1353 l 992 1185 l 836 1185 l 618 1353 z "},"Ổ":{"ha":1172,"x_min":54,"x_max":1118,"o":"m 586 -17 q 313 49 435 -17 q 123 228 192 114 q 54 486 54 343 q 123 744 54 629 q 313 924 192 858 q 586 989 435 989 q 858 924 738 989 q 1049 744 979 858 q 1118 486 1118 629 q 1049 228 1118 343 q 858 49 979 114 q 586 -17 738 -17 m 586 175 q 742 215 672 175 q 851 325 811 254 q 890 486 890 396 q 851 647 890 576 q 742 758 811 718 q 586 797 672 797 q 431 758 500 797 q 322 647 361 718 q 282 486 282 576 q 322 325 282 396 q 431 215 361 254 q 586 175 500 175 m 706 1051 l 586 1131 l 467 1051 l 307 1051 l 492 1210 l 681 1210 l 865 1051 l 706 1051 m 781 1210 q 832 1268 832 1235 q 819 1297 832 1286 q 785 1308 806 1308 q 724 1292 756 1308 l 688 1358 q 803 1389 735 1389 q 896 1359 861 1389 q 931 1279 931 1329 q 903 1207 931 1239 q 833 1158 876 1175 l 781 1210 z "},"Ỗ":{"ha":1172,"x_min":54,"x_max":1118,"o":"m 586 -17 q 313 49 435 -17 q 123 228 192 114 q 54 486 54 343 q 123 744 54 629 q 313 924 192 858 q 586 989 435 989 q 858 924 738 989 q 1049 744 979 858 q 1118 486 1118 629 q 1049 228 1118 343 q 858 49 979 114 q 586 -17 738 -17 m 586 175 q 742 215 672 175 q 851 325 811 254 q 890 486 890 396 q 851 647 890 576 q 742 758 811 718 q 586 797 672 797 q 431 758 500 797 q 322 647 361 718 q 282 486 282 576 q 322 325 282 396 q 431 215 361 254 q 586 175 500 175 m 706 1051 l 586 1131 l 467 1051 l 307 1051 l 492 1210 l 681 1210 l 865 1051 l 706 1051 m 689 1258 q 622 1270 651 1258 q 558 1304 593 1282 q 526 1322 542 1314 q 497 1331 510 1331 q 454 1314 469 1331 q 436 1267 439 1297 l 325 1267 q 369 1395 326 1350 q 486 1440 411 1440 q 548 1429 522 1440 q 613 1396 574 1418 q 649 1375 635 1382 q 678 1368 664 1368 q 721 1385 706 1368 q 739 1431 736 1403 l 847 1431 q 804 1304 846 1350 q 689 1258 763 1258 z "},"Ȍ":{"ha":1172,"x_min":54,"x_max":1118,"o":"m 586 -17 q 313 49 435 -17 q 123 228 192 114 q 54 486 54 343 q 123 744 54 629 q 313 924 192 858 q 586 989 435 989 q 858 924 738 989 q 1049 744 979 858 q 1118 486 1118 629 q 1049 228 1118 343 q 858 49 979 114 q 586 -17 738 -17 m 586 175 q 742 215 672 175 q 851 325 811 254 q 890 486 890 396 q 851 647 890 576 q 742 758 811 718 q 586 797 672 797 q 431 758 500 797 q 322 647 361 718 q 282 486 282 576 q 322 325 282 396 q 431 215 361 254 q 586 175 500 175 m 222 1251 l 425 1251 l 525 1051 l 367 1051 l 222 1251 m 503 1251 l 706 1251 l 806 1051 l 647 1051 l 503 1251 z "},"Ö":{"ha":1172,"x_min":54,"x_max":1118,"o":"m 586 -17 q 313 49 435 -17 q 123 228 192 114 q 54 486 54 343 q 123 744 54 629 q 313 924 192 858 q 586 989 435 989 q 858 924 738 989 q 1049 744 979 858 q 1118 486 1118 629 q 1049 228 1118 343 q 858 49 979 114 q 586 -17 738 -17 m 586 175 q 742 215 672 175 q 851 325 811 254 q 890 486 890 396 q 851 647 890 576 q 742 758 811 718 q 586 797 672 797 q 431 758 500 797 q 322 647 361 718 q 282 486 282 576 q 322 325 282 396 q 431 215 361 254 q 586 175 500 175 m 446 1058 q 376 1085 404 1058 q 349 1154 349 1113 q 376 1223 349 1196 q 446 1250 404 1250 q 515 1223 488 1250 q 542 1154 542 1196 q 515 1085 542 1113 q 446 1058 488 1058 m 726 1058 q 658 1085 685 1058 q 631 1154 631 1113 q 658 1223 631 1196 q 726 1250 685 1250 q 796 1223 768 1250 q 824 1154 824 1196 q 796 1085 824 1113 q 726 1058 768 1058 z "},"Ȫ":{"ha":1172,"x_min":54,"x_max":1118,"o":"m 586 -17 q 313 49 435 -17 q 123 228 192 114 q 54 486 54 343 q 123 744 54 629 q 313 924 192 858 q 586 989 435 989 q 858 924 738 989 q 1049 744 979 858 q 1118 486 1118 629 q 1049 228 1118 343 q 858 49 979 114 q 586 -17 738 -17 m 586 175 q 742 215 672 175 q 851 325 811 254 q 890 486 890 396 q 851 647 890 576 q 742 758 811 718 q 586 797 672 797 q 431 758 500 797 q 322 647 361 718 q 282 486 282 576 q 322 325 282 396 q 431 215 361 254 q 586 175 500 175 m 450 1058 q 385 1084 411 1058 q 358 1150 358 1110 q 385 1215 358 1189 q 450 1242 411 1242 q 517 1215 490 1242 q 543 1150 543 1189 q 517 1084 543 1110 q 450 1058 490 1058 m 722 1058 q 657 1084 683 1058 q 631 1150 631 1110 q 658 1215 631 1189 q 722 1242 685 1242 q 788 1215 761 1242 q 814 1150 814 1189 q 788 1084 814 1110 q 722 1058 761 1058 m 329 1413 l 843 1413 l 843 1297 l 329 1297 l 329 1413 z "},"Ȱ":{"ha":1172,"x_min":54,"x_max":1118,"o":"m 586 -17 q 313 49 435 -17 q 123 228 192 114 q 54 486 54 343 q 123 744 54 629 q 313 924 192 858 q 586 989 435 989 q 858 924 738 989 q 1049 744 979 858 q 1118 486 1118 629 q 1049 228 1118 343 q 858 49 979 114 q 586 -17 738 -17 m 586 175 q 742 215 672 175 q 851 325 811 254 q 890 486 890 396 q 851 647 890 576 q 742 758 811 718 q 586 797 672 797 q 431 758 500 797 q 322 647 361 718 q 282 486 282 576 q 322 325 282 396 q 431 215 361 254 q 586 175 500 175 m 586 1057 q 517 1083 544 1057 q 490 1151 490 1110 q 517 1220 490 1193 q 586 1247 544 1247 q 655 1220 628 1247 q 682 1151 682 1193 q 655 1083 682 1110 q 586 1057 628 1057 m 329 1422 l 843 1422 l 843 1307 l 329 1307 l 329 1422 z "},"Ọ":{"ha":1172,"x_min":54,"x_max":1118,"o":"m 586 -17 q 313 49 435 -17 q 123 228 192 114 q 54 486 54 343 q 123 744 54 629 q 313 924 192 858 q 586 989 435 989 q 858 924 738 989 q 1049 744 979 858 q 1118 486 1118 629 q 1049 228 1118 343 q 858 49 979 114 q 586 -17 738 -17 m 586 175 q 742 215 672 175 q 851 325 811 254 q 890 486 890 396 q 851 647 890 576 q 742 758 811 718 q 586 797 672 797 q 431 758 500 797 q 322 647 361 718 q 282 486 282 576 q 322 325 282 396 q 431 215 361 254 q 586 175 500 175 m 586 -292 q 517 -266 544 -292 q 490 -199 490 -240 q 517 -129 490 -157 q 586 -101 544 -101 q 654 -129 626 -101 q 682 -199 682 -157 q 655 -266 682 -240 q 586 -292 628 -292 z "},"Ò":{"ha":1172,"x_min":54,"x_max":1118,"o":"m 586 -17 q 313 49 435 -17 q 123 228 192 114 q 54 486 54 343 q 123 744 54 629 q 313 924 192 858 q 586 989 435 989 q 858 924 738 989 q 1049 744 979 858 q 1118 486 1118 629 q 1049 228 1118 343 q 858 49 979 114 q 586 -17 738 -17 m 586 175 q 742 215 672 175 q 851 325 811 254 q 890 486 890 396 q 851 647 890 576 q 742 758 811 718 q 586 797 672 797 q 431 758 500 797 q 322 647 361 718 q 282 486 282 576 q 322 325 282 396 q 431 215 361 254 q 586 175 500 175 m 292 1251 l 525 1251 l 713 1051 l 543 1051 l 292 1251 z "},"Ỏ":{"ha":1172,"x_min":54,"x_max":1118,"o":"m 586 -17 q 313 49 435 -17 q 123 228 192 114 q 54 486 54 343 q 123 744 54 629 q 313 924 192 858 q 586 989 435 989 q 858 924 738 989 q 1049 744 979 858 q 1118 486 1118 629 q 1049 228 1118 343 q 858 49 979 114 q 586 -17 738 -17 m 586 175 q 742 215 672 175 q 851 325 811 254 q 890 486 890 396 q 851 647 890 576 q 742 758 811 718 q 586 797 672 797 q 431 758 500 797 q 322 647 361 718 q 282 486 282 576 q 322 325 282 396 q 431 215 361 254 q 586 175 500 175 m 560 1110 q 615 1149 599 1128 q 631 1194 631 1169 q 613 1237 631 1221 q 565 1253 594 1253 q 483 1226 524 1253 l 439 1314 q 589 1361 499 1361 q 709 1320 663 1361 q 756 1213 756 1279 q 628 1038 756 1096 l 560 1110 z "},"Ơ":{"ha":1172,"x_min":54,"x_max":1118,"o":"m 954 853 q 1074 692 1031 788 q 1118 486 1118 597 q 1049 228 1118 343 q 858 49 979 114 q 586 -17 738 -17 q 313 49 435 -17 q 123 228 192 114 q 54 486 54 343 q 124 744 54 629 q 317 924 193 858 q 596 989 440 989 q 749 978 657 989 q 850 969 821 969 q 934 993 904 969 q 964 1061 964 1017 q 936 1144 964 1104 l 1064 1192 q 1108 1053 1108 1129 q 1068 925 1108 976 q 954 853 1028 874 m 586 175 q 742 215 672 175 q 851 325 811 254 q 890 486 890 396 q 851 647 890 576 q 742 758 811 718 q 586 797 672 797 q 431 758 500 797 q 322 647 361 718 q 282 486 282 576 q 322 325 282 396 q 431 215 361 254 q 586 175 500 175 z "},"Ớ":{"ha":1172,"x_min":54,"x_max":1118,"o":"m 954 853 q 1074 692 1031 788 q 1118 486 1118 597 q 1049 228 1118 343 q 858 49 979 114 q 586 -17 738 -17 q 313 49 435 -17 q 123 228 192 114 q 54 486 54 343 q 124 744 54 629 q 317 924 193 858 q 596 989 440 989 q 749 978 657 989 q 850 969 821 969 q 934 993 904 969 q 964 1061 964 1017 q 936 1144 964 1104 l 1064 1192 q 1108 1053 1108 1129 q 1068 925 1108 976 q 954 853 1028 874 m 586 175 q 742 215 672 175 q 851 325 811 254 q 890 486 890 396 q 851 647 890 576 q 742 758 811 718 q 586 797 672 797 q 431 758 500 797 q 322 647 361 718 q 282 486 282 576 q 322 325 282 396 q 431 215 361 254 q 586 175 500 175 m 647 1251 l 881 1251 l 629 1051 l 460 1051 l 647 1251 z "},"Ợ":{"ha":1172,"x_min":54,"x_max":1118,"o":"m 954 853 q 1074 692 1031 788 q 1118 486 1118 597 q 1049 228 1118 343 q 858 49 979 114 q 586 -17 738 -17 q 313 49 435 -17 q 123 228 192 114 q 54 486 54 343 q 124 744 54 629 q 317 924 193 858 q 596 989 440 989 q 749 978 657 989 q 850 969 821 969 q 934 993 904 969 q 964 1061 964 1017 q 936 1144 964 1104 l 1064 1192 q 1108 1053 1108 1129 q 1068 925 1108 976 q 954 853 1028 874 m 586 175 q 742 215 672 175 q 851 325 811 254 q 890 486 890 396 q 851 647 890 576 q 742 758 811 718 q 586 797 672 797 q 431 758 500 797 q 322 647 361 718 q 282 486 282 576 q 322 325 282 396 q 431 215 361 254 q 586 175 500 175 m 586 -292 q 517 -266 544 -292 q 490 -199 490 -240 q 517 -129 490 -157 q 586 -101 544 -101 q 654 -129 626 -101 q 682 -199 682 -157 q 655 -266 682 -240 q 586 -292 628 -292 z "},"Ờ":{"ha":1172,"x_min":54,"x_max":1118,"o":"m 954 853 q 1074 692 1031 788 q 1118 486 1118 597 q 1049 228 1118 343 q 858 49 979 114 q 586 -17 738 -17 q 313 49 435 -17 q 123 228 192 114 q 54 486 54 343 q 124 744 54 629 q 317 924 193 858 q 596 989 440 989 q 749 978 657 989 q 850 969 821 969 q 934 993 904 969 q 964 1061 964 1017 q 936 1144 964 1104 l 1064 1192 q 1108 1053 1108 1129 q 1068 925 1108 976 q 954 853 1028 874 m 586 175 q 742 215 672 175 q 851 325 811 254 q 890 486 890 396 q 851 647 890 576 q 742 758 811 718 q 586 797 672 797 q 431 758 500 797 q 322 647 361 718 q 282 486 282 576 q 322 325 282 396 q 431 215 361 254 q 586 175 500 175 m 292 1251 l 525 1251 l 713 1051 l 543 1051 l 292 1251 z "},"Ở":{"ha":1172,"x_min":54,"x_max":1118,"o":"m 954 853 q 1074 692 1031 788 q 1118 486 1118 597 q 1049 228 1118 343 q 858 49 979 114 q 586 -17 738 -17 q 313 49 435 -17 q 123 228 192 114 q 54 486 54 343 q 124 744 54 629 q 317 924 193 858 q 596 989 440 989 q 749 978 657 989 q 850 969 821 969 q 934 993 904 969 q 964 1061 964 1017 q 936 1144 964 1104 l 1064 1192 q 1108 1053 1108 1129 q 1068 925 1108 976 q 954 853 1028 874 m 586 175 q 742 215 672 175 q 851 325 811 254 q 890 486 890 396 q 851 647 890 576 q 742 758 811 718 q 586 797 672 797 q 431 758 500 797 q 322 647 361 718 q 282 486 282 576 q 322 325 282 396 q 431 215 361 254 q 586 175 500 175 m 560 1110 q 615 1149 599 1128 q 631 1194 631 1169 q 613 1237 631 1221 q 565 1253 594 1253 q 483 1226 524 1253 l 439 1314 q 589 1361 499 1361 q 709 1320 663 1361 q 756 1213 756 1279 q 628 1038 756 1096 l 560 1110 z "},"Ỡ":{"ha":1172,"x_min":54,"x_max":1118,"o":"m 954 853 q 1074 692 1031 788 q 1118 486 1118 597 q 1049 228 1118 343 q 858 49 979 114 q 586 -17 738 -17 q 313 49 435 -17 q 123 228 192 114 q 54 486 54 343 q 124 744 54 629 q 317 924 193 858 q 596 989 440 989 q 749 978 657 989 q 850 969 821 969 q 934 993 904 969 q 964 1061 964 1017 q 936 1144 964 1104 l 1064 1192 q 1108 1053 1108 1129 q 1068 925 1108 976 q 954 853 1028 874 m 586 175 q 742 215 672 175 q 851 325 811 254 q 890 486 890 396 q 851 647 890 576 q 742 758 811 718 q 586 797 672 797 q 431 758 500 797 q 322 647 361 718 q 282 486 282 576 q 322 325 282 396 q 431 215 361 254 q 586 175 500 175 m 690 1047 q 624 1062 653 1047 q 561 1101 596 1076 q 524 1126 539 1118 q 496 1135 510 1135 q 449 1115 467 1135 q 429 1057 431 1094 l 319 1057 q 366 1205 322 1150 q 482 1260 410 1260 q 547 1245 518 1260 q 611 1204 575 1231 q 648 1179 633 1188 q 676 1171 663 1171 q 723 1191 704 1171 q 743 1246 742 1211 l 853 1246 q 806 1101 850 1156 q 690 1047 763 1047 z "},"Ő":{"ha":1172,"x_min":54,"x_max":1118,"o":"m 586 -17 q 313 49 435 -17 q 123 228 192 114 q 54 486 54 343 q 123 744 54 629 q 313 924 192 858 q 586 989 435 989 q 858 924 738 989 q 1049 744 979 858 q 1118 486 1118 629 q 1049 228 1118 343 q 858 49 979 114 q 586 -17 738 -17 m 586 175 q 742 215 672 175 q 851 325 811 254 q 890 486 890 396 q 851 647 890 576 q 742 758 811 718 q 586 797 672 797 q 431 758 500 797 q 322 647 361 718 q 282 486 282 576 q 322 325 282 396 q 431 215 361 254 q 586 175 500 175 m 467 1251 l 669 1251 l 525 1051 l 367 1051 l 467 1251 m 747 1251 l 950 1251 l 806 1051 l 647 1051 l 747 1251 z "},"Ȏ":{"ha":1172,"x_min":54,"x_max":1118,"o":"m 586 -17 q 313 49 435 -17 q 123 228 192 114 q 54 486 54 343 q 123 744 54 629 q 313 924 192 858 q 586 989 435 989 q 858 924 738 989 q 1049 744 979 858 q 1118 486 1118 629 q 1049 228 1118 343 q 858 49 979 114 q 586 -17 738 -17 m 586 175 q 742 215 672 175 q 851 325 811 254 q 890 486 890 396 q 851 647 890 576 q 742 758 811 718 q 586 797 672 797 q 431 758 500 797 q 322 647 361 718 q 282 486 282 576 q 322 325 282 396 q 431 215 361 254 q 586 175 500 175 m 331 1051 q 406 1206 335 1149 q 586 1263 476 1263 q 767 1206 696 1263 q 842 1051 838 1149 l 706 1051 q 670 1123 704 1096 q 586 1150 636 1150 q 502 1123 536 1150 q 467 1051 468 1096 l 331 1051 z "},"Ō":{"ha":1172,"x_min":54,"x_max":1118,"o":"m 586 -17 q 313 49 435 -17 q 123 228 192 114 q 54 486 54 343 q 123 744 54 629 q 313 924 192 858 q 586 989 435 989 q 858 924 738 989 q 1049 744 979 858 q 1118 486 1118 629 q 1049 228 1118 343 q 858 49 979 114 q 586 -17 738 -17 m 586 175 q 742 215 672 175 q 851 325 811 254 q 890 486 890 396 q 851 647 890 576 q 742 758 811 718 q 586 797 672 797 q 431 758 500 797 q 322 647 361 718 q 282 486 282 576 q 322 325 282 396 q 431 215 361 254 q 586 175 500 175 m 329 1213 l 843 1213 l 843 1090 l 329 1090 l 329 1213 z "},"Ṓ":{"ha":1172,"x_min":54,"x_max":1118,"o":"m 586 -17 q 313 49 435 -17 q 123 228 192 114 q 54 486 54 343 q 123 744 54 629 q 313 924 192 858 q 586 989 435 989 q 858 924 738 989 q 1049 744 979 858 q 1118 486 1118 629 q 1049 228 1118 343 q 858 49 979 114 q 586 -17 738 -17 m 586 175 q 742 215 672 175 q 851 325 811 254 q 890 486 890 396 q 851 647 890 576 q 742 758 811 718 q 586 797 672 797 q 431 758 500 797 q 322 647 361 718 q 282 486 282 576 q 322 325 282 396 q 431 215 361 254 q 586 175 500 175 m 329 1189 l 843 1189 l 843 1074 l 329 1074 l 329 1189 m 621 1443 l 842 1443 l 624 1275 l 467 1275 l 621 1443 z "},"Ṑ":{"ha":1172,"x_min":54,"x_max":1118,"o":"m 586 -17 q 313 49 435 -17 q 123 228 192 114 q 54 486 54 343 q 123 744 54 629 q 313 924 192 858 q 586 989 435 989 q 858 924 738 989 q 1049 744 979 858 q 1118 486 1118 629 q 1049 228 1118 343 q 858 49 979 114 q 586 -17 738 -17 m 586 175 q 742 215 672 175 q 851 325 811 254 q 890 486 890 396 q 851 647 890 576 q 742 758 811 718 q 586 797 672 797 q 431 758 500 797 q 322 647 361 718 q 282 486 282 576 q 322 325 282 396 q 431 215 361 254 q 586 175 500 175 m 329 1189 l 843 1189 l 843 1074 l 329 1074 l 329 1189 m 332 1443 l 553 1443 l 706 1275 l 550 1275 l 332 1443 z "},"Ǫ":{"ha":1172,"x_min":54,"x_max":1118,"o":"m 753 8 q 608 -62 657 -21 q 560 -149 560 -103 q 581 -195 560 -178 q 640 -212 603 -212 q 724 -192 686 -212 l 756 -290 q 691 -313 729 -304 q 615 -322 653 -322 q 474 -280 525 -322 q 424 -167 424 -237 q 507 -11 424 -78 q 272 74 375 6 q 112 249 169 142 q 54 486 54 356 q 124 744 54 629 q 314 924 193 858 q 586 989 435 989 q 858 924 738 989 q 1049 744 979 858 q 1118 486 1118 629 q 1070 270 1118 368 q 940 106 1022 172 q 753 8 857 39 m 282 486 q 322 325 282 396 q 431 215 361 254 q 586 175 500 175 q 742 215 672 175 q 851 325 811 254 q 890 486 890 396 q 851 647 890 576 q 742 758 811 718 q 586 797 672 797 q 431 758 500 797 q 322 647 361 718 q 282 486 282 576 z "},"Ø":{"ha":1172,"x_min":54,"x_max":1118,"o":"m 586 -17 q 313 49 435 -17 q 123 228 192 114 q 54 486 54 343 q 123 744 54 629 q 313 924 192 858 q 586 989 435 989 q 858 924 738 989 q 1049 744 979 858 q 1118 486 1118 629 q 1049 228 1118 343 q 858 49 979 114 q 586 -17 738 -17 m 586 175 q 742 215 672 175 q 851 325 811 254 q 890 486 890 396 q 851 647 890 576 q 742 758 811 718 q 586 797 672 797 q 431 758 500 797 q 322 647 361 718 q 282 486 282 576 q 322 325 282 396 q 431 215 361 254 q 586 175 500 175 m 929 1069 l 1075 1069 l 244 -97 l 99 -97 l 929 1069 z "},"Ǿ":{"ha":1172,"x_min":54,"x_max":1118,"o":"m 586 -17 q 313 49 435 -17 q 123 228 192 114 q 54 486 54 343 q 123 744 54 629 q 313 924 192 858 q 586 989 435 989 q 858 924 738 989 q 1049 744 979 858 q 1118 486 1118 629 q 1049 228 1118 343 q 858 49 979 114 q 586 -17 738 -17 m 586 175 q 742 215 672 175 q 851 325 811 254 q 890 486 890 396 q 851 647 890 576 q 742 758 811 718 q 586 797 672 797 q 431 758 500 797 q 322 647 361 718 q 282 486 282 576 q 322 325 282 396 q 431 215 361 254 q 586 175 500 175 m 929 1069 l 1075 1069 l 244 -97 l 99 -97 l 929 1069 m 647 1251 l 881 1251 l 629 1051 l 460 1051 l 647 1251 z "},"Õ":{"ha":1172,"x_min":54,"x_max":1118,"o":"m 586 -17 q 313 49 435 -17 q 123 228 192 114 q 54 486 54 343 q 123 744 54 629 q 313 924 192 858 q 586 989 435 989 q 858 924 738 989 q 1049 744 979 858 q 1118 486 1118 629 q 1049 228 1118 343 q 858 49 979 114 q 586 -17 738 -17 m 586 175 q 742 215 672 175 q 851 325 811 254 q 890 486 890 396 q 851 647 890 576 q 742 758 811 718 q 586 797 672 797 q 431 758 500 797 q 322 647 361 718 q 282 486 282 576 q 322 325 282 396 q 431 215 361 254 q 586 175 500 175 m 690 1047 q 624 1062 653 1047 q 561 1101 596 1076 q 524 1126 539 1118 q 496 1135 510 1135 q 449 1115 467 1135 q 429 1057 431 1094 l 319 1057 q 366 1205 322 1150 q 482 1260 410 1260 q 547 1245 518 1260 q 611 1204 575 1231 q 648 1179 633 1188 q 676 1171 663 1171 q 723 1191 704 1171 q 743 1246 742 1211 l 853 1246 q 806 1101 850 1156 q 690 1047 763 1047 z "},"Ṍ":{"ha":1172,"x_min":54,"x_max":1118,"o":"m 586 -17 q 313 49 435 -17 q 123 228 192 114 q 54 486 54 343 q 123 744 54 629 q 313 924 192 858 q 586 989 435 989 q 858 924 738 989 q 1049 744 979 858 q 1118 486 1118 629 q 1049 228 1118 343 q 858 49 979 114 q 586 -17 738 -17 m 586 175 q 742 215 672 175 q 851 325 811 254 q 890 486 890 396 q 851 647 890 576 q 742 758 811 718 q 586 797 672 797 q 431 758 500 797 q 322 647 361 718 q 282 486 282 576 q 322 325 282 396 q 431 215 361 254 q 586 175 500 175 m 689 1049 q 622 1060 651 1049 q 558 1094 593 1072 q 526 1113 542 1104 q 497 1121 510 1121 q 454 1104 469 1121 q 436 1057 439 1088 l 325 1057 q 369 1185 326 1140 q 486 1231 411 1231 q 548 1219 522 1231 q 613 1186 574 1208 q 649 1165 635 1172 q 678 1158 664 1158 q 721 1176 706 1158 q 739 1221 736 1193 l 847 1221 q 804 1094 846 1140 q 689 1049 763 1049 m 621 1443 l 842 1443 l 624 1275 l 467 1275 l 621 1443 z "},"Ṏ":{"ha":1172,"x_min":54,"x_max":1118,"o":"m 586 -17 q 313 49 435 -17 q 123 228 192 114 q 54 486 54 343 q 123 744 54 629 q 313 924 192 858 q 586 989 435 989 q 858 924 738 989 q 1049 744 979 858 q 1118 486 1118 629 q 1049 228 1118 343 q 858 49 979 114 q 586 -17 738 -17 m 586 175 q 742 215 672 175 q 851 325 811 254 q 890 486 890 396 q 851 647 890 576 q 742 758 811 718 q 586 797 672 797 q 431 758 500 797 q 322 647 361 718 q 282 486 282 576 q 322 325 282 396 q 431 215 361 254 q 586 175 500 175 m 689 1049 q 622 1060 651 1049 q 558 1094 593 1072 q 526 1113 542 1104 q 497 1121 510 1121 q 454 1104 469 1121 q 436 1057 439 1088 l 325 1057 q 369 1185 326 1140 q 486 1231 411 1231 q 548 1219 522 1231 q 613 1186 574 1208 q 649 1165 635 1172 q 678 1158 664 1158 q 721 1176 706 1158 q 739 1221 736 1193 l 847 1221 q 804 1094 846 1140 q 689 1049 763 1049 m 450 1282 q 385 1308 411 1282 q 358 1374 358 1333 q 385 1439 358 1413 q 450 1465 411 1465 q 517 1439 490 1465 q 543 1374 543 1413 q 517 1308 543 1333 q 450 1282 490 1282 m 722 1282 q 657 1308 683 1282 q 631 1374 631 1333 q 658 1439 631 1413 q 722 1465 685 1465 q 788 1439 761 1465 q 814 1374 814 1413 q 788 1308 814 1333 q 722 1282 761 1282 z "},"Ȭ":{"ha":1172,"x_min":54,"x_max":1118,"o":"m 586 -17 q 313 49 435 -17 q 123 228 192 114 q 54 486 54 343 q 123 744 54 629 q 313 924 192 858 q 586 989 435 989 q 858 924 738 989 q 1049 744 979 858 q 1118 486 1118 629 q 1049 228 1118 343 q 858 49 979 114 q 586 -17 738 -17 m 586 175 q 742 215 672 175 q 851 325 811 254 q 890 486 890 396 q 851 647 890 576 q 742 758 811 718 q 586 797 672 797 q 431 758 500 797 q 322 647 361 718 q 282 486 282 576 q 322 325 282 396 q 431 215 361 254 q 586 175 500 175 m 689 1049 q 622 1060 651 1049 q 558 1094 593 1072 q 526 1113 542 1104 q 497 1121 510 1121 q 454 1104 469 1121 q 436 1057 439 1088 l 325 1057 q 369 1185 326 1140 q 486 1231 411 1231 q 548 1219 522 1231 q 613 1186 574 1208 q 649 1165 635 1172 q 678 1158 664 1158 q 721 1176 706 1158 q 739 1221 736 1193 l 847 1221 q 804 1094 846 1140 q 689 1049 763 1049 m 329 1413 l 843 1413 l 843 1297 l 329 1297 l 329 1413 z "},"Œ":{"ha":1578,"x_min":54,"x_max":1514,"o":"m 1514 181 l 1514 0 l 590 0 q 310 60 432 0 q 122 231 189 121 q 54 485 54 340 q 122 741 54 631 q 310 912 189 851 q 590 972 432 972 l 1496 972 l 1496 792 l 985 792 l 985 581 l 1436 581 l 1436 406 l 985 406 l 985 181 l 1514 181 m 761 185 l 761 788 l 601 788 q 369 706 456 788 q 282 485 282 625 q 369 266 282 347 q 601 185 456 185 l 761 185 z "},"P":{"ha":1017,"x_min":115,"x_max":958,"o":"m 536 972 q 760 929 665 972 q 907 807 856 886 q 958 619 958 728 q 907 433 958 513 q 760 310 856 353 q 536 268 665 268 l 340 268 l 340 0 l 115 0 l 115 972 l 536 972 m 524 451 q 678 495 625 451 q 731 619 731 539 q 678 745 731 701 q 524 789 625 789 l 340 789 l 340 451 l 524 451 z "},"Þ":{"ha":1017,"x_min":115,"x_max":958,"o":"m 536 865 q 760 822 665 865 q 907 700 856 779 q 958 513 958 621 q 907 325 958 404 q 760 203 856 246 q 536 160 665 160 l 340 160 l 340 0 l 115 0 l 115 972 l 340 972 l 340 865 l 536 865 m 524 343 q 678 387 625 343 q 731 513 731 431 q 678 638 731 594 q 524 682 625 682 l 340 682 l 340 343 l 524 343 z "},"Q":{"ha":1172,"x_min":54,"x_max":1118,"o":"m 1118 486 q 1065 258 1118 361 q 917 85 1013 154 q 699 -7 822 15 l 699 -187 l 472 -187 l 472 -7 q 255 85 350 15 q 107 258 160 154 q 54 486 54 363 q 123 744 54 629 q 313 924 192 858 q 586 989 435 989 q 858 924 738 989 q 1049 744 979 858 q 1118 486 1118 629 m 689 190 q 836 298 782 219 q 890 486 890 376 q 851 647 890 576 q 742 758 811 718 q 586 797 672 797 q 431 758 500 797 q 322 647 361 718 q 282 486 282 576 q 335 299 282 376 q 481 190 389 221 l 481 390 l 689 390 l 689 190 z "},"R":{"ha":1021,"x_min":115,"x_max":976,"o":"m 735 0 l 547 271 l 536 271 l 340 271 l 340 0 l 115 0 l 115 972 l 536 972 q 760 929 665 972 q 907 807 856 886 q 958 619 958 728 q 906 433 958 511 q 758 313 854 354 l 976 0 l 735 0 m 731 619 q 678 745 731 701 q 524 789 625 789 l 340 789 l 340 450 l 524 450 q 678 494 625 450 q 731 619 731 539 z "},"Ŕ":{"ha":1021,"x_min":115,"x_max":976,"o":"m 735 0 l 547 271 l 536 271 l 340 271 l 340 0 l 115 0 l 115 972 l 536 972 q 760 929 665 972 q 907 807 856 886 q 958 619 958 728 q 906 433 958 511 q 758 313 854 354 l 976 0 l 735 0 m 731 619 q 678 745 731 701 q 524 789 625 789 l 340 789 l 340 450 l 524 450 q 678 494 625 450 q 731 619 731 539 m 582 1251 l 815 1251 l 564 1051 l 394 1051 l 582 1251 z "},"Ř":{"ha":1021,"x_min":115,"x_max":976,"o":"m 735 0 l 547 271 l 536 271 l 340 271 l 340 0 l 115 0 l 115 972 l 536 972 q 760 929 665 972 q 907 807 856 886 q 958 619 958 728 q 906 433 958 511 q 758 313 854 354 l 976 0 l 735 0 m 731 619 q 678 745 731 701 q 524 789 625 789 l 340 789 l 340 450 l 524 450 q 678 494 625 450 q 731 619 731 539 m 800 1251 l 617 1051 l 425 1051 l 242 1251 l 400 1251 l 521 1147 l 642 1251 l 800 1251 z "},"Ŗ":{"ha":1021,"x_min":115,"x_max":976,"o":"m 735 0 l 547 271 l 536 271 l 340 271 l 340 0 l 115 0 l 115 972 l 536 972 q 760 929 665 972 q 907 807 856 886 q 958 619 958 728 q 906 433 958 511 q 758 313 854 354 l 976 0 l 735 0 m 731 619 q 678 745 731 701 q 524 789 625 789 l 340 789 l 340 450 l 524 450 q 678 494 625 450 q 731 619 731 539 m 521 -101 q 591 -124 565 -101 q 617 -185 617 -147 q 592 -275 617 -228 l 543 -369 l 442 -369 l 476 -258 q 438 -231 451 -250 q 425 -185 425 -212 q 451 -124 425 -147 q 521 -101 476 -101 z "},"Ȑ":{"ha":1021,"x_min":115,"x_max":976,"o":"m 735 0 l 547 271 l 536 271 l 340 271 l 340 0 l 115 0 l 115 972 l 536 972 q 760 929 665 972 q 907 807 856 886 q 958 619 958 728 q 906 433 958 511 q 758 313 854 354 l 976 0 l 735 0 m 731 619 q 678 745 731 701 q 524 789 625 789 l 340 789 l 340 450 l 524 450 q 678 494 625 450 q 731 619 731 539 m 157 1251 l 360 1251 l 460 1051 l 301 1051 l 157 1251 m 438 1251 l 640 1251 l 740 1051 l 582 1051 l 438 1251 z "},"Ṛ":{"ha":1021,"x_min":115,"x_max":976,"o":"m 735 0 l 547 271 l 536 271 l 340 271 l 340 0 l 115 0 l 115 972 l 536 972 q 760 929 665 972 q 907 807 856 886 q 958 619 958 728 q 906 433 958 511 q 758 313 854 354 l 976 0 l 735 0 m 731 619 q 678 745 731 701 q 524 789 625 789 l 340 789 l 340 450 l 524 450 q 678 494 625 450 q 731 619 731 539 m 521 -292 q 452 -266 479 -292 q 425 -199 425 -240 q 452 -129 425 -157 q 521 -101 479 -101 q 589 -129 561 -101 q 617 -199 617 -157 q 590 -266 617 -240 q 521 -292 563 -292 z "},"Ȓ":{"ha":1021,"x_min":115,"x_max":976,"o":"m 735 0 l 547 271 l 536 271 l 340 271 l 340 0 l 115 0 l 115 972 l 536 972 q 760 929 665 972 q 907 807 856 886 q 958 619 958 728 q 906 433 958 511 q 758 313 854 354 l 976 0 l 735 0 m 731 619 q 678 745 731 701 q 524 789 625 789 l 340 789 l 340 450 l 524 450 q 678 494 625 450 q 731 619 731 539 m 265 1051 q 340 1206 269 1149 q 521 1263 411 1263 q 701 1206 631 1263 q 776 1051 772 1149 l 640 1051 q 605 1123 639 1096 q 521 1150 571 1150 q 437 1123 471 1150 q 401 1051 403 1096 l 265 1051 z "},"Ṟ":{"ha":1021,"x_min":115,"x_max":976,"o":"m 735 0 l 547 271 l 536 271 l 340 271 l 340 0 l 115 0 l 115 972 l 536 972 q 760 929 665 972 q 907 807 856 886 q 958 619 958 728 q 906 433 958 511 q 758 313 854 354 l 976 0 l 735 0 m 731 619 q 678 745 731 701 q 524 789 625 789 l 340 789 l 340 450 l 524 450 q 678 494 625 450 q 731 619 731 539 m 264 -132 l 778 -132 l 778 -253 l 264 -253 l 264 -132 z "},"S":{"ha":886,"x_min":39,"x_max":847,"o":"m 435 -17 q 212 15 319 -17 q 39 96 104 46 l 115 265 q 264 192 178 219 q 436 164 350 164 q 578 192 532 164 q 624 268 624 221 q 597 326 624 303 q 527 363 569 349 q 413 393 485 376 q 231 446 301 419 q 109 531 160 472 q 58 686 58 589 q 104 840 58 771 q 242 949 150 908 q 468 989 335 989 q 650 967 561 989 q 806 903 739 944 l 736 732 q 467 808 601 808 q 327 778 372 808 q 282 697 282 747 q 334 623 282 647 q 493 575 386 599 q 675 522 604 549 q 797 439 746 496 q 847 285 847 382 q 801 133 847 201 q 661 24 754 64 q 435 -17 568 -17 z "},"Ś":{"ha":886,"x_min":39,"x_max":847,"o":"m 435 -17 q 212 15 319 -17 q 39 96 104 46 l 115 265 q 264 192 178 219 q 436 164 350 164 q 578 192 532 164 q 624 268 624 221 q 597 326 624 303 q 527 363 569 349 q 413 393 485 376 q 231 446 301 419 q 109 531 160 472 q 58 686 58 589 q 104 840 58 771 q 242 949 150 908 q 468 989 335 989 q 650 967 561 989 q 806 903 739 944 l 736 732 q 467 808 601 808 q 327 778 372 808 q 282 697 282 747 q 334 623 282 647 q 493 575 386 599 q 675 522 604 549 q 797 439 746 496 q 847 285 847 382 q 801 133 847 201 q 661 24 754 64 q 435 -17 568 -17 m 513 1251 l 746 1251 l 494 1051 l 325 1051 l 513 1251 z "},"Ṥ":{"ha":886,"x_min":39,"x_max":847,"o":"m 435 -17 q 212 15 319 -17 q 39 96 104 46 l 115 265 q 264 192 178 219 q 436 164 350 164 q 578 192 532 164 q 624 268 624 221 q 597 326 624 303 q 527 363 569 349 q 413 393 485 376 q 231 446 301 419 q 109 531 160 472 q 58 686 58 589 q 104 840 58 771 q 242 949 150 908 q 468 989 335 989 q 650 967 561 989 q 806 903 739 944 l 736 732 q 467 808 601 808 q 327 778 372 808 q 282 697 282 747 q 334 623 282 647 q 493 575 386 599 q 675 522 604 549 q 797 439 746 496 q 847 285 847 382 q 801 133 847 201 q 661 24 754 64 q 435 -17 568 -17 m 486 1219 l 707 1219 l 489 1051 l 332 1051 l 486 1219 m 451 1281 q 383 1307 410 1281 q 356 1375 356 1333 q 383 1444 356 1417 q 451 1471 410 1471 q 520 1444 493 1471 q 547 1375 547 1417 q 520 1307 547 1333 q 451 1281 493 1281 z "},"Ꞌ":{"ha":413,"x_min":94,"x_max":317,"o":"m 94 972 l 317 972 l 289 413 l 94 413 l 94 972 z "},"Š":{"ha":886,"x_min":39,"x_max":847,"o":"m 435 -17 q 212 15 319 -17 q 39 96 104 46 l 115 265 q 264 192 178 219 q 436 164 350 164 q 578 192 532 164 q 624 268 624 221 q 597 326 624 303 q 527 363 569 349 q 413 393 485 376 q 231 446 301 419 q 109 531 160 472 q 58 686 58 589 q 104 840 58 771 q 242 949 150 908 q 468 989 335 989 q 650 967 561 989 q 806 903 739 944 l 736 732 q 467 808 601 808 q 327 778 372 808 q 282 697 282 747 q 334 623 282 647 q 493 575 386 599 q 675 522 604 549 q 797 439 746 496 q 847 285 847 382 q 801 133 847 201 q 661 24 754 64 q 435 -17 568 -17 m 731 1251 l 547 1051 l 356 1051 l 172 1251 l 331 1251 l 451 1147 l 572 1251 l 731 1251 z "},"Ṧ":{"ha":886,"x_min":39,"x_max":847,"o":"m 435 -17 q 212 15 319 -17 q 39 96 104 46 l 115 265 q 264 192 178 219 q 436 164 350 164 q 578 192 532 164 q 624 268 624 221 q 597 326 624 303 q 527 363 569 349 q 413 393 485 376 q 231 446 301 419 q 109 531 160 472 q 58 686 58 589 q 104 840 58 771 q 242 949 150 908 q 468 989 335 989 q 650 967 561 989 q 806 903 739 944 l 736 732 q 467 808 601 808 q 327 778 372 808 q 282 697 282 747 q 334 623 282 647 q 493 575 386 599 q 675 522 604 549 q 797 439 746 496 q 847 285 847 382 q 801 133 847 201 q 661 24 754 64 q 435 -17 568 -17 m 731 1210 l 546 1051 l 357 1051 l 172 1210 l 332 1210 l 451 1131 l 571 1210 l 731 1210 m 451 1249 q 383 1275 410 1249 q 356 1343 356 1301 q 383 1412 356 1385 q 451 1439 410 1439 q 520 1412 493 1439 q 547 1343 547 1385 q 520 1275 547 1301 q 451 1249 493 1249 z "},"Ş":{"ha":886,"x_min":39,"x_max":847,"o":"m 435 -17 q 212 15 319 -17 q 39 96 104 46 l 115 265 q 264 192 178 219 q 436 164 350 164 q 578 192 532 164 q 624 268 624 221 q 597 326 624 303 q 527 363 569 349 q 413 393 485 376 q 231 446 301 419 q 109 531 160 472 q 58 686 58 589 q 104 840 58 771 q 242 949 150 908 q 468 989 335 989 q 650 967 561 989 q 806 903 739 944 l 736 732 q 467 808 601 808 q 327 778 372 808 q 282 697 282 747 q 334 623 282 647 q 493 575 386 599 q 675 522 604 549 q 797 439 746 496 q 847 285 847 382 q 801 133 847 201 q 661 24 754 64 q 435 -17 568 -17 m 406 -322 q 335 -315 369 -322 q 276 -293 300 -307 l 310 -200 q 400 -221 354 -221 q 472 -176 472 -221 q 404 -136 472 -136 l 357 -136 l 393 11 l 508 11 l 489 -69 q 580 -108 550 -76 q 610 -185 610 -139 q 554 -285 610 -249 q 406 -322 499 -322 z "},"Ŝ":{"ha":886,"x_min":39,"x_max":847,"o":"m 435 -17 q 212 15 319 -17 q 39 96 104 46 l 115 265 q 264 192 178 219 q 436 164 350 164 q 578 192 532 164 q 624 268 624 221 q 597 326 624 303 q 527 363 569 349 q 413 393 485 376 q 231 446 301 419 q 109 531 160 472 q 58 686 58 589 q 104 840 58 771 q 242 949 150 908 q 468 989 335 989 q 650 967 561 989 q 806 903 739 944 l 736 732 q 467 808 601 808 q 327 778 372 808 q 282 697 282 747 q 334 623 282 647 q 493 575 386 599 q 675 522 604 549 q 797 439 746 496 q 847 285 847 382 q 801 133 847 201 q 661 24 754 64 q 435 -17 568 -17 m 572 1051 l 451 1157 l 331 1051 l 172 1051 l 356 1251 l 547 1251 l 731 1051 l 572 1051 z "},"Ș":{"ha":886,"x_min":39,"x_max":847,"o":"m 435 -17 q 212 15 319 -17 q 39 96 104 46 l 115 265 q 264 192 178 219 q 436 164 350 164 q 578 192 532 164 q 624 268 624 221 q 597 326 624 303 q 527 363 569 349 q 413 393 485 376 q 231 446 301 419 q 109 531 160 472 q 58 686 58 589 q 104 840 58 771 q 242 949 150 908 q 468 989 335 989 q 650 967 561 989 q 806 903 739 944 l 736 732 q 467 808 601 808 q 327 778 372 808 q 282 697 282 747 q 334 623 282 647 q 493 575 386 599 q 675 522 604 549 q 797 439 746 496 q 847 285 847 382 q 801 133 847 201 q 661 24 754 64 q 435 -17 568 -17 m 451 -101 q 522 -124 496 -101 q 547 -185 547 -147 q 522 -275 547 -228 l 474 -369 l 372 -369 l 407 -258 q 369 -231 382 -250 q 356 -185 356 -212 q 381 -124 356 -147 q 451 -101 407 -101 z "},"Ṡ":{"ha":886,"x_min":39,"x_max":847,"o":"m 435 -17 q 212 15 319 -17 q 39 96 104 46 l 115 265 q 264 192 178 219 q 436 164 350 164 q 578 192 532 164 q 624 268 624 221 q 597 326 624 303 q 527 363 569 349 q 413 393 485 376 q 231 446 301 419 q 109 531 160 472 q 58 686 58 589 q 104 840 58 771 q 242 949 150 908 q 468 989 335 989 q 650 967 561 989 q 806 903 739 944 l 736 732 q 467 808 601 808 q 327 778 372 808 q 282 697 282 747 q 334 623 282 647 q 493 575 386 599 q 675 522 604 549 q 797 439 746 496 q 847 285 847 382 q 801 133 847 201 q 661 24 754 64 q 435 -17 568 -17 m 451 1058 q 367 1092 400 1058 q 335 1176 335 1125 q 367 1260 335 1226 q 451 1293 400 1293 q 535 1260 503 1293 q 568 1176 568 1226 q 535 1092 568 1125 q 451 1058 503 1058 z "},"Ṣ":{"ha":886,"x_min":39,"x_max":847,"o":"m 435 -17 q 212 15 319 -17 q 39 96 104 46 l 115 265 q 264 192 178 219 q 436 164 350 164 q 578 192 532 164 q 624 268 624 221 q 597 326 624 303 q 527 363 569 349 q 413 393 485 376 q 231 446 301 419 q 109 531 160 472 q 58 686 58 589 q 104 840 58 771 q 242 949 150 908 q 468 989 335 989 q 650 967 561 989 q 806 903 739 944 l 736 732 q 467 808 601 808 q 327 778 372 808 q 282 697 282 747 q 334 623 282 647 q 493 575 386 599 q 675 522 604 549 q 797 439 746 496 q 847 285 847 382 q 801 133 847 201 q 661 24 754 64 q 435 -17 568 -17 m 451 -292 q 383 -266 410 -292 q 356 -199 356 -240 q 383 -129 356 -157 q 451 -101 410 -101 q 519 -129 492 -101 q 547 -199 547 -157 q 520 -266 547 -240 q 451 -292 493 -292 z "},"Ṩ":{"ha":886,"x_min":39,"x_max":847,"o":"m 435 -17 q 212 15 319 -17 q 39 96 104 46 l 115 265 q 264 192 178 219 q 436 164 350 164 q 578 192 532 164 q 624 268 624 221 q 597 326 624 303 q 527 363 569 349 q 413 393 485 376 q 231 446 301 419 q 109 531 160 472 q 58 686 58 589 q 104 840 58 771 q 242 949 150 908 q 468 989 335 989 q 650 967 561 989 q 806 903 739 944 l 736 732 q 467 808 601 808 q 327 778 372 808 q 282 697 282 747 q 334 623 282 647 q 493 575 386 599 q 675 522 604 549 q 797 439 746 496 q 847 285 847 382 q 801 133 847 201 q 661 24 754 64 q 435 -17 568 -17 m 451 -292 q 383 -266 410 -292 q 356 -199 356 -240 q 383 -129 356 -157 q 451 -101 410 -101 q 519 -129 492 -101 q 547 -199 547 -157 q 520 -266 547 -240 q 451 -292 493 -292 m 451 1058 q 367 1092 400 1058 q 335 1176 335 1125 q 367 1260 335 1226 q 451 1293 400 1293 q 535 1260 503 1293 q 568 1176 568 1226 q 535 1092 568 1125 q 451 1058 503 1058 z "},"ẞ":{"ha":1082,"x_min":107,"x_max":1028,"o":"m 774 581 q 958 480 888 557 q 1028 286 1028 403 q 981 124 1028 192 q 852 19 933 56 q 669 -17 771 -17 q 460 17 546 -17 l 493 194 q 635 164 554 164 q 758 197 715 164 q 800 296 800 231 q 757 394 800 360 q 636 428 714 428 q 533 413 576 428 l 494 510 l 733 786 q 586 810 665 810 q 397 740 463 810 q 332 539 332 669 l 332 0 l 107 0 l 107 544 q 163 782 107 682 q 326 936 218 882 q 583 990 433 990 q 772 966 678 990 q 931 897 867 942 l 931 761 l 774 581 z "},"Ə":{"ha":1135,"x_min":76,"x_max":1081,"o":"m 553 989 q 825 924 704 989 q 1013 745 946 860 q 1081 488 1081 631 q 1014 228 1081 343 q 831 48 947 113 q 568 -17 714 -17 q 256 79 388 -17 q 76 340 125 175 l 819 639 q 711 754 782 711 q 551 797 640 797 q 397 767 474 797 q 269 683 321 738 l 135 829 q 317 945 206 901 q 553 989 428 989 m 568 163 q 776 243 700 163 q 853 460 853 324 l 853 485 l 340 276 q 430 192 372 221 q 568 163 488 163 z "},"T":{"ha":886,"x_min":-15,"x_max":900,"o":"m 824 700 q 556 793 699 772 l 556 0 l 331 0 l 331 793 q 61 700 188 772 l -15 868 q 201 958 85 928 q 442 989 318 989 q 684 958 567 989 q 900 868 801 928 l 824 700 z "},"Ŧ":{"ha":886,"x_min":-15,"x_max":900,"o":"m 824 700 q 556 793 699 772 l 556 0 l 331 0 l 331 793 q 61 700 188 772 l -15 868 q 201 958 85 928 q 442 989 318 989 q 684 958 567 989 q 900 868 801 928 l 824 700 m 142 514 l 742 514 l 742 364 l 142 364 l 142 514 z "},"Ť":{"ha":886,"x_min":-15,"x_max":900,"o":"m 824 700 q 556 793 699 772 l 556 0 l 331 0 l 331 793 q 61 700 188 772 l -15 868 q 201 958 85 928 q 442 989 318 989 q 684 958 567 989 q 900 868 801 928 l 824 700 m 726 1251 l 543 1051 l 351 1051 l 168 1251 l 326 1251 l 447 1147 l 568 1251 l 726 1251 z "},"Ţ":{"ha":886,"x_min":-15,"x_max":900,"o":"m 824 700 q 556 793 699 772 l 556 0 l 331 0 l 331 793 q 61 700 188 772 l -15 868 q 201 958 85 928 q 442 989 318 989 q 684 958 567 989 q 900 868 801 928 l 824 700 m 397 -322 q 326 -315 361 -322 q 268 -293 292 -307 l 301 -200 q 392 -221 346 -221 q 464 -176 464 -221 q 396 -136 464 -136 l 349 -136 l 385 11 l 500 11 l 481 -69 q 572 -108 542 -76 q 601 -185 601 -139 q 546 -285 601 -249 q 397 -322 490 -322 z "},"Ț":{"ha":886,"x_min":-15,"x_max":900,"o":"m 824 700 q 556 793 699 772 l 556 0 l 331 0 l 331 793 q 61 700 188 772 l -15 868 q 201 958 85 928 q 442 989 318 989 q 684 958 567 989 q 900 868 801 928 l 824 700 m 443 -101 q 513 -124 488 -101 q 539 -185 539 -147 q 514 -275 539 -228 l 465 -369 l 364 -369 l 399 -258 q 360 -231 374 -250 q 347 -185 347 -212 q 373 -124 347 -147 q 443 -101 399 -101 z "},"Ṭ":{"ha":886,"x_min":-15,"x_max":900,"o":"m 824 700 q 556 793 699 772 l 556 0 l 331 0 l 331 793 q 61 700 188 772 l -15 868 q 201 958 85 928 q 442 989 318 989 q 684 958 567 989 q 900 868 801 928 l 824 700 m 443 -292 q 374 -266 401 -292 q 347 -199 347 -240 q 374 -129 347 -157 q 443 -101 401 -101 q 511 -129 483 -101 q 539 -199 539 -157 q 512 -266 539 -240 q 443 -292 485 -292 z "},"Ṯ":{"ha":886,"x_min":-15,"x_max":900,"o":"m 824 700 q 556 793 699 772 l 556 0 l 331 0 l 331 793 q 61 700 188 772 l -15 868 q 201 958 85 928 q 442 989 318 989 q 684 958 567 989 q 900 868 801 928 l 824 700 m 186 -132 l 700 -132 l 700 -253 l 186 -253 l 186 -132 z "},"U":{"ha":1100,"x_min":107,"x_max":985,"o":"m 985 972 l 985 0 l 767 0 l 767 118 q 472 -17 667 -17 q 203 92 300 -17 q 107 403 107 201 l 107 972 l 332 972 l 332 410 q 387 234 332 293 q 536 175 442 175 q 699 238 638 175 q 760 425 760 301 l 760 972 l 985 972 z "},"Ú":{"ha":1100,"x_min":107,"x_max":985,"o":"m 985 972 l 985 0 l 767 0 l 767 118 q 472 -17 667 -17 q 203 92 300 -17 q 107 403 107 201 l 107 972 l 332 972 l 332 410 q 387 234 332 293 q 536 175 442 175 q 699 238 638 175 q 760 425 760 301 l 760 972 l 985 972 m 604 1251 l 838 1251 l 586 1051 l 417 1051 l 604 1251 z "},"Ŭ":{"ha":1100,"x_min":107,"x_max":985,"o":"m 985 972 l 985 0 l 767 0 l 767 118 q 472 -17 667 -17 q 203 92 300 -17 q 107 403 107 201 l 107 972 l 332 972 l 332 410 q 387 234 332 293 q 536 175 442 175 q 699 238 638 175 q 760 425 760 301 l 760 972 l 985 972 m 543 1040 q 363 1097 433 1040 q 288 1251 292 1154 l 424 1251 q 459 1180 425 1207 q 543 1153 493 1153 q 627 1180 593 1153 q 663 1251 661 1207 l 799 1251 q 724 1097 794 1154 q 543 1040 653 1040 z "},"Ǔ":{"ha":1100,"x_min":107,"x_max":985,"o":"m 985 972 l 985 0 l 767 0 l 767 118 q 472 -17 667 -17 q 203 92 300 -17 q 107 403 107 201 l 107 972 l 332 972 l 332 410 q 387 234 332 293 q 536 175 442 175 q 699 238 638 175 q 760 425 760 301 l 760 972 l 985 972 m 822 1251 l 639 1051 l 447 1051 l 264 1251 l 422 1251 l 543 1147 l 664 1251 l 822 1251 z "},"Û":{"ha":1100,"x_min":107,"x_max":985,"o":"m 985 972 l 985 0 l 767 0 l 767 118 q 472 -17 667 -17 q 203 92 300 -17 q 107 403 107 201 l 107 972 l 332 972 l 332 410 q 387 234 332 293 q 536 175 442 175 q 699 238 638 175 q 760 425 760 301 l 760 972 l 985 972 m 664 1051 l 543 1157 l 422 1051 l 264 1051 l 447 1251 l 639 1251 l 822 1051 l 664 1051 z "},"Ȕ":{"ha":1100,"x_min":107,"x_max":985,"o":"m 985 972 l 985 0 l 767 0 l 767 118 q 472 -17 667 -17 q 203 92 300 -17 q 107 403 107 201 l 107 972 l 332 972 l 332 410 q 387 234 332 293 q 536 175 442 175 q 699 238 638 175 q 760 425 760 301 l 760 972 l 985 972 m 179 1251 l 382 1251 l 482 1051 l 324 1051 l 179 1251 m 460 1251 l 663 1251 l 763 1051 l 604 1051 l 460 1251 z "},"Ü":{"ha":1100,"x_min":107,"x_max":985,"o":"m 985 972 l 985 0 l 767 0 l 767 118 q 472 -17 667 -17 q 203 92 300 -17 q 107 403 107 201 l 107 972 l 332 972 l 332 410 q 387 234 332 293 q 536 175 442 175 q 699 238 638 175 q 760 425 760 301 l 760 972 l 985 972 m 403 1058 q 333 1085 361 1058 q 306 1154 306 1113 q 333 1223 306 1196 q 403 1250 361 1250 q 472 1223 444 1250 q 499 1154 499 1196 q 472 1085 499 1113 q 403 1058 444 1058 m 683 1058 q 615 1085 642 1058 q 588 1154 588 1113 q 615 1223 588 1196 q 683 1250 642 1250 q 753 1223 725 1250 q 781 1154 781 1196 q 753 1085 781 1113 q 683 1058 725 1058 z "},"Ụ":{"ha":1100,"x_min":107,"x_max":985,"o":"m 985 972 l 985 0 l 767 0 l 767 118 q 472 -17 667 -17 q 203 92 300 -17 q 107 403 107 201 l 107 972 l 332 972 l 332 410 q 387 234 332 293 q 536 175 442 175 q 699 238 638 175 q 760 425 760 301 l 760 972 l 985 972 m 543 -292 q 474 -266 501 -292 q 447 -199 447 -240 q 474 -129 447 -157 q 543 -101 501 -101 q 611 -129 583 -101 q 639 -199 639 -157 q 612 -266 639 -240 q 543 -292 585 -292 z "},"Ù":{"ha":1100,"x_min":107,"x_max":985,"o":"m 985 972 l 985 0 l 767 0 l 767 118 q 472 -17 667 -17 q 203 92 300 -17 q 107 403 107 201 l 107 972 l 332 972 l 332 410 q 387 234 332 293 q 536 175 442 175 q 699 238 638 175 q 760 425 760 301 l 760 972 l 985 972 m 249 1251 l 482 1251 l 669 1051 l 500 1051 l 249 1251 z "},"Ủ":{"ha":1100,"x_min":107,"x_max":985,"o":"m 985 972 l 985 0 l 767 0 l 767 118 q 472 -17 667 -17 q 203 92 300 -17 q 107 403 107 201 l 107 972 l 332 972 l 332 410 q 387 234 332 293 q 536 175 442 175 q 699 238 638 175 q 760 425 760 301 l 760 972 l 985 972 m 517 1110 q 572 1149 556 1128 q 588 1194 588 1169 q 569 1237 588 1221 q 522 1253 551 1253 q 440 1226 481 1253 l 396 1314 q 546 1361 456 1361 q 666 1320 619 1361 q 713 1213 713 1279 q 585 1038 713 1096 l 517 1110 z "},"Ư":{"ha":1100,"x_min":107,"x_max":1125,"o":"m 985 972 l 985 0 l 767 0 l 767 118 q 472 -17 667 -17 q 203 92 300 -17 q 107 403 107 201 l 107 972 l 332 972 l 332 410 q 387 234 332 293 q 536 175 442 175 q 699 238 638 175 q 760 425 760 301 l 760 972 l 985 972 m 860 972 l 897 972 q 958 997 935 972 q 981 1060 981 1021 q 953 1143 981 1108 l 1081 1190 q 1125 1051 1125 1132 q 1063 888 1125 947 q 892 828 1001 828 l 860 828 l 860 972 z "},"Ứ":{"ha":1100,"x_min":107,"x_max":1125,"o":"m 985 972 l 985 0 l 767 0 l 767 118 q 472 -17 667 -17 q 203 92 300 -17 q 107 403 107 201 l 107 972 l 332 972 l 332 410 q 387 234 332 293 q 536 175 442 175 q 699 238 638 175 q 760 425 760 301 l 760 972 l 985 972 m 860 972 l 897 972 q 958 997 935 972 q 981 1060 981 1021 q 953 1143 981 1108 l 1081 1190 q 1125 1051 1125 1132 q 1063 888 1125 947 q 892 828 1001 828 l 860 828 l 860 972 m 604 1251 l 838 1251 l 586 1051 l 417 1051 l 604 1251 z "},"Ự":{"ha":1100,"x_min":107,"x_max":1125,"o":"m 985 972 l 985 0 l 767 0 l 767 118 q 472 -17 667 -17 q 203 92 300 -17 q 107 403 107 201 l 107 972 l 332 972 l 332 410 q 387 234 332 293 q 536 175 442 175 q 699 238 638 175 q 760 425 760 301 l 760 972 l 985 972 m 860 972 l 897 972 q 958 997 935 972 q 981 1060 981 1021 q 953 1143 981 1108 l 1081 1190 q 1125 1051 1125 1132 q 1063 888 1125 947 q 892 828 1001 828 l 860 828 l 860 972 m 543 -292 q 474 -266 501 -292 q 447 -199 447 -240 q 474 -129 447 -157 q 543 -101 501 -101 q 611 -129 583 -101 q 639 -199 639 -157 q 612 -266 639 -240 q 543 -292 585 -292 z "},"Ừ":{"ha":1100,"x_min":107,"x_max":1125,"o":"m 985 972 l 985 0 l 767 0 l 767 118 q 472 -17 667 -17 q 203 92 300 -17 q 107 403 107 201 l 107 972 l 332 972 l 332 410 q 387 234 332 293 q 536 175 442 175 q 699 238 638 175 q 760 425 760 301 l 760 972 l 985 972 m 860 972 l 897 972 q 958 997 935 972 q 981 1060 981 1021 q 953 1143 981 1108 l 1081 1190 q 1125 1051 1125 1132 q 1063 888 1125 947 q 892 828 1001 828 l 860 828 l 860 972 m 249 1251 l 482 1251 l 669 1051 l 500 1051 l 249 1251 z "},"Ử":{"ha":1100,"x_min":107,"x_max":1125,"o":"m 985 972 l 985 0 l 767 0 l 767 118 q 472 -17 667 -17 q 203 92 300 -17 q 107 403 107 201 l 107 972 l 332 972 l 332 410 q 387 234 332 293 q 536 175 442 175 q 699 238 638 175 q 760 425 760 301 l 760 972 l 985 972 m 860 972 l 897 972 q 958 997 935 972 q 981 1060 981 1021 q 953 1143 981 1108 l 1081 1190 q 1125 1051 1125 1132 q 1063 888 1125 947 q 892 828 1001 828 l 860 828 l 860 972 m 517 1110 q 572 1149 556 1128 q 588 1194 588 1169 q 569 1237 588 1221 q 522 1253 551 1253 q 440 1226 481 1253 l 396 1314 q 546 1361 456 1361 q 666 1320 619 1361 q 713 1213 713 1279 q 585 1038 713 1096 l 517 1110 z "},"Ữ":{"ha":1100,"x_min":107,"x_max":1125,"o":"m 985 972 l 985 0 l 767 0 l 767 118 q 472 -17 667 -17 q 203 92 300 -17 q 107 403 107 201 l 107 972 l 332 972 l 332 410 q 387 234 332 293 q 536 175 442 175 q 699 238 638 175 q 760 425 760 301 l 760 972 l 985 972 m 860 972 l 897 972 q 958 997 935 972 q 981 1060 981 1021 q 953 1143 981 1108 l 1081 1190 q 1125 1051 1125 1132 q 1063 888 1125 947 q 892 828 1001 828 l 860 828 l 860 972 m 647 1047 q 581 1062 610 1047 q 518 1101 553 1076 q 481 1126 496 1118 q 453 1135 467 1135 q 406 1115 424 1135 q 386 1057 388 1094 l 276 1057 q 323 1205 279 1150 q 439 1260 367 1260 q 503 1245 475 1260 q 568 1204 532 1231 q 605 1179 590 1188 q 633 1171 619 1171 q 680 1191 661 1171 q 700 1246 699 1211 l 810 1246 q 763 1101 807 1156 q 647 1047 719 1047 z "},"Ű":{"ha":1100,"x_min":107,"x_max":985,"o":"m 985 972 l 985 0 l 767 0 l 767 118 q 472 -17 667 -17 q 203 92 300 -17 q 107 403 107 201 l 107 972 l 332 972 l 332 410 q 387 234 332 293 q 536 175 442 175 q 699 238 638 175 q 760 425 760 301 l 760 972 l 985 972 m 424 1251 l 626 1251 l 482 1051 l 324 1051 l 424 1251 m 704 1251 l 907 1251 l 763 1051 l 604 1051 l 704 1251 z "},"Ȗ":{"ha":1100,"x_min":107,"x_max":985,"o":"m 985 972 l 985 0 l 767 0 l 767 118 q 472 -17 667 -17 q 203 92 300 -17 q 107 403 107 201 l 107 972 l 332 972 l 332 410 q 387 234 332 293 q 536 175 442 175 q 699 238 638 175 q 760 425 760 301 l 760 972 l 985 972 m 288 1051 q 363 1206 292 1149 q 543 1263 433 1263 q 724 1206 653 1263 q 799 1051 794 1149 l 663 1051 q 627 1123 661 1096 q 543 1150 593 1150 q 459 1123 493 1150 q 424 1051 425 1096 l 288 1051 z "},"Ū":{"ha":1100,"x_min":107,"x_max":985,"o":"m 985 972 l 985 0 l 767 0 l 767 118 q 472 -17 667 -17 q 203 92 300 -17 q 107 403 107 201 l 107 972 l 332 972 l 332 410 q 387 234 332 293 q 536 175 442 175 q 699 238 638 175 q 760 425 760 301 l 760 972 l 985 972 m 286 1213 l 800 1213 l 800 1090 l 286 1090 l 286 1213 z "},"Ṻ":{"ha":1100,"x_min":107,"x_max":985,"o":"m 985 972 l 985 0 l 767 0 l 767 118 q 472 -17 667 -17 q 203 92 300 -17 q 107 403 107 201 l 107 972 l 332 972 l 332 410 q 387 234 332 293 q 536 175 442 175 q 699 238 638 175 q 760 425 760 301 l 760 972 l 985 972 m 286 1190 l 800 1190 l 800 1075 l 286 1075 l 286 1190 m 407 1283 q 342 1309 368 1283 q 315 1375 315 1335 q 342 1440 315 1414 q 407 1467 368 1467 q 474 1440 447 1467 q 500 1375 500 1414 q 474 1309 500 1335 q 407 1283 447 1283 m 679 1283 q 614 1309 640 1283 q 588 1375 588 1335 q 615 1440 588 1414 q 679 1467 642 1467 q 744 1440 718 1467 q 771 1375 771 1414 q 744 1309 771 1335 q 679 1283 718 1283 z "},"Ų":{"ha":1100,"x_min":107,"x_max":1017,"o":"m 985 972 l 985 0 l 767 0 l 767 118 q 472 -17 667 -17 q 203 92 300 -17 q 107 403 107 201 l 107 972 l 332 972 l 332 410 q 387 234 332 293 q 536 175 442 175 q 699 238 638 175 q 760 425 760 301 l 760 972 l 985 972 m 876 -322 q 736 -280 788 -322 q 685 -167 685 -237 q 738 -40 685 -99 q 899 57 792 18 l 985 0 q 860 -74 897 -39 q 822 -149 822 -110 q 844 -195 822 -178 q 901 -212 865 -212 q 986 -192 949 -212 l 1017 -290 q 953 -313 990 -304 q 876 -322 915 -322 z "},"Ů":{"ha":1100,"x_min":107,"x_max":985,"o":"m 985 972 l 985 0 l 767 0 l 767 118 q 472 -17 667 -17 q 203 92 300 -17 q 107 403 107 201 l 107 972 l 332 972 l 332 410 q 387 234 332 293 q 536 175 442 175 q 699 238 638 175 q 760 425 760 301 l 760 972 l 985 972 m 542 1047 q 420 1096 469 1047 q 371 1215 371 1144 q 420 1335 371 1286 q 542 1383 469 1383 q 665 1335 615 1383 q 715 1215 715 1286 q 665 1096 715 1144 q 542 1047 615 1047 m 542 1131 q 602 1155 578 1131 q 626 1215 626 1179 q 602 1276 626 1251 q 542 1300 578 1300 q 483 1276 507 1300 q 458 1215 458 1251 q 482 1155 458 1179 q 542 1131 506 1131 z "},"Ũ":{"ha":1100,"x_min":107,"x_max":985,"o":"m 985 972 l 985 0 l 767 0 l 767 118 q 472 -17 667 -17 q 203 92 300 -17 q 107 403 107 201 l 107 972 l 332 972 l 332 410 q 387 234 332 293 q 536 175 442 175 q 699 238 638 175 q 760 425 760 301 l 760 972 l 985 972 m 647 1047 q 581 1062 610 1047 q 518 1101 553 1076 q 481 1126 496 1118 q 453 1135 467 1135 q 406 1115 424 1135 q 386 1057 388 1094 l 276 1057 q 323 1205 279 1150 q 439 1260 367 1260 q 503 1245 475 1260 q 568 1204 532 1231 q 605 1179 590 1188 q 633 1171 619 1171 q 680 1191 661 1171 q 700 1246 699 1211 l 810 1246 q 763 1101 807 1156 q 647 1047 719 1047 z "},"Ṹ":{"ha":1100,"x_min":107,"x_max":985,"o":"m 985 972 l 985 0 l 767 0 l 767 118 q 472 -17 667 -17 q 203 92 300 -17 q 107 403 107 201 l 107 972 l 332 972 l 332 410 q 387 234 332 293 q 536 175 442 175 q 699 238 638 175 q 760 425 760 301 l 760 972 l 985 972 m 646 1049 q 579 1060 608 1049 q 515 1094 550 1072 q 483 1113 499 1104 q 454 1121 467 1121 q 411 1104 426 1121 q 393 1057 396 1088 l 282 1057 q 326 1185 283 1140 q 443 1231 368 1231 q 505 1219 479 1231 q 569 1186 531 1208 q 606 1165 592 1172 q 635 1158 621 1158 q 678 1176 663 1158 q 696 1221 693 1193 l 804 1221 q 761 1094 803 1140 q 646 1049 719 1049 m 578 1443 l 799 1443 l 581 1275 l 424 1275 l 578 1443 z "},"V":{"ha":1036,"x_min":-12,"x_max":1050,"o":"m 1050 972 l 629 0 l 407 0 l -12 972 l 231 972 l 526 278 l 826 972 l 1050 972 z "},"W":{"ha":1668,"x_min":107,"x_max":1561,"o":"m 1561 972 l 1561 399 q 1451 90 1561 196 q 1140 -17 1342 -17 q 962 13 1040 -17 q 833 94 883 42 q 704 13 782 42 q 528 -17 626 -17 q 217 90 326 -17 q 107 399 107 196 l 107 972 l 332 972 l 332 406 q 381 231 332 288 q 525 175 429 175 q 721 406 721 175 l 721 972 l 946 972 l 946 406 q 1143 175 946 175 q 1335 406 1335 175 l 1335 972 l 1561 972 z "},"Ẃ":{"ha":1668,"x_min":107,"x_max":1561,"o":"m 1561 972 l 1561 399 q 1451 90 1561 196 q 1140 -17 1342 -17 q 962 13 1040 -17 q 833 94 883 42 q 704 13 782 42 q 528 -17 626 -17 q 217 90 326 -17 q 107 399 107 196 l 107 972 l 332 972 l 332 406 q 381 231 332 288 q 525 175 429 175 q 721 406 721 175 l 721 972 l 946 972 l 946 406 q 1143 175 946 175 q 1335 406 1335 175 l 1335 972 l 1561 972 m 894 1251 l 1128 1251 l 876 1051 l 707 1051 l 894 1251 z "},"Ŵ":{"ha":1668,"x_min":107,"x_max":1561,"o":"m 1561 972 l 1561 399 q 1451 90 1561 196 q 1140 -17 1342 -17 q 962 13 1040 -17 q 833 94 883 42 q 704 13 782 42 q 528 -17 626 -17 q 217 90 326 -17 q 107 399 107 196 l 107 972 l 332 972 l 332 406 q 381 231 332 288 q 525 175 429 175 q 721 406 721 175 l 721 972 l 946 972 l 946 406 q 1143 175 946 175 q 1335 406 1335 175 l 1335 972 l 1561 972 m 954 1051 l 833 1157 l 713 1051 l 554 1051 l 738 1251 l 929 1251 l 1113 1051 l 954 1051 z "},"Ẅ":{"ha":1668,"x_min":107,"x_max":1561,"o":"m 1561 972 l 1561 399 q 1451 90 1561 196 q 1140 -17 1342 -17 q 962 13 1040 -17 q 833 94 883 42 q 704 13 782 42 q 528 -17 626 -17 q 217 90 326 -17 q 107 399 107 196 l 107 972 l 332 972 l 332 406 q 381 231 332 288 q 525 175 429 175 q 721 406 721 175 l 721 972 l 946 972 l 946 406 q 1143 175 946 175 q 1335 406 1335 175 l 1335 972 l 1561 972 m 693 1058 q 624 1085 651 1058 q 596 1154 596 1113 q 624 1223 596 1196 q 693 1250 651 1250 q 762 1223 735 1250 q 789 1154 789 1196 q 762 1085 789 1113 q 693 1058 735 1058 m 974 1058 q 905 1085 932 1058 q 878 1154 878 1113 q 905 1223 878 1196 q 974 1250 932 1250 q 1043 1223 1015 1250 q 1071 1154 1071 1196 q 1043 1085 1071 1113 q 974 1058 1015 1058 z "},"Ẁ":{"ha":1668,"x_min":107,"x_max":1561,"o":"m 1561 972 l 1561 399 q 1451 90 1561 196 q 1140 -17 1342 -17 q 962 13 1040 -17 q 833 94 883 42 q 704 13 782 42 q 528 -17 626 -17 q 217 90 326 -17 q 107 399 107 196 l 107 972 l 332 972 l 332 406 q 381 231 332 288 q 525 175 429 175 q 721 406 721 175 l 721 972 l 946 972 l 946 406 q 1143 175 946 175 q 1335 406 1335 175 l 1335 972 l 1561 972 m 539 1251 l 772 1251 l 960 1051 l 790 1051 l 539 1251 z "},"X":{"ha":992,"x_min":4,"x_max":988,"o":"m 728 0 l 493 338 l 263 0 l 4 0 l 364 494 l 22 972 l 278 972 l 501 657 l 721 972 l 964 972 l 625 503 l 988 0 l 728 0 z "},"Y":{"ha":1090,"x_min":100,"x_max":983,"o":"m 983 972 l 983 304 q 861 -33 983 85 q 524 -150 739 -150 q 297 -116 400 -150 q 122 -19 194 -82 l 210 147 q 518 40 342 40 q 699 102 640 40 q 758 293 758 164 l 758 353 q 483 233 661 233 q 199 338 299 233 q 100 640 100 443 l 100 972 l 325 972 l 325 654 q 379 482 325 540 q 532 424 433 424 q 697 485 636 424 q 758 669 758 546 l 758 972 l 983 972 z "},"Ý":{"ha":1090,"x_min":100,"x_max":983,"o":"m 983 972 l 983 304 q 861 -33 983 85 q 524 -150 739 -150 q 297 -116 400 -150 q 122 -19 194 -82 l 210 147 q 518 40 342 40 q 699 102 640 40 q 758 293 758 164 l 758 353 q 483 233 661 233 q 199 338 299 233 q 100 640 100 443 l 100 972 l 325 972 l 325 654 q 379 482 325 540 q 532 424 433 424 q 697 485 636 424 q 758 669 758 546 l 758 972 l 983 972 m 603 1251 l 836 1251 l 585 1051 l 415 1051 l 603 1251 z "},"Ŷ":{"ha":1090,"x_min":100,"x_max":983,"o":"m 983 972 l 983 304 q 861 -33 983 85 q 524 -150 739 -150 q 297 -116 400 -150 q 122 -19 194 -82 l 210 147 q 518 40 342 40 q 699 102 640 40 q 758 293 758 164 l 758 353 q 483 233 661 233 q 199 338 299 233 q 100 640 100 443 l 100 972 l 325 972 l 325 654 q 379 482 325 540 q 532 424 433 424 q 697 485 636 424 q 758 669 758 546 l 758 972 l 983 972 m 663 1051 l 542 1157 l 421 1051 l 263 1051 l 446 1251 l 638 1251 l 821 1051 l 663 1051 z "},"Ÿ":{"ha":1090,"x_min":100,"x_max":983,"o":"m 983 972 l 983 304 q 861 -33 983 85 q 524 -150 739 -150 q 297 -116 400 -150 q 122 -19 194 -82 l 210 147 q 518 40 342 40 q 699 102 640 40 q 758 293 758 164 l 758 353 q 483 233 661 233 q 199 338 299 233 q 100 640 100 443 l 100 972 l 325 972 l 325 654 q 379 482 325 540 q 532 424 433 424 q 697 485 636 424 q 758 669 758 546 l 758 972 l 983 972 m 401 1058 q 332 1085 360 1058 q 304 1154 304 1113 q 332 1223 304 1196 q 401 1250 360 1250 q 470 1223 443 1250 q 497 1154 497 1196 q 470 1085 497 1113 q 401 1058 443 1058 m 682 1058 q 613 1085 640 1058 q 586 1154 586 1113 q 613 1223 586 1196 q 682 1250 640 1250 q 751 1223 724 1250 q 779 1154 779 1196 q 751 1085 779 1113 q 682 1058 724 1058 z "},"Ẏ":{"ha":1090,"x_min":100,"x_max":983,"o":"m 983 972 l 983 304 q 861 -33 983 85 q 524 -150 739 -150 q 297 -116 400 -150 q 122 -19 194 -82 l 210 147 q 518 40 342 40 q 699 102 640 40 q 758 293 758 164 l 758 353 q 483 233 661 233 q 199 338 299 233 q 100 640 100 443 l 100 972 l 325 972 l 325 654 q 379 482 325 540 q 532 424 433 424 q 697 485 636 424 q 758 669 758 546 l 758 972 l 983 972 m 542 1058 q 458 1092 490 1058 q 425 1176 425 1125 q 458 1260 425 1226 q 542 1293 490 1293 q 626 1260 593 1293 q 658 1176 658 1226 q 626 1092 658 1125 q 542 1058 593 1058 z "},"Ỵ":{"ha":1090,"x_min":100,"x_max":1028,"o":"m 983 972 l 983 304 q 861 -33 983 85 q 524 -150 739 -150 q 297 -116 400 -150 q 122 -19 194 -82 l 210 147 q 518 40 342 40 q 699 102 640 40 q 758 293 758 164 l 758 353 q 483 233 661 233 q 199 338 299 233 q 100 640 100 443 l 100 972 l 325 972 l 325 654 q 379 482 325 540 q 532 424 433 424 q 697 485 636 424 q 758 669 758 546 l 758 972 l 983 972 m 932 -292 q 863 -266 890 -292 q 836 -199 836 -240 q 863 -129 836 -157 q 932 -101 890 -101 q 1000 -129 972 -101 q 1028 -199 1028 -157 q 1001 -266 1028 -240 q 932 -292 974 -292 z "},"Ỳ":{"ha":1090,"x_min":100,"x_max":983,"o":"m 983 972 l 983 304 q 861 -33 983 85 q 524 -150 739 -150 q 297 -116 400 -150 q 122 -19 194 -82 l 210 147 q 518 40 342 40 q 699 102 640 40 q 758 293 758 164 l 758 353 q 483 233 661 233 q 199 338 299 233 q 100 640 100 443 l 100 972 l 325 972 l 325 654 q 379 482 325 540 q 532 424 433 424 q 697 485 636 424 q 758 669 758 546 l 758 972 l 983 972 m 247 1251 l 481 1251 l 668 1051 l 499 1051 l 247 1251 z "},"Ỷ":{"ha":1090,"x_min":100,"x_max":983,"o":"m 983 972 l 983 304 q 861 -33 983 85 q 524 -150 739 -150 q 297 -116 400 -150 q 122 -19 194 -82 l 210 147 q 518 40 342 40 q 699 102 640 40 q 758 293 758 164 l 758 353 q 483 233 661 233 q 199 338 299 233 q 100 640 100 443 l 100 972 l 325 972 l 325 654 q 379 482 325 540 q 532 424 433 424 q 697 485 636 424 q 758 669 758 546 l 758 972 l 983 972 m 515 1110 q 570 1149 554 1128 q 586 1194 586 1169 q 568 1237 586 1221 q 521 1253 550 1253 q 439 1226 479 1253 l 394 1314 q 544 1361 454 1361 q 665 1320 618 1361 q 711 1213 711 1279 q 583 1038 711 1096 l 515 1110 z "},"Ȳ":{"ha":1090,"x_min":100,"x_max":983,"o":"m 983 972 l 983 304 q 861 -33 983 85 q 524 -150 739 -150 q 297 -116 400 -150 q 122 -19 194 -82 l 210 147 q 518 40 342 40 q 699 102 640 40 q 758 293 758 164 l 758 353 q 483 233 661 233 q 199 338 299 233 q 100 640 100 443 l 100 972 l 325 972 l 325 654 q 379 482 325 540 q 532 424 433 424 q 697 485 636 424 q 758 669 758 546 l 758 972 l 983 972 m 285 1213 l 799 1213 l 799 1090 l 285 1090 l 285 1213 z "},"Ỹ":{"ha":1090,"x_min":100,"x_max":983,"o":"m 983 972 l 983 304 q 861 -33 983 85 q 524 -150 739 -150 q 297 -116 400 -150 q 122 -19 194 -82 l 210 147 q 518 40 342 40 q 699 102 640 40 q 758 293 758 164 l 758 353 q 483 233 661 233 q 199 338 299 233 q 100 640 100 443 l 100 972 l 325 972 l 325 654 q 379 482 325 540 q 532 424 433 424 q 697 485 636 424 q 758 669 758 546 l 758 972 l 983 972 m 646 1047 q 580 1062 608 1047 q 517 1101 551 1076 q 480 1126 494 1118 q 451 1135 465 1135 q 404 1115 422 1135 q 385 1057 386 1094 l 275 1057 q 322 1205 278 1150 q 438 1260 365 1260 q 502 1245 474 1260 q 567 1204 531 1231 q 603 1179 589 1188 q 632 1171 618 1171 q 678 1191 660 1171 q 699 1246 697 1211 l 808 1246 q 762 1101 806 1156 q 646 1047 718 1047 z "},"Z":{"ha":946,"x_min":60,"x_max":910,"o":"m 910 181 l 910 0 l 60 0 l 60 131 l 290 411 l 136 411 l 136 579 l 428 579 l 603 792 l 69 792 l 69 972 l 889 972 l 889 843 l 669 575 l 811 575 l 811 408 l 533 408 l 346 181 l 910 181 z "},"Ź":{"ha":946,"x_min":60,"x_max":910,"o":"m 910 181 l 910 0 l 60 0 l 60 131 l 290 411 l 136 411 l 136 579 l 428 579 l 603 792 l 69 792 l 69 972 l 889 972 l 889 843 l 669 575 l 811 575 l 811 408 l 533 408 l 346 181 l 910 181 m 544 1251 l 778 1251 l 526 1051 l 357 1051 l 544 1251 z "},"Ž":{"ha":946,"x_min":60,"x_max":910,"o":"m 910 181 l 910 0 l 60 0 l 60 131 l 290 411 l 136 411 l 136 579 l 428 579 l 603 792 l 69 792 l 69 972 l 889 972 l 889 843 l 669 575 l 811 575 l 811 408 l 533 408 l 346 181 l 910 181 m 763 1251 l 579 1051 l 388 1051 l 204 1251 l 363 1251 l 483 1147 l 604 1251 l 763 1251 z "},"Ż":{"ha":946,"x_min":60,"x_max":910,"o":"m 910 181 l 910 0 l 60 0 l 60 131 l 290 411 l 136 411 l 136 579 l 428 579 l 603 792 l 69 792 l 69 972 l 889 972 l 889 843 l 669 575 l 811 575 l 811 408 l 533 408 l 346 181 l 910 181 m 483 1058 q 399 1092 432 1058 q 367 1176 367 1125 q 399 1260 367 1226 q 483 1293 432 1293 q 567 1260 535 1293 q 600 1176 600 1226 q 567 1092 600 1125 q 483 1058 535 1058 z "},"Ẓ":{"ha":946,"x_min":60,"x_max":910,"o":"m 910 181 l 910 0 l 60 0 l 60 131 l 290 411 l 136 411 l 136 579 l 428 579 l 603 792 l 69 792 l 69 972 l 889 972 l 889 843 l 669 575 l 811 575 l 811 408 l 533 408 l 346 181 l 910 181 m 488 -292 q 419 -266 446 -292 q 392 -199 392 -240 q 419 -129 392 -157 q 488 -101 446 -101 q 556 -129 528 -101 q 583 -199 583 -157 q 556 -266 583 -240 q 488 -292 529 -292 z "},"a":{"ha":958,"x_min":44,"x_max":858,"o":"m 858 747 l 858 0 l 651 0 l 651 86 q 418 -11 571 -11 q 227 36 313 -11 q 93 171 142 83 q 44 374 44 258 q 93 576 44 489 q 227 711 142 664 q 418 758 313 758 q 642 668 561 758 l 642 747 l 858 747 m 456 167 q 592 223 538 167 q 646 374 646 279 q 592 524 646 468 q 456 581 538 581 q 318 524 372 581 q 264 374 264 468 q 318 223 264 279 q 456 167 372 167 z "},"á":{"ha":958,"x_min":44,"x_max":858,"o":"m 858 747 l 858 0 l 651 0 l 651 86 q 418 -11 571 -11 q 227 36 313 -11 q 93 171 142 83 q 44 374 44 258 q 93 576 44 489 q 227 711 142 664 q 418 758 313 758 q 642 668 561 758 l 642 747 l 858 747 m 456 167 q 592 223 538 167 q 646 374 646 279 q 592 524 646 468 q 456 581 538 581 q 318 524 372 581 q 264 374 264 468 q 318 223 264 279 q 456 167 372 167 m 546 1043 l 779 1043 l 528 843 l 358 843 l 546 1043 z "},"ă":{"ha":958,"x_min":44,"x_max":858,"o":"m 858 747 l 858 0 l 651 0 l 651 86 q 418 -11 571 -11 q 227 36 313 -11 q 93 171 142 83 q 44 374 44 258 q 93 576 44 489 q 227 711 142 664 q 418 758 313 758 q 642 668 561 758 l 642 747 l 858 747 m 456 167 q 592 223 538 167 q 646 374 646 279 q 592 524 646 468 q 456 581 538 581 q 318 524 372 581 q 264 374 264 468 q 318 223 264 279 q 456 167 372 167 m 485 832 q 304 889 375 832 q 229 1043 233 946 l 365 1043 q 401 972 367 999 q 485 944 435 944 q 569 972 535 944 q 604 1043 603 999 l 740 1043 q 665 889 736 946 q 485 832 594 832 z "},"ắ":{"ha":958,"x_min":44,"x_max":858,"o":"m 858 747 l 858 0 l 651 0 l 651 86 q 418 -11 571 -11 q 227 36 313 -11 q 93 171 142 83 q 44 374 44 258 q 93 576 44 489 q 227 711 142 664 q 418 758 313 758 q 642 668 561 758 l 642 747 l 858 747 m 456 167 q 592 223 538 167 q 646 374 646 279 q 592 524 646 468 q 456 581 538 581 q 318 524 372 581 q 264 374 264 468 q 318 223 264 279 q 456 167 372 167 m 485 832 q 306 878 376 832 q 229 1001 236 924 l 360 1001 q 399 954 364 972 q 485 936 433 936 q 571 954 536 936 q 610 1001 606 972 l 740 1001 q 663 878 733 924 q 485 832 593 832 m 519 1211 l 740 1211 l 522 1043 l 365 1043 l 519 1211 z "},"ặ":{"ha":958,"x_min":44,"x_max":858,"o":"m 858 747 l 858 0 l 651 0 l 651 86 q 418 -11 571 -11 q 227 36 313 -11 q 93 171 142 83 q 44 374 44 258 q 93 576 44 489 q 227 711 142 664 q 418 758 313 758 q 642 668 561 758 l 642 747 l 858 747 m 456 167 q 592 223 538 167 q 646 374 646 279 q 592 524 646 468 q 456 581 538 581 q 318 524 372 581 q 264 374 264 468 q 318 223 264 279 q 456 167 372 167 m 485 -292 q 416 -266 443 -292 q 389 -199 389 -240 q 416 -129 389 -157 q 485 -101 443 -101 q 553 -129 525 -101 q 581 -199 581 -157 q 553 -266 581 -240 q 485 -292 526 -292 m 485 832 q 304 889 375 832 q 229 1043 233 946 l 365 1043 q 401 972 367 999 q 485 944 435 944 q 569 972 535 944 q 604 1043 603 999 l 740 1043 q 665 889 736 946 q 485 832 594 832 z "},"ằ":{"ha":958,"x_min":44,"x_max":858,"o":"m 858 747 l 858 0 l 651 0 l 651 86 q 418 -11 571 -11 q 227 36 313 -11 q 93 171 142 83 q 44 374 44 258 q 93 576 44 489 q 227 711 142 664 q 418 758 313 758 q 642 668 561 758 l 642 747 l 858 747 m 456 167 q 592 223 538 167 q 646 374 646 279 q 592 524 646 468 q 456 581 538 581 q 318 524 372 581 q 264 374 264 468 q 318 223 264 279 q 456 167 372 167 m 485 832 q 306 878 376 832 q 229 1001 236 924 l 360 1001 q 399 954 364 972 q 485 936 433 936 q 571 954 536 936 q 610 1001 606 972 l 740 1001 q 663 878 733 924 q 485 832 593 832 m 231 1211 l 451 1211 l 604 1043 l 449 1043 l 231 1211 z "},"ẳ":{"ha":958,"x_min":44,"x_max":858,"o":"m 858 747 l 858 0 l 651 0 l 651 86 q 418 -11 571 -11 q 227 36 313 -11 q 93 171 142 83 q 44 374 44 258 q 93 576 44 489 q 227 711 142 664 q 418 758 313 758 q 642 668 561 758 l 642 747 l 858 747 m 456 167 q 592 223 538 167 q 646 374 646 279 q 592 524 646 468 q 456 581 538 581 q 318 524 372 581 q 264 374 264 468 q 318 223 264 279 q 456 167 372 167 m 485 832 q 306 878 376 832 q 229 1001 236 924 l 360 1001 q 399 954 364 972 q 485 936 433 936 q 571 954 536 936 q 610 1001 606 972 l 740 1001 q 663 878 733 924 q 485 832 593 832 m 467 1056 q 518 1114 518 1081 q 505 1143 518 1132 q 471 1154 492 1154 q 410 1138 442 1154 l 374 1204 q 489 1235 421 1235 q 582 1205 547 1235 q 617 1125 617 1175 q 590 1053 617 1085 q 519 1004 563 1021 l 467 1056 z "},"ẵ":{"ha":958,"x_min":44,"x_max":858,"o":"m 858 747 l 858 0 l 651 0 l 651 86 q 418 -11 571 -11 q 227 36 313 -11 q 93 171 142 83 q 44 374 44 258 q 93 576 44 489 q 227 711 142 664 q 418 758 313 758 q 642 668 561 758 l 642 747 l 858 747 m 456 167 q 592 223 538 167 q 646 374 646 279 q 592 524 646 468 q 456 581 538 581 q 318 524 372 581 q 264 374 264 468 q 318 223 264 279 q 456 167 372 167 m 485 832 q 306 878 376 832 q 229 1001 236 924 l 360 1001 q 399 954 364 972 q 485 936 433 936 q 571 954 536 936 q 610 1001 606 972 l 740 1001 q 663 878 733 924 q 485 832 593 832 m 588 1040 q 521 1052 550 1040 q 457 1086 492 1064 q 424 1104 440 1096 q 396 1113 408 1113 q 353 1096 368 1113 q 335 1049 338 1079 l 224 1049 q 267 1177 225 1132 q 385 1222 310 1222 q 447 1211 421 1222 q 511 1178 472 1200 q 548 1157 533 1164 q 576 1150 563 1150 q 619 1167 604 1150 q 638 1213 635 1185 l 746 1213 q 703 1086 744 1132 q 588 1040 661 1040 z "},"ǎ":{"ha":958,"x_min":44,"x_max":858,"o":"m 858 747 l 858 0 l 651 0 l 651 86 q 418 -11 571 -11 q 227 36 313 -11 q 93 171 142 83 q 44 374 44 258 q 93 576 44 489 q 227 711 142 664 q 418 758 313 758 q 642 668 561 758 l 642 747 l 858 747 m 456 167 q 592 223 538 167 q 646 374 646 279 q 592 524 646 468 q 456 581 538 581 q 318 524 372 581 q 264 374 264 468 q 318 223 264 279 q 456 167 372 167 m 764 1043 l 581 843 l 389 843 l 206 1043 l 364 1043 l 485 939 l 606 1043 l 764 1043 z "},"â":{"ha":958,"x_min":44,"x_max":858,"o":"m 858 747 l 858 0 l 651 0 l 651 86 q 418 -11 571 -11 q 227 36 313 -11 q 93 171 142 83 q 44 374 44 258 q 93 576 44 489 q 227 711 142 664 q 418 758 313 758 q 642 668 561 758 l 642 747 l 858 747 m 456 167 q 592 223 538 167 q 646 374 646 279 q 592 524 646 468 q 456 581 538 581 q 318 524 372 581 q 264 374 264 468 q 318 223 264 279 q 456 167 372 167 m 606 843 l 485 949 l 364 843 l 206 843 l 389 1043 l 581 1043 l 764 843 l 606 843 z "},"ấ":{"ha":958,"x_min":44,"x_max":1026,"o":"m 858 747 l 858 0 l 651 0 l 651 86 q 418 -11 571 -11 q 227 36 313 -11 q 93 171 142 83 q 44 374 44 258 q 93 576 44 489 q 227 711 142 664 q 418 758 313 758 q 642 668 561 758 l 642 747 l 858 747 m 456 167 q 592 223 538 167 q 646 374 646 279 q 592 524 646 468 q 456 581 538 581 q 318 524 372 581 q 264 374 264 468 q 318 223 264 279 q 456 167 372 167 m 604 843 l 485 922 l 365 843 l 206 843 l 390 1001 l 579 1001 l 764 843 l 604 843 m 806 1144 l 1026 1144 l 808 976 l 651 976 l 806 1144 z "},"ậ":{"ha":958,"x_min":44,"x_max":858,"o":"m 858 747 l 858 0 l 651 0 l 651 86 q 418 -11 571 -11 q 227 36 313 -11 q 93 171 142 83 q 44 374 44 258 q 93 576 44 489 q 227 711 142 664 q 418 758 313 758 q 642 668 561 758 l 642 747 l 858 747 m 456 167 q 592 223 538 167 q 646 374 646 279 q 592 524 646 468 q 456 581 538 581 q 318 524 372 581 q 264 374 264 468 q 318 223 264 279 q 456 167 372 167 m 485 -292 q 416 -266 443 -292 q 389 -199 389 -240 q 416 -129 389 -157 q 485 -101 443 -101 q 553 -129 525 -101 q 581 -199 581 -157 q 553 -266 581 -240 q 485 -292 526 -292 m 606 843 l 485 949 l 364 843 l 206 843 l 389 1043 l 581 1043 l 764 843 l 606 843 z "},"ầ":{"ha":958,"x_min":44,"x_max":890,"o":"m 858 747 l 858 0 l 651 0 l 651 86 q 418 -11 571 -11 q 227 36 313 -11 q 93 171 142 83 q 44 374 44 258 q 93 576 44 489 q 227 711 142 664 q 418 758 313 758 q 642 668 561 758 l 642 747 l 858 747 m 456 167 q 592 223 538 167 q 646 374 646 279 q 592 524 646 468 q 456 581 538 581 q 318 524 372 581 q 264 374 264 468 q 318 223 264 279 q 456 167 372 167 m 604 843 l 485 922 l 365 843 l 206 843 l 390 1001 l 579 1001 l 764 843 l 604 843 m 517 1144 l 738 1144 l 890 976 l 735 976 l 517 1144 z "},"ẩ":{"ha":958,"x_min":44,"x_max":858,"o":"m 858 747 l 858 0 l 651 0 l 651 86 q 418 -11 571 -11 q 227 36 313 -11 q 93 171 142 83 q 44 374 44 258 q 93 576 44 489 q 227 711 142 664 q 418 758 313 758 q 642 668 561 758 l 642 747 l 858 747 m 456 167 q 592 223 538 167 q 646 374 646 279 q 592 524 646 468 q 456 581 538 581 q 318 524 372 581 q 264 374 264 468 q 318 223 264 279 q 456 167 372 167 m 604 843 l 485 922 l 365 843 l 206 843 l 390 1001 l 579 1001 l 764 843 l 604 843 m 679 1001 q 731 1060 731 1026 q 717 1089 731 1078 q 683 1100 704 1100 q 622 1083 654 1100 l 586 1150 q 701 1181 633 1181 q 794 1151 760 1181 q 829 1071 829 1121 q 802 999 829 1031 q 732 950 775 967 l 679 1001 z "},"ẫ":{"ha":958,"x_min":44,"x_max":858,"o":"m 858 747 l 858 0 l 651 0 l 651 86 q 418 -11 571 -11 q 227 36 313 -11 q 93 171 142 83 q 44 374 44 258 q 93 576 44 489 q 227 711 142 664 q 418 758 313 758 q 642 668 561 758 l 642 747 l 858 747 m 456 167 q 592 223 538 167 q 646 374 646 279 q 592 524 646 468 q 456 581 538 581 q 318 524 372 581 q 264 374 264 468 q 318 223 264 279 q 456 167 372 167 m 604 843 l 485 922 l 365 843 l 206 843 l 390 1001 l 579 1001 l 764 843 l 604 843 m 588 1050 q 521 1062 550 1050 q 457 1096 492 1074 q 424 1114 440 1106 q 396 1122 408 1122 q 353 1106 368 1122 q 335 1058 338 1089 l 224 1058 q 267 1187 225 1142 q 385 1232 310 1232 q 447 1221 421 1232 q 511 1188 472 1210 q 548 1167 533 1174 q 576 1160 563 1160 q 619 1177 604 1160 q 638 1222 635 1194 l 746 1222 q 703 1096 744 1142 q 588 1050 661 1050 z "},"ȁ":{"ha":958,"x_min":44,"x_max":858,"o":"m 858 747 l 858 0 l 651 0 l 651 86 q 418 -11 571 -11 q 227 36 313 -11 q 93 171 142 83 q 44 374 44 258 q 93 576 44 489 q 227 711 142 664 q 418 758 313 758 q 642 668 561 758 l 642 747 l 858 747 m 456 167 q 592 223 538 167 q 646 374 646 279 q 592 524 646 468 q 456 581 538 581 q 318 524 372 581 q 264 374 264 468 q 318 223 264 279 q 456 167 372 167 m 121 1043 l 324 1043 l 424 843 l 265 843 l 121 1043 m 401 1043 l 604 1043 l 704 843 l 546 843 l 401 1043 z "},"ä":{"ha":958,"x_min":44,"x_max":858,"o":"m 858 747 l 858 0 l 651 0 l 651 86 q 418 -11 571 -11 q 227 36 313 -11 q 93 171 142 83 q 44 374 44 258 q 93 576 44 489 q 227 711 142 664 q 418 758 313 758 q 642 668 561 758 l 642 747 l 858 747 m 456 167 q 592 223 538 167 q 646 374 646 279 q 592 524 646 468 q 456 581 538 581 q 318 524 372 581 q 264 374 264 468 q 318 223 264 279 q 456 167 372 167 m 344 850 q 275 877 303 850 q 247 946 247 904 q 275 1015 247 988 q 344 1042 303 1042 q 413 1015 386 1042 q 440 946 440 988 q 413 877 440 904 q 344 850 386 850 m 625 850 q 556 877 583 850 q 529 946 529 904 q 556 1015 529 988 q 625 1042 583 1042 q 694 1015 667 1042 q 722 946 722 988 q 694 877 722 904 q 625 850 667 850 z "},"ạ":{"ha":958,"x_min":44,"x_max":858,"o":"m 858 747 l 858 0 l 651 0 l 651 86 q 418 -11 571 -11 q 227 36 313 -11 q 93 171 142 83 q 44 374 44 258 q 93 576 44 489 q 227 711 142 664 q 418 758 313 758 q 642 668 561 758 l 642 747 l 858 747 m 456 167 q 592 223 538 167 q 646 374 646 279 q 592 524 646 468 q 456 581 538 581 q 318 524 372 581 q 264 374 264 468 q 318 223 264 279 q 456 167 372 167 m 485 -292 q 416 -266 443 -292 q 389 -199 389 -240 q 416 -129 389 -157 q 485 -101 443 -101 q 553 -129 525 -101 q 581 -199 581 -157 q 553 -266 581 -240 q 485 -292 526 -292 z "},"à":{"ha":958,"x_min":44,"x_max":858,"o":"m 858 747 l 858 0 l 651 0 l 651 86 q 418 -11 571 -11 q 227 36 313 -11 q 93 171 142 83 q 44 374 44 258 q 93 576 44 489 q 227 711 142 664 q 418 758 313 758 q 642 668 561 758 l 642 747 l 858 747 m 456 167 q 592 223 538 167 q 646 374 646 279 q 592 524 646 468 q 456 581 538 581 q 318 524 372 581 q 264 374 264 468 q 318 223 264 279 q 456 167 372 167 m 190 1043 l 424 1043 l 611 843 l 442 843 l 190 1043 z "},"ả":{"ha":958,"x_min":44,"x_max":858,"o":"m 858 747 l 858 0 l 651 0 l 651 86 q 418 -11 571 -11 q 227 36 313 -11 q 93 171 142 83 q 44 374 44 258 q 93 576 44 489 q 227 711 142 664 q 418 758 313 758 q 642 668 561 758 l 642 747 l 858 747 m 456 167 q 592 223 538 167 q 646 374 646 279 q 592 524 646 468 q 456 581 538 581 q 318 524 372 581 q 264 374 264 468 q 318 223 264 279 q 456 167 372 167 m 458 901 q 513 940 497 919 q 529 986 529 961 q 511 1028 529 1013 q 464 1044 493 1044 q 382 1018 422 1044 l 338 1106 q 488 1153 397 1153 q 608 1112 561 1153 q 654 1004 654 1071 q 526 829 654 888 l 458 901 z "},"ȃ":{"ha":958,"x_min":44,"x_max":858,"o":"m 858 747 l 858 0 l 651 0 l 651 86 q 418 -11 571 -11 q 227 36 313 -11 q 93 171 142 83 q 44 374 44 258 q 93 576 44 489 q 227 711 142 664 q 418 758 313 758 q 642 668 561 758 l 642 747 l 858 747 m 456 167 q 592 223 538 167 q 646 374 646 279 q 592 524 646 468 q 456 581 538 581 q 318 524 372 581 q 264 374 264 468 q 318 223 264 279 q 456 167 372 167 m 229 843 q 304 997 233 940 q 485 1054 375 1054 q 665 997 594 1054 q 740 843 736 940 l 604 843 q 569 915 603 888 q 485 942 535 942 q 401 915 435 942 q 365 843 367 888 l 229 843 z "},"ā":{"ha":958,"x_min":44,"x_max":858,"o":"m 858 747 l 858 0 l 651 0 l 651 86 q 418 -11 571 -11 q 227 36 313 -11 q 93 171 142 83 q 44 374 44 258 q 93 576 44 489 q 227 711 142 664 q 418 758 313 758 q 642 668 561 758 l 642 747 l 858 747 m 456 167 q 592 223 538 167 q 646 374 646 279 q 592 524 646 468 q 456 581 538 581 q 318 524 372 581 q 264 374 264 468 q 318 223 264 279 q 456 167 372 167 m 228 1004 l 742 1004 l 742 882 l 228 882 l 228 1004 z "},"ą":{"ha":958,"x_min":44,"x_max":890,"o":"m 858 747 l 858 0 l 651 0 l 651 86 q 418 -11 571 -11 q 227 36 313 -11 q 93 171 142 83 q 44 374 44 258 q 93 576 44 489 q 227 711 142 664 q 418 758 313 758 q 642 668 561 758 l 642 747 l 858 747 m 456 167 q 592 223 538 167 q 646 374 646 279 q 592 524 646 468 q 456 581 538 581 q 318 524 372 581 q 264 374 264 468 q 318 223 264 279 q 456 167 372 167 m 750 -322 q 610 -280 661 -322 q 558 -167 558 -237 q 612 -40 558 -99 q 772 57 665 18 l 858 0 q 733 -74 771 -39 q 696 -149 696 -110 q 717 -195 696 -178 q 775 -212 739 -212 q 860 -192 822 -212 l 890 -290 q 826 -313 864 -304 q 750 -322 789 -322 z "},"å":{"ha":958,"x_min":44,"x_max":858,"o":"m 858 747 l 858 0 l 651 0 l 651 86 q 418 -11 571 -11 q 227 36 313 -11 q 93 171 142 83 q 44 374 44 258 q 93 576 44 489 q 227 711 142 664 q 418 758 313 758 q 642 668 561 758 l 642 747 l 858 747 m 456 167 q 592 223 538 167 q 646 374 646 279 q 592 524 646 468 q 456 581 538 581 q 318 524 372 581 q 264 374 264 468 q 318 223 264 279 q 456 167 372 167 m 483 822 q 362 871 411 822 q 313 990 313 919 q 362 1110 313 1061 q 483 1158 411 1158 q 607 1110 557 1158 q 657 990 657 1061 q 607 871 657 919 q 483 822 557 822 m 483 906 q 544 930 519 906 q 568 990 568 954 q 544 1051 568 1026 q 483 1075 519 1075 q 424 1051 449 1075 q 400 990 400 1026 q 424 930 400 954 q 483 906 447 906 z "},"ǻ":{"ha":958,"x_min":44,"x_max":858,"o":"m 858 747 l 858 0 l 651 0 l 651 86 q 418 -11 571 -11 q 227 36 313 -11 q 93 171 142 83 q 44 374 44 258 q 93 576 44 489 q 227 711 142 664 q 418 758 313 758 q 642 668 561 758 l 642 747 l 858 747 m 456 167 q 592 223 538 167 q 646 374 646 279 q 592 524 646 468 q 456 581 538 581 q 318 524 372 581 q 264 374 264 468 q 318 223 264 279 q 456 167 372 167 m 633 1078 q 657 990 657 1038 q 607 871 657 919 q 483 822 557 822 q 362 871 411 822 q 313 990 313 919 q 362 1110 313 1061 q 483 1158 411 1158 q 556 1144 518 1158 l 676 1269 l 783 1186 l 633 1078 m 483 906 q 544 930 519 906 q 568 990 568 954 q 544 1051 568 1026 q 483 1075 519 1075 q 424 1051 449 1075 q 400 990 400 1026 q 424 930 400 954 q 483 906 447 906 z "},"ã":{"ha":958,"x_min":44,"x_max":858,"o":"m 858 747 l 858 0 l 651 0 l 651 86 q 418 -11 571 -11 q 227 36 313 -11 q 93 171 142 83 q 44 374 44 258 q 93 576 44 489 q 227 711 142 664 q 418 758 313 758 q 642 668 561 758 l 642 747 l 858 747 m 456 167 q 592 223 538 167 q 646 374 646 279 q 592 524 646 468 q 456 581 538 581 q 318 524 372 581 q 264 374 264 468 q 318 223 264 279 q 456 167 372 167 m 589 839 q 523 853 551 839 q 460 893 494 868 q 423 918 438 910 q 394 926 408 926 q 347 906 365 926 q 328 849 329 886 l 218 849 q 265 997 221 942 q 381 1051 308 1051 q 445 1037 417 1051 q 510 996 474 1022 q 547 971 532 979 q 575 963 561 963 q 622 983 603 963 q 642 1038 640 1003 l 751 1038 q 705 893 749 947 q 589 839 661 839 z "},"æ":{"ha":1382,"x_min":51,"x_max":1338,"o":"m 985 163 q 1083 180 1039 163 q 1168 235 1126 197 l 1285 110 q 979 -11 1176 -11 q 797 21 881 -11 q 653 119 713 53 q 365 -11 568 -11 q 135 53 219 -11 q 51 224 51 117 q 131 381 51 321 q 372 440 210 440 l 544 440 q 502 548 544 510 q 374 586 460 586 q 256 567 314 586 q 157 517 197 549 l 79 668 q 225 735 140 711 q 400 758 310 758 q 675 653 589 758 q 800 731 728 703 q 953 758 872 758 q 1145 713 1058 758 q 1284 582 1232 668 q 1338 379 1336 496 l 782 272 q 860 191 807 219 q 985 163 913 163 m 950 594 q 815 540 868 594 q 761 399 761 486 l 761 397 l 1125 467 q 1062 560 1108 525 q 950 594 1015 594 m 388 135 q 503 174 461 135 q 544 279 544 213 l 544 314 l 396 314 q 263 228 263 314 q 295 159 263 183 q 388 135 328 135 z "},"ǽ":{"ha":1382,"x_min":51,"x_max":1338,"o":"m 985 163 q 1083 180 1039 163 q 1168 235 1126 197 l 1285 110 q 979 -11 1176 -11 q 797 21 881 -11 q 653 119 713 53 q 365 -11 568 -11 q 135 53 219 -11 q 51 224 51 117 q 131 381 51 321 q 372 440 210 440 l 544 440 q 502 548 544 510 q 374 586 460 586 q 256 567 314 586 q 157 517 197 549 l 79 668 q 225 735 140 711 q 400 758 310 758 q 675 653 589 758 q 800 731 728 703 q 953 758 872 758 q 1145 713 1058 758 q 1284 582 1232 668 q 1338 379 1336 496 l 782 272 q 860 191 807 219 q 985 163 913 163 m 950 594 q 815 540 868 594 q 761 399 761 486 l 761 397 l 1125 467 q 1062 560 1108 525 q 950 594 1015 594 m 388 135 q 503 174 461 135 q 544 279 544 213 l 544 314 l 396 314 q 263 228 263 314 q 295 159 263 183 q 388 135 328 135 m 731 1043 l 964 1043 l 713 843 l 543 843 l 731 1043 z "},"b":{"ha":958,"x_min":100,"x_max":914,"o":"m 542 758 q 731 710 646 758 q 865 576 817 663 q 914 374 914 489 q 865 172 914 258 q 731 37 817 85 q 542 -11 646 -11 q 307 86 388 -11 l 307 0 l 100 0 l 100 1031 l 317 1031 l 317 668 q 542 758 399 758 m 504 167 q 641 223 588 167 q 694 374 694 279 q 641 524 694 468 q 504 581 588 581 q 367 524 421 581 q 314 374 314 468 q 367 223 314 279 q 504 167 421 167 z "},"c":{"ha":821,"x_min":44,"x_max":796,"o":"m 461 -11 q 247 38 342 -11 q 98 175 151 88 q 44 374 44 263 q 98 572 44 485 q 247 709 151 660 q 461 758 342 758 q 667 709 579 758 q 796 568 756 660 l 628 478 q 460 581 569 581 q 319 525 375 581 q 264 374 264 469 q 319 222 264 278 q 460 167 375 167 q 628 269 571 167 l 796 178 q 667 39 756 89 q 461 -11 579 -11 z "},"ć":{"ha":821,"x_min":44,"x_max":796,"o":"m 461 -11 q 247 38 342 -11 q 98 175 151 88 q 44 374 44 263 q 98 572 44 485 q 247 709 151 660 q 461 758 342 758 q 667 709 579 758 q 796 568 756 660 l 628 478 q 460 581 569 581 q 319 525 375 581 q 264 374 264 469 q 319 222 264 278 q 460 167 375 167 q 628 269 571 167 l 796 178 q 667 39 756 89 q 461 -11 579 -11 m 496 1043 l 729 1043 l 478 843 l 308 843 l 496 1043 z "},"č":{"ha":821,"x_min":44,"x_max":796,"o":"m 461 -11 q 247 38 342 -11 q 98 175 151 88 q 44 374 44 263 q 98 572 44 485 q 247 709 151 660 q 461 758 342 758 q 667 709 579 758 q 796 568 756 660 l 628 478 q 460 581 569 581 q 319 525 375 581 q 264 374 264 469 q 319 222 264 278 q 460 167 375 167 q 628 269 571 167 l 796 178 q 667 39 756 89 q 461 -11 579 -11 m 714 1043 l 531 843 l 339 843 l 156 1043 l 314 1043 l 435 939 l 556 1043 l 714 1043 z "},"ç":{"ha":821,"x_min":44,"x_max":796,"o":"m 461 -11 q 247 38 342 -11 q 98 175 151 88 q 44 374 44 263 q 98 572 44 485 q 247 709 151 660 q 461 758 342 758 q 667 709 579 758 q 796 568 756 660 l 628 478 q 460 581 569 581 q 319 525 375 581 q 264 374 264 469 q 319 222 264 278 q 460 167 375 167 q 628 269 571 167 l 796 178 q 667 39 756 89 q 461 -11 579 -11 m 382 -322 q 311 -315 346 -322 q 253 -293 276 -307 l 286 -200 q 376 -221 331 -221 q 449 -176 449 -221 q 381 -136 449 -136 l 333 -136 l 369 11 l 485 11 l 465 -69 q 556 -108 526 -76 q 586 -185 586 -139 q 531 -285 586 -249 q 382 -322 475 -322 z "},"ḉ":{"ha":821,"x_min":44,"x_max":796,"o":"m 461 -11 q 247 38 342 -11 q 98 175 151 88 q 44 374 44 263 q 98 572 44 485 q 247 709 151 660 q 461 758 342 758 q 667 709 579 758 q 796 568 756 660 l 628 478 q 460 581 569 581 q 319 525 375 581 q 264 374 264 469 q 319 222 264 278 q 460 167 375 167 q 628 269 571 167 l 796 178 q 667 39 756 89 q 461 -11 579 -11 m 382 -322 q 311 -315 346 -322 q 253 -293 276 -307 l 286 -200 q 376 -221 331 -221 q 449 -176 449 -221 q 381 -136 449 -136 l 333 -136 l 369 11 l 485 11 l 465 -69 q 556 -108 526 -76 q 586 -185 586 -139 q 531 -285 586 -249 q 382 -322 475 -322 m 496 1043 l 729 1043 l 478 843 l 308 843 l 496 1043 z "},"ĉ":{"ha":821,"x_min":44,"x_max":796,"o":"m 461 -11 q 247 38 342 -11 q 98 175 151 88 q 44 374 44 263 q 98 572 44 485 q 247 709 151 660 q 461 758 342 758 q 667 709 579 758 q 796 568 756 660 l 628 478 q 460 581 569 581 q 319 525 375 581 q 264 374 264 469 q 319 222 264 278 q 460 167 375 167 q 628 269 571 167 l 796 178 q 667 39 756 89 q 461 -11 579 -11 m 556 843 l 435 949 l 314 843 l 156 843 l 339 1043 l 531 1043 l 714 843 l 556 843 z "},"ċ":{"ha":821,"x_min":44,"x_max":796,"o":"m 461 -11 q 247 38 342 -11 q 98 175 151 88 q 44 374 44 263 q 98 572 44 485 q 247 709 151 660 q 461 758 342 758 q 667 709 579 758 q 796 568 756 660 l 628 478 q 460 581 569 581 q 319 525 375 581 q 264 374 264 469 q 319 222 264 278 q 460 167 375 167 q 628 269 571 167 l 796 178 q 667 39 756 89 q 461 -11 579 -11 m 435 850 q 351 883 383 850 q 318 968 318 917 q 351 1051 318 1018 q 435 1085 383 1085 q 519 1051 486 1085 q 551 968 551 1018 q 519 883 551 917 q 435 850 486 850 z "},"d":{"ha":961,"x_min":47,"x_max":861,"o":"m 861 1031 l 861 0 l 654 0 l 654 86 q 421 -11 574 -11 q 230 36 315 -11 q 96 171 144 83 q 47 374 47 258 q 96 576 47 489 q 230 711 144 664 q 421 758 315 758 q 644 668 564 758 l 644 1031 l 861 1031 m 458 167 q 594 223 540 167 q 649 374 649 279 q 594 524 649 468 q 458 581 540 581 q 321 524 375 581 q 267 374 267 468 q 321 223 267 279 q 458 167 375 167 z "},"ð":{"ha":913,"x_min":44,"x_max":867,"o":"m 756 853 q 867 475 867 711 q 813 212 867 322 q 658 42 758 101 q 419 -17 557 -17 q 228 24 314 -17 q 94 138 143 64 q 44 307 44 211 q 91 471 44 400 q 218 581 138 542 q 397 619 299 619 q 642 519 557 619 l 642 522 q 561 778 642 690 l 210 643 l 165 753 l 425 853 q 329 863 385 863 q 142 833 229 863 l 115 1001 q 338 1029 224 1029 q 660 942 531 1029 l 785 990 l 829 881 l 756 853 m 436 151 q 565 194 515 151 q 614 301 614 238 q 565 409 614 367 q 440 451 515 451 q 313 411 360 451 q 265 301 265 371 q 313 192 265 233 q 436 151 360 151 z "},"ď":{"ha":961,"x_min":47,"x_max":1138,"o":"m 861 1031 l 861 0 l 654 0 l 654 86 q 421 -11 574 -11 q 230 36 315 -11 q 96 171 144 83 q 47 374 47 258 q 96 576 47 489 q 230 711 144 664 q 421 758 315 758 q 644 668 564 758 l 644 1031 l 861 1031 m 458 167 q 594 223 540 167 q 649 374 649 279 q 594 524 649 468 q 458 581 540 581 q 321 524 375 581 q 267 374 267 468 q 321 223 267 279 q 458 167 375 167 m 975 1088 l 1138 1088 l 1110 808 l 975 808 l 975 1088 z "},"đ":{"ha":961,"x_min":47,"x_max":963,"o":"m 861 1031 l 861 0 l 654 0 l 654 86 q 421 -11 574 -11 q 230 36 315 -11 q 96 171 144 83 q 47 374 47 258 q 96 576 47 489 q 230 711 144 664 q 421 758 315 758 q 644 668 564 758 l 644 1031 l 861 1031 m 458 167 q 594 223 540 167 q 649 374 649 279 q 594 524 649 468 q 458 581 540 581 q 321 524 375 581 q 267 374 267 468 q 321 223 267 279 q 458 167 375 167 m 390 949 l 963 949 l 963 824 l 390 824 l 390 949 z "},"ḍ":{"ha":961,"x_min":47,"x_max":861,"o":"m 861 1031 l 861 0 l 654 0 l 654 86 q 421 -11 574 -11 q 230 36 315 -11 q 96 171 144 83 q 47 374 47 258 q 96 576 47 489 q 230 711 144 664 q 421 758 315 758 q 644 668 564 758 l 644 1031 l 861 1031 m 458 167 q 594 223 540 167 q 649 374 649 279 q 594 524 649 468 q 458 581 540 581 q 321 524 375 581 q 267 374 267 468 q 321 223 267 279 q 458 167 375 167 m 504 -292 q 435 -266 463 -292 q 408 -199 408 -240 q 435 -129 408 -157 q 504 -101 463 -101 q 572 -129 544 -101 q 600 -199 600 -157 q 573 -266 600 -240 q 504 -292 546 -292 z "},"ḏ":{"ha":961,"x_min":47,"x_max":861,"o":"m 861 1031 l 861 0 l 654 0 l 654 86 q 421 -11 574 -11 q 230 36 315 -11 q 96 171 144 83 q 47 374 47 258 q 96 576 47 489 q 230 711 144 664 q 421 758 315 758 q 644 668 564 758 l 644 1031 l 861 1031 m 458 167 q 594 223 540 167 q 649 374 649 279 q 594 524 649 468 q 458 581 540 581 q 321 524 375 581 q 267 374 267 468 q 321 223 267 279 q 458 167 375 167 m 247 -132 l 761 -132 l 761 -253 l 247 -253 l 247 -132 z "},"ǆ":{"ha":1729,"x_min":47,"x_max":1683,"o":"m 861 1031 l 861 0 l 654 0 l 654 86 q 421 -11 574 -11 q 230 36 315 -11 q 96 171 144 83 q 47 374 47 258 q 96 576 47 489 q 230 711 144 664 q 421 758 315 758 q 644 668 564 758 l 644 1031 l 861 1031 m 458 167 q 594 223 540 167 q 649 374 649 279 q 594 524 649 468 q 458 581 540 581 q 321 524 375 581 q 267 374 267 468 q 321 223 267 279 q 458 167 375 167 m 1683 167 l 1683 0 l 1017 0 l 1017 131 l 1165 306 l 1064 306 l 1064 450 l 1288 450 l 1397 581 l 1026 581 l 1026 747 l 1671 747 l 1671 617 l 1529 449 l 1635 449 l 1635 304 l 1407 304 l 1290 167 l 1683 167 m 1624 1043 l 1440 843 l 1249 843 l 1065 1043 l 1224 1043 l 1344 939 l 1465 1043 l 1624 1043 z "},"e":{"ha":876,"x_min":44,"x_max":831,"o":"m 476 163 q 580 180 535 163 q 664 235 625 197 l 779 110 q 471 -11 674 -11 q 247 38 344 -11 q 97 175 150 88 q 44 374 44 263 q 97 572 44 483 q 240 709 149 660 q 444 758 331 758 q 639 713 551 758 q 778 583 726 668 q 831 381 831 497 l 278 274 q 352 190 301 218 q 476 163 403 163 m 444 594 q 311 542 363 594 q 257 396 260 489 l 621 467 q 558 560 606 525 q 444 594 511 594 z "},"é":{"ha":876,"x_min":44,"x_max":831,"o":"m 476 163 q 580 180 535 163 q 664 235 625 197 l 779 110 q 471 -11 674 -11 q 247 38 344 -11 q 97 175 150 88 q 44 374 44 263 q 97 572 44 483 q 240 709 149 660 q 444 758 331 758 q 639 713 551 758 q 778 583 726 668 q 831 381 831 497 l 278 274 q 352 190 301 218 q 476 163 403 163 m 444 594 q 311 542 363 594 q 257 396 260 489 l 621 467 q 558 560 606 525 q 444 594 511 594 m 501 1043 l 735 1043 l 483 843 l 314 843 l 501 1043 z "},"ĕ":{"ha":876,"x_min":44,"x_max":831,"o":"m 476 163 q 580 180 535 163 q 664 235 625 197 l 779 110 q 471 -11 674 -11 q 247 38 344 -11 q 97 175 150 88 q 44 374 44 263 q 97 572 44 483 q 240 709 149 660 q 444 758 331 758 q 639 713 551 758 q 778 583 726 668 q 831 381 831 497 l 278 274 q 352 190 301 218 q 476 163 403 163 m 444 594 q 311 542 363 594 q 257 396 260 489 l 621 467 q 558 560 606 525 q 444 594 511 594 m 440 832 q 260 889 331 832 q 185 1043 189 946 l 321 1043 q 356 972 322 999 q 440 944 390 944 q 524 972 490 944 q 560 1043 558 999 l 696 1043 q 621 889 692 946 q 440 832 550 832 z "},"ě":{"ha":876,"x_min":44,"x_max":831,"o":"m 476 163 q 580 180 535 163 q 664 235 625 197 l 779 110 q 471 -11 674 -11 q 247 38 344 -11 q 97 175 150 88 q 44 374 44 263 q 97 572 44 483 q 240 709 149 660 q 444 758 331 758 q 639 713 551 758 q 778 583 726 668 q 831 381 831 497 l 278 274 q 352 190 301 218 q 476 163 403 163 m 444 594 q 311 542 363 594 q 257 396 260 489 l 621 467 q 558 560 606 525 q 444 594 511 594 m 719 1043 l 536 843 l 344 843 l 161 1043 l 319 1043 l 440 939 l 561 1043 l 719 1043 z "},"ḝ":{"ha":876,"x_min":44,"x_max":831,"o":"m 476 163 q 580 180 535 163 q 664 235 625 197 l 779 110 q 471 -11 674 -11 q 247 38 344 -11 q 97 175 150 88 q 44 374 44 263 q 97 572 44 483 q 240 709 149 660 q 444 758 331 758 q 639 713 551 758 q 778 583 726 668 q 831 381 831 497 l 278 274 q 352 190 301 218 q 476 163 403 163 m 444 594 q 311 542 363 594 q 257 396 260 489 l 621 467 q 558 560 606 525 q 444 594 511 594 m 394 -322 q 324 -315 358 -322 q 265 -293 289 -307 l 299 -200 q 389 -221 343 -221 q 461 -176 461 -221 q 393 -136 461 -136 l 346 -136 l 382 11 l 497 11 l 478 -69 q 569 -108 539 -76 q 599 -185 599 -139 q 543 -285 599 -249 q 394 -322 488 -322 m 440 832 q 260 889 331 832 q 185 1043 189 946 l 321 1043 q 356 972 322 999 q 440 944 390 944 q 524 972 490 944 q 560 1043 558 999 l 696 1043 q 621 889 692 946 q 440 832 550 832 z "},"ê":{"ha":876,"x_min":44,"x_max":831,"o":"m 476 163 q 580 180 535 163 q 664 235 625 197 l 779 110 q 471 -11 674 -11 q 247 38 344 -11 q 97 175 150 88 q 44 374 44 263 q 97 572 44 483 q 240 709 149 660 q 444 758 331 758 q 639 713 551 758 q 778 583 726 668 q 831 381 831 497 l 278 274 q 352 190 301 218 q 476 163 403 163 m 444 594 q 311 542 363 594 q 257 396 260 489 l 621 467 q 558 560 606 525 q 444 594 511 594 m 561 843 l 440 949 l 319 843 l 161 843 l 344 1043 l 536 1043 l 719 843 l 561 843 z "},"ế":{"ha":876,"x_min":44,"x_max":982,"o":"m 476 163 q 580 180 535 163 q 664 235 625 197 l 779 110 q 471 -11 674 -11 q 247 38 344 -11 q 97 175 150 88 q 44 374 44 263 q 97 572 44 483 q 240 709 149 660 q 444 758 331 758 q 639 713 551 758 q 778 583 726 668 q 831 381 831 497 l 278 274 q 352 190 301 218 q 476 163 403 163 m 444 594 q 311 542 363 594 q 257 396 260 489 l 621 467 q 558 560 606 525 q 444 594 511 594 m 560 843 l 440 922 l 321 843 l 161 843 l 346 1001 l 535 1001 l 719 843 l 560 843 m 761 1144 l 982 1144 l 764 976 l 607 976 l 761 1144 z "},"ệ":{"ha":876,"x_min":44,"x_max":831,"o":"m 476 163 q 580 180 535 163 q 664 235 625 197 l 779 110 q 471 -11 674 -11 q 247 38 344 -11 q 97 175 150 88 q 44 374 44 263 q 97 572 44 483 q 240 709 149 660 q 444 758 331 758 q 639 713 551 758 q 778 583 726 668 q 831 381 831 497 l 278 274 q 352 190 301 218 q 476 163 403 163 m 444 594 q 311 542 363 594 q 257 396 260 489 l 621 467 q 558 560 606 525 q 444 594 511 594 m 440 -292 q 372 -266 399 -292 q 344 -199 344 -240 q 372 -129 344 -157 q 440 -101 399 -101 q 508 -129 481 -101 q 536 -199 536 -157 q 509 -266 536 -240 q 440 -292 482 -292 m 561 843 l 440 949 l 319 843 l 161 843 l 344 1043 l 536 1043 l 719 843 l 561 843 z "},"ề":{"ha":876,"x_min":44,"x_max":846,"o":"m 476 163 q 580 180 535 163 q 664 235 625 197 l 779 110 q 471 -11 674 -11 q 247 38 344 -11 q 97 175 150 88 q 44 374 44 263 q 97 572 44 483 q 240 709 149 660 q 444 758 331 758 q 639 713 551 758 q 778 583 726 668 q 831 381 831 497 l 278 274 q 352 190 301 218 q 476 163 403 163 m 444 594 q 311 542 363 594 q 257 396 260 489 l 621 467 q 558 560 606 525 q 444 594 511 594 m 560 843 l 440 922 l 321 843 l 161 843 l 346 1001 l 535 1001 l 719 843 l 560 843 m 472 1144 l 693 1144 l 846 976 l 690 976 l 472 1144 z "},"ể":{"ha":876,"x_min":44,"x_max":831,"o":"m 476 163 q 580 180 535 163 q 664 235 625 197 l 779 110 q 471 -11 674 -11 q 247 38 344 -11 q 97 175 150 88 q 44 374 44 263 q 97 572 44 483 q 240 709 149 660 q 444 758 331 758 q 639 713 551 758 q 778 583 726 668 q 831 381 831 497 l 278 274 q 352 190 301 218 q 476 163 403 163 m 444 594 q 311 542 363 594 q 257 396 260 489 l 621 467 q 558 560 606 525 q 444 594 511 594 m 560 843 l 440 922 l 321 843 l 161 843 l 346 1001 l 535 1001 l 719 843 l 560 843 m 635 1001 q 686 1060 686 1026 q 673 1089 686 1078 q 639 1100 660 1100 q 578 1083 610 1100 l 542 1150 q 657 1181 589 1181 q 750 1151 715 1181 q 785 1071 785 1121 q 758 999 785 1031 q 688 950 731 967 l 635 1001 z "},"ễ":{"ha":876,"x_min":44,"x_max":831,"o":"m 476 163 q 580 180 535 163 q 664 235 625 197 l 779 110 q 471 -11 674 -11 q 247 38 344 -11 q 97 175 150 88 q 44 374 44 263 q 97 572 44 483 q 240 709 149 660 q 444 758 331 758 q 639 713 551 758 q 778 583 726 668 q 831 381 831 497 l 278 274 q 352 190 301 218 q 476 163 403 163 m 444 594 q 311 542 363 594 q 257 396 260 489 l 621 467 q 558 560 606 525 q 444 594 511 594 m 560 843 l 440 922 l 321 843 l 161 843 l 346 1001 l 535 1001 l 719 843 l 560 843 m 543 1050 q 476 1062 506 1050 q 413 1096 447 1074 q 380 1114 396 1106 q 351 1122 364 1122 q 308 1106 324 1122 q 290 1058 293 1089 l 179 1058 q 223 1187 181 1142 q 340 1232 265 1232 q 402 1221 376 1232 q 467 1188 428 1210 q 503 1167 489 1174 q 532 1160 518 1160 q 575 1177 560 1160 q 593 1222 590 1194 l 701 1222 q 658 1096 700 1142 q 543 1050 617 1050 z "},"ȅ":{"ha":876,"x_min":44,"x_max":831,"o":"m 476 163 q 580 180 535 163 q 664 235 625 197 l 779 110 q 471 -11 674 -11 q 247 38 344 -11 q 97 175 150 88 q 44 374 44 263 q 97 572 44 483 q 240 709 149 660 q 444 758 331 758 q 639 713 551 758 q 778 583 726 668 q 831 381 831 497 l 278 274 q 352 190 301 218 q 476 163 403 163 m 444 594 q 311 542 363 594 q 257 396 260 489 l 621 467 q 558 560 606 525 q 444 594 511 594 m 76 1043 l 279 1043 l 379 843 l 221 843 l 76 1043 m 357 1043 l 560 1043 l 660 843 l 501 843 l 357 1043 z "},"ë":{"ha":876,"x_min":44,"x_max":831,"o":"m 476 163 q 580 180 535 163 q 664 235 625 197 l 779 110 q 471 -11 674 -11 q 247 38 344 -11 q 97 175 150 88 q 44 374 44 263 q 97 572 44 483 q 240 709 149 660 q 444 758 331 758 q 639 713 551 758 q 778 583 726 668 q 831 381 831 497 l 278 274 q 352 190 301 218 q 476 163 403 163 m 444 594 q 311 542 363 594 q 257 396 260 489 l 621 467 q 558 560 606 525 q 444 594 511 594 m 300 850 q 231 877 258 850 q 203 946 203 904 q 231 1015 203 988 q 300 1042 258 1042 q 369 1015 342 1042 q 396 946 396 988 q 369 877 396 904 q 300 850 342 850 m 581 850 q 512 877 539 850 q 485 946 485 904 q 512 1015 485 988 q 581 1042 539 1042 q 650 1015 622 1042 q 678 946 678 988 q 650 877 678 904 q 581 850 622 850 z "},"ė":{"ha":876,"x_min":44,"x_max":831,"o":"m 476 163 q 580 180 535 163 q 664 235 625 197 l 779 110 q 471 -11 674 -11 q 247 38 344 -11 q 97 175 150 88 q 44 374 44 263 q 97 572 44 483 q 240 709 149 660 q 444 758 331 758 q 639 713 551 758 q 778 583 726 668 q 831 381 831 497 l 278 274 q 352 190 301 218 q 476 163 403 163 m 444 594 q 311 542 363 594 q 257 396 260 489 l 621 467 q 558 560 606 525 q 444 594 511 594 m 440 850 q 356 883 389 850 q 324 968 324 917 q 356 1051 324 1018 q 440 1085 389 1085 q 524 1051 492 1085 q 557 968 557 1018 q 524 883 557 917 q 440 850 492 850 z "},"ẹ":{"ha":876,"x_min":44,"x_max":831,"o":"m 476 163 q 580 180 535 163 q 664 235 625 197 l 779 110 q 471 -11 674 -11 q 247 38 344 -11 q 97 175 150 88 q 44 374 44 263 q 97 572 44 483 q 240 709 149 660 q 444 758 331 758 q 639 713 551 758 q 778 583 726 668 q 831 381 831 497 l 278 274 q 352 190 301 218 q 476 163 403 163 m 444 594 q 311 542 363 594 q 257 396 260 489 l 621 467 q 558 560 606 525 q 444 594 511 594 m 440 -292 q 372 -266 399 -292 q 344 -199 344 -240 q 372 -129 344 -157 q 440 -101 399 -101 q 508 -129 481 -101 q 536 -199 536 -157 q 509 -266 536 -240 q 440 -292 482 -292 z "},"è":{"ha":876,"x_min":44,"x_max":831,"o":"m 476 163 q 580 180 535 163 q 664 235 625 197 l 779 110 q 471 -11 674 -11 q 247 38 344 -11 q 97 175 150 88 q 44 374 44 263 q 97 572 44 483 q 240 709 149 660 q 444 758 331 758 q 639 713 551 758 q 778 583 726 668 q 831 381 831 497 l 278 274 q 352 190 301 218 q 476 163 403 163 m 444 594 q 311 542 363 594 q 257 396 260 489 l 621 467 q 558 560 606 525 q 444 594 511 594 m 146 1043 l 379 1043 l 567 843 l 397 843 l 146 1043 z "},"ẻ":{"ha":876,"x_min":44,"x_max":831,"o":"m 476 163 q 580 180 535 163 q 664 235 625 197 l 779 110 q 471 -11 674 -11 q 247 38 344 -11 q 97 175 150 88 q 44 374 44 263 q 97 572 44 483 q 240 709 149 660 q 444 758 331 758 q 639 713 551 758 q 778 583 726 668 q 831 381 831 497 l 278 274 q 352 190 301 218 q 476 163 403 163 m 444 594 q 311 542 363 594 q 257 396 260 489 l 621 467 q 558 560 606 525 q 444 594 511 594 m 414 901 q 469 940 453 919 q 485 986 485 961 q 467 1028 485 1013 q 419 1044 449 1044 q 338 1018 378 1044 l 293 1106 q 443 1153 353 1153 q 563 1112 517 1153 q 610 1004 610 1071 q 482 829 610 888 l 414 901 z "},"ȇ":{"ha":876,"x_min":44,"x_max":831,"o":"m 476 163 q 580 180 535 163 q 664 235 625 197 l 779 110 q 471 -11 674 -11 q 247 38 344 -11 q 97 175 150 88 q 44 374 44 263 q 97 572 44 483 q 240 709 149 660 q 444 758 331 758 q 639 713 551 758 q 778 583 726 668 q 831 381 831 497 l 278 274 q 352 190 301 218 q 476 163 403 163 m 444 594 q 311 542 363 594 q 257 396 260 489 l 621 467 q 558 560 606 525 q 444 594 511 594 m 185 843 q 260 997 189 940 q 440 1054 331 1054 q 621 997 550 1054 q 696 843 692 940 l 560 843 q 524 915 558 888 q 440 942 490 942 q 356 915 390 942 q 321 843 322 888 l 185 843 z "},"ē":{"ha":876,"x_min":44,"x_max":831,"o":"m 476 163 q 580 180 535 163 q 664 235 625 197 l 779 110 q 471 -11 674 -11 q 247 38 344 -11 q 97 175 150 88 q 44 374 44 263 q 97 572 44 483 q 240 709 149 660 q 444 758 331 758 q 639 713 551 758 q 778 583 726 668 q 831 381 831 497 l 278 274 q 352 190 301 218 q 476 163 403 163 m 444 594 q 311 542 363 594 q 257 396 260 489 l 621 467 q 558 560 606 525 q 444 594 511 594 m 183 1004 l 697 1004 l 697 882 l 183 882 l 183 1004 z "},"ḗ":{"ha":876,"x_min":44,"x_max":831,"o":"m 476 163 q 580 180 535 163 q 664 235 625 197 l 779 110 q 471 -11 674 -11 q 247 38 344 -11 q 97 175 150 88 q 44 374 44 263 q 97 572 44 483 q 240 709 149 660 q 444 758 331 758 q 639 713 551 758 q 778 583 726 668 q 831 381 831 497 l 278 274 q 352 190 301 218 q 476 163 403 163 m 444 594 q 311 542 363 594 q 257 396 260 489 l 621 467 q 558 560 606 525 q 444 594 511 594 m 183 981 l 697 981 l 697 865 l 183 865 l 183 981 m 475 1235 l 696 1235 l 478 1067 l 321 1067 l 475 1235 z "},"ḕ":{"ha":876,"x_min":44,"x_max":831,"o":"m 476 163 q 580 180 535 163 q 664 235 625 197 l 779 110 q 471 -11 674 -11 q 247 38 344 -11 q 97 175 150 88 q 44 374 44 263 q 97 572 44 483 q 240 709 149 660 q 444 758 331 758 q 639 713 551 758 q 778 583 726 668 q 831 381 831 497 l 278 274 q 352 190 301 218 q 476 163 403 163 m 444 594 q 311 542 363 594 q 257 396 260 489 l 621 467 q 558 560 606 525 q 444 594 511 594 m 183 981 l 697 981 l 697 865 l 183 865 l 183 981 m 186 1235 l 407 1235 l 560 1067 l 404 1067 l 186 1235 z "},"ę":{"ha":876,"x_min":44,"x_max":831,"o":"m 476 163 q 580 180 535 163 q 664 235 625 197 l 779 110 q 722 60 751 81 q 602 -52 636 -6 q 568 -143 568 -99 q 590 -194 568 -176 q 649 -212 611 -212 q 731 -192 693 -212 l 763 -290 q 698 -313 736 -304 q 622 -322 660 -322 q 482 -278 533 -322 q 431 -161 431 -235 q 448 -83 431 -122 q 497 -11 465 -43 l 471 -11 q 247 38 344 -11 q 97 175 150 88 q 44 374 44 263 q 97 572 44 483 q 240 709 149 660 q 444 758 331 758 q 639 713 551 758 q 778 583 726 668 q 831 381 831 497 l 278 274 q 352 190 301 218 q 476 163 403 163 m 444 594 q 311 542 363 594 q 257 396 260 489 l 621 467 q 558 560 606 525 q 444 594 511 594 z "},"ẽ":{"ha":876,"x_min":44,"x_max":831,"o":"m 476 163 q 580 180 535 163 q 664 235 625 197 l 779 110 q 471 -11 674 -11 q 247 38 344 -11 q 97 175 150 88 q 44 374 44 263 q 97 572 44 483 q 240 709 149 660 q 444 758 331 758 q 639 713 551 758 q 778 583 726 668 q 831 381 831 497 l 278 274 q 352 190 301 218 q 476 163 403 163 m 444 594 q 311 542 363 594 q 257 396 260 489 l 621 467 q 558 560 606 525 q 444 594 511 594 m 544 839 q 478 853 507 839 q 415 893 450 868 q 378 918 393 910 q 350 926 364 926 q 303 906 321 926 q 283 849 285 886 l 174 849 q 220 997 176 942 q 336 1051 264 1051 q 401 1037 372 1051 q 465 996 429 1022 q 502 971 488 979 q 531 963 517 963 q 577 983 558 963 q 597 1038 596 1003 l 707 1038 q 660 893 704 947 q 544 839 617 839 z "},"ə":{"ha":876,"x_min":46,"x_max":832,"o":"m 400 585 q 297 567 342 585 q 213 513 251 550 l 97 638 q 406 758 203 758 q 629 709 532 758 q 779 572 726 660 q 832 374 832 485 q 780 176 832 264 q 637 38 728 88 q 432 -11 546 -11 q 238 34 325 -11 q 98 165 150 79 q 46 367 46 250 l 599 474 q 524 557 575 529 q 400 585 474 585 m 432 153 q 565 206 514 153 q 619 351 617 258 l 256 281 q 318 188 271 222 q 432 153 365 153 z "},"ʒ":{"ha":769,"x_min":-25,"x_max":736,"o":"m 465 333 q 667 237 597 314 q 736 43 736 160 q 692 -119 736 -46 q 559 -237 649 -193 q 338 -281 469 -281 q 137 -252 233 -281 q -25 -172 40 -224 l 51 1 q 179 -68 106 -43 q 329 -93 253 -93 q 464 -57 415 -93 q 513 43 513 -21 q 468 141 513 106 q 332 176 424 176 l 229 176 l 229 321 l 435 568 l 14 568 l 14 747 l 689 747 l 689 601 l 465 333 z "},"ǯ":{"ha":769,"x_min":-25,"x_max":736,"o":"m 465 333 q 667 237 597 314 q 736 43 736 160 q 692 -119 736 -46 q 559 -237 649 -193 q 338 -281 469 -281 q 137 -252 233 -281 q -25 -172 40 -224 l 51 1 q 179 -68 106 -43 q 329 -93 253 -93 q 464 -57 415 -93 q 513 43 513 -21 q 468 141 513 106 q 332 176 424 176 l 229 176 l 229 321 l 435 568 l 14 568 l 14 747 l 689 747 l 689 601 l 465 333 m 619 1043 l 436 843 l 244 843 l 61 1043 l 219 1043 l 340 939 l 461 1043 l 619 1043 z "},"f":{"ha":511,"x_min":100,"x_max":554,"o":"m 311 731 l 503 731 l 503 564 l 317 564 l 317 0 l 100 0 l 100 764 q 176 967 100 892 q 389 1042 251 1042 q 481 1031 438 1042 q 554 1001 525 1021 l 497 844 q 410 871 460 871 q 311 763 311 871 l 311 731 z "},"g":{"ha":972,"x_min":44,"x_max":871,"o":"m 871 747 l 871 125 q 764 -181 871 -81 q 451 -281 657 -281 q 246 -254 343 -281 q 85 -178 149 -228 l 171 -22 q 290 -84 218 -61 q 435 -107 363 -107 q 601 -56 547 -107 q 654 97 654 -6 l 654 129 q 418 36 569 36 q 230 81 315 36 q 94 208 144 126 q 44 397 44 290 q 94 586 44 504 q 230 713 144 668 q 418 758 315 758 q 665 651 581 758 l 665 747 l 871 747 m 461 214 q 602 265 547 214 q 657 397 657 315 q 602 530 657 479 q 461 581 547 581 q 319 530 375 581 q 264 397 264 479 q 319 265 264 315 q 461 214 375 214 z "},"ğ":{"ha":972,"x_min":44,"x_max":871,"o":"m 871 747 l 871 125 q 764 -181 871 -81 q 451 -281 657 -281 q 246 -254 343 -281 q 85 -178 149 -228 l 171 -22 q 290 -84 218 -61 q 435 -107 363 -107 q 601 -56 547 -107 q 654 97 654 -6 l 654 129 q 418 36 569 36 q 230 81 315 36 q 94 208 144 126 q 44 397 44 290 q 94 586 44 504 q 230 713 144 668 q 418 758 315 758 q 665 651 581 758 l 665 747 l 871 747 m 461 214 q 602 265 547 214 q 657 397 657 315 q 602 530 657 479 q 461 581 547 581 q 319 530 375 581 q 264 397 264 479 q 319 265 264 315 q 461 214 375 214 m 474 832 q 293 889 364 832 q 218 1043 222 946 l 354 1043 q 390 972 356 999 q 474 944 424 944 q 558 972 524 944 q 593 1043 592 999 l 729 1043 q 654 889 725 946 q 474 832 583 832 z "},"ǧ":{"ha":972,"x_min":44,"x_max":871,"o":"m 871 747 l 871 125 q 764 -181 871 -81 q 451 -281 657 -281 q 246 -254 343 -281 q 85 -178 149 -228 l 171 -22 q 290 -84 218 -61 q 435 -107 363 -107 q 601 -56 547 -107 q 654 97 654 -6 l 654 129 q 418 36 569 36 q 230 81 315 36 q 94 208 144 126 q 44 397 44 290 q 94 586 44 504 q 230 713 144 668 q 418 758 315 758 q 665 651 581 758 l 665 747 l 871 747 m 461 214 q 602 265 547 214 q 657 397 657 315 q 602 530 657 479 q 461 581 547 581 q 319 530 375 581 q 264 397 264 479 q 319 265 264 315 q 461 214 375 214 m 753 1043 l 569 843 l 378 843 l 194 1043 l 353 1043 l 474 939 l 594 1043 l 753 1043 z "},"ĝ":{"ha":972,"x_min":44,"x_max":871,"o":"m 871 747 l 871 125 q 764 -181 871 -81 q 451 -281 657 -281 q 246 -254 343 -281 q 85 -178 149 -228 l 171 -22 q 290 -84 218 -61 q 435 -107 363 -107 q 601 -56 547 -107 q 654 97 654 -6 l 654 129 q 418 36 569 36 q 230 81 315 36 q 94 208 144 126 q 44 397 44 290 q 94 586 44 504 q 230 713 144 668 q 418 758 315 758 q 665 651 581 758 l 665 747 l 871 747 m 461 214 q 602 265 547 214 q 657 397 657 315 q 602 530 657 479 q 461 581 547 581 q 319 530 375 581 q 264 397 264 479 q 319 265 264 315 q 461 214 375 214 m 594 843 l 474 949 l 353 843 l 194 843 l 378 1043 l 569 1043 l 753 843 l 594 843 z "},"ģ":{"ha":972,"x_min":44,"x_max":871,"o":"m 871 747 l 871 125 q 764 -181 871 -81 q 451 -281 657 -281 q 246 -254 343 -281 q 85 -178 149 -228 l 171 -22 q 290 -84 218 -61 q 435 -107 363 -107 q 601 -56 547 -107 q 654 97 654 -6 l 654 129 q 418 36 569 36 q 230 81 315 36 q 94 208 144 126 q 44 397 44 290 q 94 586 44 504 q 230 713 144 668 q 418 758 315 758 q 665 651 581 758 l 665 747 l 871 747 m 461 214 q 602 265 547 214 q 657 397 657 315 q 602 530 657 479 q 461 581 547 581 q 319 530 375 581 q 264 397 264 479 q 319 265 264 315 q 461 214 375 214 m 525 989 q 583 915 583 972 q 556 854 583 876 q 474 832 528 832 q 392 855 419 832 q 364 915 364 878 q 393 1004 364 950 l 456 1129 l 572 1129 l 525 989 z "},"ġ":{"ha":972,"x_min":44,"x_max":871,"o":"m 871 747 l 871 125 q 764 -181 871 -81 q 451 -281 657 -281 q 246 -254 343 -281 q 85 -178 149 -228 l 171 -22 q 290 -84 218 -61 q 435 -107 363 -107 q 601 -56 547 -107 q 654 97 654 -6 l 654 129 q 418 36 569 36 q 230 81 315 36 q 94 208 144 126 q 44 397 44 290 q 94 586 44 504 q 230 713 144 668 q 418 758 315 758 q 665 651 581 758 l 665 747 l 871 747 m 461 214 q 602 265 547 214 q 657 397 657 315 q 602 530 657 479 q 461 581 547 581 q 319 530 375 581 q 264 397 264 479 q 319 265 264 315 q 461 214 375 214 m 474 850 q 390 883 422 850 q 357 968 357 917 q 390 1051 357 1018 q 474 1085 422 1085 q 558 1051 525 1085 q 590 968 590 1018 q 558 883 590 917 q 474 850 525 850 z "},"ḡ":{"ha":972,"x_min":44,"x_max":871,"o":"m 871 747 l 871 125 q 764 -181 871 -81 q 451 -281 657 -281 q 246 -254 343 -281 q 85 -178 149 -228 l 171 -22 q 290 -84 218 -61 q 435 -107 363 -107 q 601 -56 547 -107 q 654 97 654 -6 l 654 129 q 418 36 569 36 q 230 81 315 36 q 94 208 144 126 q 44 397 44 290 q 94 586 44 504 q 230 713 144 668 q 418 758 315 758 q 665 651 581 758 l 665 747 l 871 747 m 461 214 q 602 265 547 214 q 657 397 657 315 q 602 530 657 479 q 461 581 547 581 q 319 530 375 581 q 264 397 264 479 q 319 265 264 315 q 461 214 375 214 m 217 1004 l 731 1004 l 731 882 l 217 882 l 217 1004 z "},"ǥ":{"ha":988,"x_min":44,"x_max":960,"o":"m 960 -53 l 844 -53 q 449 -281 764 -281 q 245 -253 342 -281 q 85 -178 149 -226 l 171 -28 q 290 -90 218 -67 q 436 -112 363 -112 q 610 -53 556 -112 l 379 -53 l 379 53 l 653 53 q 654 92 654 65 l 654 181 q 413 90 568 90 q 222 133 306 90 q 92 251 139 175 q 44 425 44 328 q 92 597 44 522 q 222 715 139 672 q 413 757 306 757 q 557 731 492 757 q 665 654 622 706 l 665 747 l 871 747 l 871 125 q 867 54 871 88 l 960 54 l 960 -53 m 461 251 q 603 299 549 251 q 657 425 657 346 q 603 550 657 503 q 461 597 549 597 q 319 550 374 597 q 264 425 264 503 q 319 299 264 346 q 461 251 374 251 z "},"h":{"ha":960,"x_min":100,"x_max":864,"o":"m 554 758 q 778 675 693 758 q 864 428 864 592 l 864 0 l 647 0 l 647 394 q 608 527 647 483 q 496 571 569 571 q 365 520 414 571 q 317 369 317 469 l 317 0 l 100 0 l 100 1031 l 317 1031 l 317 669 q 421 735 360 713 q 554 758 482 758 z "},"ħ":{"ha":960,"x_min":0,"x_max":864,"o":"m 554 758 q 778 675 693 758 q 864 428 864 592 l 864 0 l 647 0 l 647 394 q 608 527 647 483 q 496 571 569 571 q 365 520 414 571 q 317 369 317 469 l 317 0 l 100 0 l 100 1031 l 317 1031 l 317 669 q 421 735 360 713 q 554 758 482 758 m 0 949 l 572 949 l 572 824 l 0 824 l 0 949 z "},"ḫ":{"ha":960,"x_min":100,"x_max":864,"o":"m 554 758 q 778 675 693 758 q 864 428 864 592 l 864 0 l 647 0 l 647 394 q 608 527 647 483 q 496 571 569 571 q 365 520 414 571 q 317 369 317 469 l 317 0 l 100 0 l 100 1031 l 317 1031 l 317 669 q 421 735 360 713 q 554 758 482 758 m 483 -301 q 304 -247 375 -301 q 228 -103 233 -192 l 357 -103 q 394 -170 358 -144 q 483 -196 429 -196 q 573 -170 538 -196 q 610 -103 608 -144 l 739 -103 q 663 -247 733 -192 q 483 -301 592 -301 z "},"ȟ":{"ha":960,"x_min":-71,"x_max":864,"o":"m 554 758 q 778 675 693 758 q 864 428 864 592 l 864 0 l 647 0 l 647 394 q 608 527 647 483 q 496 571 569 571 q 365 520 414 571 q 317 369 317 469 l 317 0 l 100 0 l 100 1031 l 317 1031 l 317 669 q 421 735 360 713 q 554 758 482 758 m 488 1326 l 304 1126 l 113 1126 l -71 1326 l 88 1326 l 208 1222 l 329 1326 l 488 1326 z "},"ĥ":{"ha":960,"x_min":-71,"x_max":864,"o":"m 554 758 q 778 675 693 758 q 864 428 864 592 l 864 0 l 647 0 l 647 394 q 608 527 647 483 q 496 571 569 571 q 365 520 414 571 q 317 369 317 469 l 317 0 l 100 0 l 100 1031 l 317 1031 l 317 669 q 421 735 360 713 q 554 758 482 758 m 329 1110 l 208 1215 l 88 1110 l -71 1110 l 113 1310 l 304 1310 l 488 1110 l 329 1110 z "},"ḥ":{"ha":960,"x_min":100,"x_max":864,"o":"m 554 758 q 778 675 693 758 q 864 428 864 592 l 864 0 l 647 0 l 647 394 q 608 527 647 483 q 496 571 569 571 q 365 520 414 571 q 317 369 317 469 l 317 0 l 100 0 l 100 1031 l 317 1031 l 317 669 q 421 735 360 713 q 554 758 482 758 m 483 -292 q 415 -266 442 -292 q 388 -199 388 -240 q 415 -129 388 -157 q 483 -101 442 -101 q 551 -129 524 -101 q 579 -199 579 -157 q 552 -266 579 -240 q 483 -292 525 -292 z "},"i":{"ha":418,"x_min":74,"x_max":343,"o":"m 100 747 l 317 747 l 317 0 l 100 0 l 100 747 m 208 851 q 111 886 149 851 q 74 972 74 921 q 111 1058 74 1024 q 208 1093 149 1093 q 306 1060 268 1093 q 343 976 343 1026 q 306 887 343 922 q 208 851 268 851 z "},"ı":{"ha":418,"x_min":100,"x_max":317,"o":"m 100 747 l 317 747 l 317 0 l 100 0 l 100 747 z "},"í":{"ha":418,"x_min":82,"x_max":503,"o":"m 100 747 l 317 747 l 317 0 l 100 0 l 100 747 m 269 1043 l 503 1043 l 251 843 l 82 843 l 269 1043 z "},"ĭ":{"ha":418,"x_min":-12,"x_max":429,"o":"m 100 747 l 317 747 l 317 0 l 100 0 l 100 747 m 208 832 q 51 890 113 832 q -12 1043 -11 947 l 118 1043 q 142 970 118 997 q 208 943 167 943 q 274 970 250 943 q 299 1043 299 997 l 429 1043 q 366 890 428 947 q 208 832 304 832 z "},"î":{"ha":418,"x_min":-36,"x_max":453,"o":"m 100 747 l 317 747 l 317 0 l 100 0 l 100 747 m 299 843 l 208 940 l 118 843 l -36 843 l 115 1043 l 301 1043 l 453 843 l 299 843 z "},"ȉ":{"ha":418,"x_min":-156,"x_max":428,"o":"m 100 747 l 317 747 l 317 0 l 100 0 l 100 747 m -156 1043 l 47 1043 l 147 843 l -11 843 l -156 1043 m 125 1043 l 328 1043 l 428 843 l 269 843 l 125 1043 z "},"ï":{"ha":418,"x_min":4,"x_max":413,"o":"m 100 747 l 317 747 l 317 0 l 100 0 l 100 747 m 94 851 q 30 878 56 851 q 4 946 4 904 q 30 1014 4 988 q 94 1040 56 1040 q 160 1014 133 1040 q 186 946 186 988 q 160 878 186 904 q 94 851 133 851 m 322 851 q 257 878 283 851 q 231 946 231 904 q 257 1014 231 988 q 322 1040 283 1040 q 387 1014 361 1040 q 413 946 413 988 q 387 878 413 904 q 322 851 361 851 z "},"ḯ":{"ha":418,"x_min":-19,"x_max":464,"o":"m 100 747 l 317 747 l 317 0 l 100 0 l 100 747 m 72 850 q 7 876 33 850 q -19 942 -19 901 q 7 1007 -19 981 q 72 1033 33 1033 q 139 1007 113 1033 q 165 942 165 981 q 139 876 165 901 q 72 850 113 850 m 344 850 q 279 876 306 850 q 253 942 253 901 q 280 1007 253 981 q 344 1033 307 1033 q 410 1007 383 1033 q 436 942 436 981 q 410 876 436 901 q 344 850 383 850 m 243 1235 l 464 1235 l 246 1067 l 89 1067 l 243 1235 z "},"ị":{"ha":418,"x_min":74,"x_max":343,"o":"m 100 747 l 317 747 l 317 0 l 100 0 l 100 747 m 208 851 q 111 886 149 851 q 74 972 74 921 q 111 1058 74 1024 q 208 1093 149 1093 q 306 1060 268 1093 q 343 976 343 1026 q 306 887 343 922 q 208 851 268 851 m 208 -292 q 140 -266 167 -292 q 113 -199 113 -240 q 140 -129 113 -157 q 208 -101 167 -101 q 276 -129 249 -101 q 304 -199 304 -157 q 277 -266 304 -240 q 208 -292 250 -292 z "},"ì":{"ha":418,"x_min":-86,"x_max":335,"o":"m 100 747 l 317 747 l 317 0 l 100 0 l 100 747 m -86 1043 l 147 1043 l 335 843 l 165 843 l -86 1043 z "},"ỉ":{"ha":418,"x_min":61,"x_max":378,"o":"m 100 747 l 317 747 l 317 0 l 100 0 l 100 747 m 182 901 q 237 940 221 919 q 253 986 253 961 q 235 1028 253 1013 q 188 1044 217 1044 q 106 1018 146 1044 l 61 1106 q 211 1153 121 1153 q 331 1112 285 1153 q 378 1004 378 1071 q 250 829 378 888 l 182 901 z "},"ȋ":{"ha":418,"x_min":-12,"x_max":429,"o":"m 100 747 l 317 747 l 317 0 l 100 0 l 100 747 m -12 843 q 51 997 -11 939 q 208 1054 113 1054 q 366 997 304 1054 q 429 843 428 939 l 299 843 q 275 916 299 889 q 208 943 251 943 q 142 916 165 943 q 118 843 118 889 l -12 843 z "},"ĳ":{"ha":844,"x_min":74,"x_max":771,"o":"m 100 747 l 317 747 l 317 0 l 100 0 l 100 747 m 208 851 q 111 886 149 851 q 74 972 74 921 q 111 1058 74 1024 q 208 1093 149 1093 q 306 1060 268 1093 q 343 976 343 1026 q 306 887 343 922 q 208 851 268 851 m 463 -281 q 289 -239 349 -281 l 347 -82 q 439 -108 385 -108 q 504 -81 481 -108 q 528 0 528 -54 l 528 747 l 744 747 l 744 1 q 670 -205 744 -129 q 463 -281 596 -281 m 636 851 q 539 886 576 851 q 501 972 501 921 q 539 1058 501 1024 q 636 1093 576 1093 q 733 1060 696 1093 q 771 976 771 1026 q 733 887 771 922 q 636 851 696 851 z "},"ī":{"ha":418,"x_min":0,"x_max":417,"o":"m 100 747 l 317 747 l 317 0 l 100 0 l 100 747 m 0 1004 l 417 1004 l 417 882 l 0 882 l 0 1004 z "},"į":{"ha":418,"x_min":74,"x_max":360,"o":"m 100 747 l 317 747 l 317 0 l 100 0 l 100 747 m 208 851 q 111 886 149 851 q 74 972 74 921 q 111 1058 74 1024 q 208 1093 149 1093 q 306 1060 268 1093 q 343 976 343 1026 q 306 887 343 922 q 208 851 268 851 m 257 -322 q 136 -280 182 -322 q 90 -168 90 -237 q 131 -45 90 -103 q 250 57 171 13 l 317 0 q 247 -76 267 -40 q 226 -147 226 -111 q 243 -194 226 -176 q 285 -212 260 -212 q 329 -199 310 -212 l 360 -293 q 257 -322 319 -322 z "},"ĩ":{"ha":418,"x_min":-21,"x_max":438,"o":"m 100 747 l 317 747 l 317 0 l 100 0 l 100 747 m 300 839 q 239 854 265 839 q 182 897 213 869 q 167 910 179 900 q 147 924 156 919 q 131 929 139 929 q 99 908 110 929 q 88 849 88 888 l -21 849 q 15 999 -21 947 q 117 1051 50 1051 q 178 1036 151 1051 q 235 993 204 1021 q 249 981 238 990 q 269 966 261 971 q 286 961 278 961 q 318 981 307 961 q 329 1038 329 1001 l 438 1038 q 402 890 438 942 q 300 839 367 839 z "},"j":{"ha":426,"x_min":-129,"x_max":353,"o":"m 44 -281 q -129 -239 -69 -281 l -71 -82 q 21 -108 -33 -108 q 86 -81 63 -108 q 110 0 110 -54 l 110 747 l 326 747 l 326 1 q 252 -205 326 -129 q 44 -281 178 -281 m 218 851 q 121 886 158 851 q 83 972 83 921 q 121 1058 83 1024 q 218 1093 158 1093 q 315 1060 278 1093 q 353 976 353 1026 q 315 887 353 922 q 218 851 278 851 z "},"ȷ":{"ha":426,"x_min":-129,"x_max":326,"o":"m 44 -281 q -129 -239 -69 -281 l -71 -82 q 21 -108 -33 -108 q 86 -81 63 -108 q 110 0 110 -54 l 110 747 l 326 747 l 326 1 q 252 -205 326 -129 q 44 -281 178 -281 z "},"ĵ":{"ha":426,"x_min":-129,"x_max":463,"o":"m 44 -281 q -129 -239 -69 -281 l -71 -82 q 21 -108 -33 -108 q 86 -81 63 -108 q 110 0 110 -54 l 110 747 l 326 747 l 326 1 q 252 -205 326 -129 q 44 -281 178 -281 m 308 843 l 218 940 l 128 843 l -26 843 l 125 1043 l 311 1043 l 463 843 l 308 843 z "},"k":{"ha":917,"x_min":100,"x_max":919,"o":"m 421 293 l 317 190 l 317 0 l 100 0 l 100 1031 l 317 1031 l 317 447 l 633 747 l 892 747 l 581 431 l 919 0 l 657 0 l 421 293 z "},"ǩ":{"ha":917,"x_min":-71,"x_max":919,"o":"m 421 293 l 317 190 l 317 0 l 100 0 l 100 1031 l 317 1031 l 317 447 l 633 747 l 892 747 l 581 431 l 919 0 l 657 0 l 421 293 m 488 1326 l 304 1126 l 113 1126 l -71 1326 l 88 1326 l 208 1222 l 329 1326 l 488 1326 z "},"ķ":{"ha":917,"x_min":100,"x_max":919,"o":"m 421 293 l 317 190 l 317 0 l 100 0 l 100 1031 l 317 1031 l 317 447 l 633 747 l 892 747 l 581 431 l 919 0 l 657 0 l 421 293 m 442 -101 q 512 -124 486 -101 q 538 -185 538 -147 q 513 -275 538 -228 l 464 -369 l 363 -369 l 397 -258 q 359 -231 372 -250 q 346 -185 346 -212 q 372 -124 346 -147 q 442 -101 397 -101 z "},"ĸ":{"ha":896,"x_min":100,"x_max":919,"o":"m 421 293 l 317 190 l 317 0 l 100 0 l 100 747 l 317 747 l 317 447 l 633 747 l 892 747 l 581 431 l 919 0 l 657 0 l 421 293 z "},"l":{"ha":488,"x_min":100,"x_max":481,"o":"m 368 -11 q 171 56 242 -11 q 100 247 100 124 l 100 1031 l 317 1031 l 317 260 q 341 187 317 213 q 410 161 365 161 q 444 165 426 161 q 471 175 461 169 l 481 7 q 368 -11 426 -11 z "},"ĺ":{"ha":488,"x_min":82,"x_max":503,"o":"m 368 -11 q 171 56 242 -11 q 100 247 100 124 l 100 1031 l 317 1031 l 317 260 q 341 187 317 213 q 410 161 365 161 q 444 165 426 161 q 471 175 461 169 l 481 7 q 368 -11 426 -11 m 269 1326 l 503 1326 l 251 1126 l 82 1126 l 269 1326 z "},"ľ":{"ha":488,"x_min":100,"x_max":589,"o":"m 368 -11 q 171 56 242 -11 q 100 247 100 124 l 100 1031 l 317 1031 l 317 260 q 341 187 317 213 q 410 161 365 161 q 444 165 426 161 q 471 175 461 169 l 481 7 q 368 -11 426 -11 m 426 1088 l 589 1088 l 561 808 l 426 808 l 426 1088 z "},"ļ":{"ha":488,"x_min":100,"x_max":481,"o":"m 368 -11 q 171 56 242 -11 q 100 247 100 124 l 100 1031 l 317 1031 l 317 260 q 341 187 317 213 q 410 161 365 161 q 444 165 426 161 q 471 175 461 169 l 481 7 q 368 -11 426 -11 m 301 -101 q 372 -124 346 -101 q 397 -185 397 -147 q 372 -275 397 -228 l 324 -369 l 222 -369 l 257 -258 q 219 -231 232 -250 q 206 -185 206 -212 q 231 -124 206 -147 q 301 -101 257 -101 z "},"ŀ":{"ha":597,"x_min":100,"x_max":610,"o":"m 368 -11 q 171 56 242 -11 q 100 247 100 124 l 100 1031 l 317 1031 l 317 260 q 341 187 317 213 q 410 161 365 161 q 444 165 426 161 q 471 175 461 169 l 481 7 q 368 -11 426 -11 m 500 394 q 422 426 453 394 q 392 504 392 457 q 422 582 392 551 q 500 613 453 613 q 578 582 547 613 q 610 504 610 551 q 578 426 610 457 q 500 394 547 394 z "},"ḷ":{"ha":488,"x_min":100,"x_max":481,"o":"m 368 -11 q 171 56 242 -11 q 100 247 100 124 l 100 1031 l 317 1031 l 317 260 q 341 187 317 213 q 410 161 365 161 q 444 165 426 161 q 471 175 461 169 l 481 7 q 368 -11 426 -11 m 301 -292 q 233 -266 260 -292 q 206 -199 206 -240 q 233 -129 206 -157 q 301 -101 260 -101 q 369 -129 342 -101 q 397 -199 397 -157 q 370 -266 397 -240 q 301 -292 343 -292 z "},"ǉ":{"ha":881,"x_min":100,"x_max":818,"o":"m 368 -11 q 171 56 242 -11 q 100 247 100 124 l 100 1031 l 317 1031 l 317 260 q 341 187 317 213 q 410 161 365 161 q 444 165 426 161 q 471 175 461 169 l 481 7 q 368 -11 426 -11 m 510 -281 q 336 -239 396 -281 l 394 -82 q 486 -108 432 -108 q 551 -81 528 -108 q 575 0 575 -54 l 575 747 l 792 747 l 792 1 q 717 -205 792 -129 q 510 -281 643 -281 m 683 851 q 586 886 624 851 q 549 972 549 921 q 586 1058 549 1024 q 683 1093 624 1093 q 781 1060 743 1093 q 818 976 818 1026 q 781 887 818 922 q 683 851 743 851 z "},"ḻ":{"ha":488,"x_min":44,"x_max":558,"o":"m 368 -11 q 171 56 242 -11 q 100 247 100 124 l 100 1031 l 317 1031 l 317 260 q 341 187 317 213 q 410 161 365 161 q 444 165 426 161 q 471 175 461 169 l 481 7 q 368 -11 426 -11 m 44 -132 l 558 -132 l 558 -253 l 44 -253 l 44 -132 z "},"ł":{"ha":488,"x_min":-57,"x_max":481,"o":"m 368 -11 q 171 56 242 -11 q 100 247 100 124 l 100 1031 l 317 1031 l 317 260 q 341 187 317 213 q 410 161 365 161 q 444 165 426 161 q 471 175 461 169 l 481 7 q 368 -11 426 -11 m -57 390 l 393 729 l 472 618 l 24 282 l -57 390 z "},"m":{"ha":1457,"x_min":100,"x_max":1363,"o":"m 1057 758 q 1280 676 1197 758 q 1363 428 1363 593 l 1363 0 l 1146 0 l 1146 394 q 1109 527 1146 483 q 1004 571 1072 571 q 883 522 928 571 q 839 375 839 472 l 839 0 l 622 0 l 622 394 q 481 571 622 571 q 361 522 406 571 q 317 375 317 472 l 317 0 l 100 0 l 100 747 l 307 747 l 307 661 q 409 733 349 708 q 542 758 469 758 q 685 727 621 758 q 788 636 749 696 q 903 726 833 694 q 1057 758 974 758 z "},"ṃ":{"ha":1457,"x_min":100,"x_max":1363,"o":"m 1057 758 q 1280 676 1197 758 q 1363 428 1363 593 l 1363 0 l 1146 0 l 1146 394 q 1109 527 1146 483 q 1004 571 1072 571 q 883 522 928 571 q 839 375 839 472 l 839 0 l 622 0 l 622 394 q 481 571 622 571 q 361 522 406 571 q 317 375 317 472 l 317 0 l 100 0 l 100 747 l 307 747 l 307 661 q 409 733 349 708 q 542 758 469 758 q 685 727 621 758 q 788 636 749 696 q 903 726 833 694 q 1057 758 974 758 m 729 -292 q 660 -266 688 -292 q 633 -199 633 -240 q 660 -129 633 -157 q 729 -101 688 -101 q 797 -129 769 -101 q 825 -199 825 -157 q 798 -266 825 -240 q 729 -292 771 -292 z "},"n":{"ha":960,"x_min":100,"x_max":864,"o":"m 554 758 q 778 675 693 758 q 864 428 864 592 l 864 0 l 647 0 l 647 394 q 608 527 647 483 q 496 571 569 571 q 365 520 414 571 q 317 369 317 469 l 317 0 l 100 0 l 100 747 l 307 747 l 307 660 q 414 733 350 707 q 554 758 478 758 z "},"ń":{"ha":960,"x_min":100,"x_max":864,"o":"m 554 758 q 778 675 693 758 q 864 428 864 592 l 864 0 l 647 0 l 647 394 q 608 527 647 483 q 496 571 569 571 q 365 520 414 571 q 317 369 317 469 l 317 0 l 100 0 l 100 747 l 307 747 l 307 660 q 414 733 350 707 q 554 758 478 758 m 544 1043 l 778 1043 l 526 843 l 357 843 l 544 1043 z "},"ŉ":{"ha":1139,"x_min":57,"x_max":1044,"o":"m 60 972 l 201 972 l 171 608 l 57 608 l 60 972 m 735 758 q 959 675 874 758 q 1044 428 1044 592 l 1044 0 l 828 0 l 828 394 q 789 527 828 483 q 676 571 750 571 q 546 520 594 571 q 497 369 497 469 l 497 0 l 281 0 l 281 747 l 488 747 l 488 660 q 594 733 531 707 q 735 758 658 758 z "},"ň":{"ha":960,"x_min":100,"x_max":864,"o":"m 554 758 q 778 675 693 758 q 864 428 864 592 l 864 0 l 647 0 l 647 394 q 608 527 647 483 q 496 571 569 571 q 365 520 414 571 q 317 369 317 469 l 317 0 l 100 0 l 100 747 l 307 747 l 307 660 q 414 733 350 707 q 554 758 478 758 m 763 1043 l 579 843 l 388 843 l 204 1043 l 363 1043 l 483 939 l 604 1043 l 763 1043 z "},"ņ":{"ha":960,"x_min":100,"x_max":864,"o":"m 554 758 q 778 675 693 758 q 864 428 864 592 l 864 0 l 647 0 l 647 394 q 608 527 647 483 q 496 571 569 571 q 365 520 414 571 q 317 369 317 469 l 317 0 l 100 0 l 100 747 l 307 747 l 307 660 q 414 733 350 707 q 554 758 478 758 m 483 -101 q 553 -124 528 -101 q 579 -185 579 -147 q 554 -275 579 -228 l 506 -369 l 404 -369 l 439 -258 q 401 -231 414 -250 q 388 -185 388 -212 q 413 -124 388 -147 q 483 -101 439 -101 z "},"ṅ":{"ha":960,"x_min":100,"x_max":864,"o":"m 554 758 q 778 675 693 758 q 864 428 864 592 l 864 0 l 647 0 l 647 394 q 608 527 647 483 q 496 571 569 571 q 365 520 414 571 q 317 369 317 469 l 317 0 l 100 0 l 100 747 l 307 747 l 307 660 q 414 733 350 707 q 554 758 478 758 m 483 850 q 399 883 432 850 q 367 968 367 917 q 399 1051 367 1018 q 483 1085 432 1085 q 567 1051 535 1085 q 600 968 600 1018 q 567 883 600 917 q 483 850 535 850 z "},"ṇ":{"ha":960,"x_min":100,"x_max":864,"o":"m 554 758 q 778 675 693 758 q 864 428 864 592 l 864 0 l 647 0 l 647 394 q 608 527 647 483 q 496 571 569 571 q 365 520 414 571 q 317 369 317 469 l 317 0 l 100 0 l 100 747 l 307 747 l 307 660 q 414 733 350 707 q 554 758 478 758 m 483 -292 q 415 -266 442 -292 q 388 -199 388 -240 q 415 -129 388 -157 q 483 -101 442 -101 q 551 -129 524 -101 q 579 -199 579 -157 q 552 -266 579 -240 q 483 -292 525 -292 z "},"ŋ":{"ha":960,"x_min":100,"x_max":864,"o":"m 554 758 q 778 675 693 758 q 864 428 864 592 l 864 1 q 790 -205 864 -129 q 583 -281 717 -281 q 408 -239 469 -281 l 467 -82 q 558 -108 504 -108 q 624 -81 601 -108 q 647 0 647 -54 l 647 394 q 608 527 647 483 q 496 571 569 571 q 365 520 414 571 q 317 369 317 469 l 317 0 l 100 0 l 100 747 l 307 747 l 307 660 q 414 733 350 707 q 554 758 478 758 z "},"ǌ":{"ha":1386,"x_min":100,"x_max":1313,"o":"m 554 758 q 778 675 693 758 q 864 428 864 592 l 864 0 l 647 0 l 647 394 q 608 527 647 483 q 496 571 569 571 q 365 520 414 571 q 317 369 317 469 l 317 0 l 100 0 l 100 747 l 307 747 l 307 660 q 414 733 350 707 q 554 758 478 758 m 1004 -281 q 831 -239 890 -281 l 889 -82 q 981 -108 926 -108 q 1046 -81 1022 -108 q 1069 0 1069 -54 l 1069 747 l 1286 747 l 1286 1 q 1212 -205 1286 -129 q 1004 -281 1138 -281 m 1178 851 q 1081 886 1118 851 q 1043 972 1043 921 q 1081 1058 1043 1024 q 1178 1093 1118 1093 q 1275 1060 1238 1093 q 1313 976 1313 1026 q 1275 887 1313 922 q 1178 851 1238 851 z "},"ṉ":{"ha":960,"x_min":100,"x_max":864,"o":"m 554 758 q 778 675 693 758 q 864 428 864 592 l 864 0 l 647 0 l 647 394 q 608 527 647 483 q 496 571 569 571 q 365 520 414 571 q 317 369 317 469 l 317 0 l 100 0 l 100 747 l 307 747 l 307 660 q 414 733 350 707 q 554 758 478 758 m 226 -132 l 740 -132 l 740 -253 l 226 -253 l 226 -132 z "},"ñ":{"ha":960,"x_min":100,"x_max":864,"o":"m 554 758 q 778 675 693 758 q 864 428 864 592 l 864 0 l 647 0 l 647 394 q 608 527 647 483 q 496 571 569 571 q 365 520 414 571 q 317 369 317 469 l 317 0 l 100 0 l 100 747 l 307 747 l 307 660 q 414 733 350 707 q 554 758 478 758 m 588 839 q 522 853 550 839 q 458 893 493 868 q 422 918 436 910 q 393 926 407 926 q 346 906 364 926 q 326 849 328 886 l 217 849 q 263 997 219 942 q 379 1051 307 1051 q 444 1037 415 1051 q 508 996 472 1022 q 545 971 531 979 q 574 963 560 963 q 620 983 601 963 q 640 1038 639 1003 l 750 1038 q 703 893 747 947 q 588 839 660 839 z "},"o":{"ha":910,"x_min":44,"x_max":865,"o":"m 456 -11 q 244 38 338 -11 q 97 175 150 88 q 44 374 44 263 q 97 572 44 485 q 244 709 150 660 q 456 758 338 758 q 667 709 574 758 q 813 572 760 660 q 865 374 865 485 q 813 175 865 263 q 667 38 760 88 q 456 -11 574 -11 m 456 167 q 592 223 539 167 q 646 374 646 279 q 592 524 646 468 q 456 581 539 581 q 318 524 372 581 q 264 374 264 468 q 318 223 264 279 q 456 167 372 167 z "},"ó":{"ha":910,"x_min":44,"x_max":865,"o":"m 456 -11 q 244 38 338 -11 q 97 175 150 88 q 44 374 44 263 q 97 572 44 485 q 244 709 150 660 q 456 758 338 758 q 667 709 574 758 q 813 572 760 660 q 865 374 865 485 q 813 175 865 263 q 667 38 760 88 q 456 -11 574 -11 m 456 167 q 592 223 539 167 q 646 374 646 279 q 592 524 646 468 q 456 581 539 581 q 318 524 372 581 q 264 374 264 468 q 318 223 264 279 q 456 167 372 167 m 514 1043 l 747 1043 l 496 843 l 326 843 l 514 1043 z "},"ŏ":{"ha":910,"x_min":44,"x_max":865,"o":"m 456 -11 q 244 38 338 -11 q 97 175 150 88 q 44 374 44 263 q 97 572 44 485 q 244 709 150 660 q 456 758 338 758 q 667 709 574 758 q 813 572 760 660 q 865 374 865 485 q 813 175 865 263 q 667 38 760 88 q 456 -11 574 -11 m 456 167 q 592 223 539 167 q 646 374 646 279 q 592 524 646 468 q 456 581 539 581 q 318 524 372 581 q 264 374 264 468 q 318 223 264 279 q 456 167 372 167 m 453 832 q 272 889 343 832 q 197 1043 201 946 l 333 1043 q 369 972 335 999 q 453 944 403 944 q 537 972 503 944 q 572 1043 571 999 l 708 1043 q 633 889 704 946 q 453 832 563 832 z "},"ô":{"ha":910,"x_min":44,"x_max":865,"o":"m 456 -11 q 244 38 338 -11 q 97 175 150 88 q 44 374 44 263 q 97 572 44 485 q 244 709 150 660 q 456 758 338 758 q 667 709 574 758 q 813 572 760 660 q 865 374 865 485 q 813 175 865 263 q 667 38 760 88 q 456 -11 574 -11 m 456 167 q 592 223 539 167 q 646 374 646 279 q 592 524 646 468 q 456 581 539 581 q 318 524 372 581 q 264 374 264 468 q 318 223 264 279 q 456 167 372 167 m 574 843 l 453 949 l 332 843 l 174 843 l 357 1043 l 549 1043 l 732 843 l 574 843 z "},"ố":{"ha":910,"x_min":44,"x_max":994,"o":"m 456 -11 q 244 38 338 -11 q 97 175 150 88 q 44 374 44 263 q 97 572 44 485 q 244 709 150 660 q 456 758 338 758 q 667 709 574 758 q 813 572 760 660 q 865 374 865 485 q 813 175 865 263 q 667 38 760 88 q 456 -11 574 -11 m 456 167 q 592 223 539 167 q 646 374 646 279 q 592 524 646 468 q 456 581 539 581 q 318 524 372 581 q 264 374 264 468 q 318 223 264 279 q 456 167 372 167 m 572 843 l 453 922 l 333 843 l 174 843 l 358 1001 l 547 1001 l 732 843 l 572 843 m 774 1144 l 994 1144 l 776 976 l 619 976 l 774 1144 z "},"ộ":{"ha":910,"x_min":44,"x_max":865,"o":"m 456 -11 q 244 38 338 -11 q 97 175 150 88 q 44 374 44 263 q 97 572 44 485 q 244 709 150 660 q 456 758 338 758 q 667 709 574 758 q 813 572 760 660 q 865 374 865 485 q 813 175 865 263 q 667 38 760 88 q 456 -11 574 -11 m 456 167 q 592 223 539 167 q 646 374 646 279 q 592 524 646 468 q 456 581 539 581 q 318 524 372 581 q 264 374 264 468 q 318 223 264 279 q 456 167 372 167 m 453 -292 q 384 -266 411 -292 q 357 -199 357 -240 q 384 -129 357 -157 q 453 -101 411 -101 q 521 -129 493 -101 q 549 -199 549 -157 q 522 -266 549 -240 q 453 -292 494 -292 m 574 843 l 453 949 l 332 843 l 174 843 l 357 1043 l 549 1043 l 732 843 l 574 843 z "},"ồ":{"ha":910,"x_min":44,"x_max":865,"o":"m 456 -11 q 244 38 338 -11 q 97 175 150 88 q 44 374 44 263 q 97 572 44 485 q 244 709 150 660 q 456 758 338 758 q 667 709 574 758 q 813 572 760 660 q 865 374 865 485 q 813 175 865 263 q 667 38 760 88 q 456 -11 574 -11 m 456 167 q 592 223 539 167 q 646 374 646 279 q 592 524 646 468 q 456 581 539 581 q 318 524 372 581 q 264 374 264 468 q 318 223 264 279 q 456 167 372 167 m 572 843 l 453 922 l 333 843 l 174 843 l 358 1001 l 547 1001 l 732 843 l 572 843 m 485 1144 l 706 1144 l 858 976 l 703 976 l 485 1144 z "},"ổ":{"ha":910,"x_min":44,"x_max":865,"o":"m 456 -11 q 244 38 338 -11 q 97 175 150 88 q 44 374 44 263 q 97 572 44 485 q 244 709 150 660 q 456 758 338 758 q 667 709 574 758 q 813 572 760 660 q 865 374 865 485 q 813 175 865 263 q 667 38 760 88 q 456 -11 574 -11 m 456 167 q 592 223 539 167 q 646 374 646 279 q 592 524 646 468 q 456 581 539 581 q 318 524 372 581 q 264 374 264 468 q 318 223 264 279 q 456 167 372 167 m 572 843 l 453 922 l 333 843 l 174 843 l 358 1001 l 547 1001 l 732 843 l 572 843 m 647 1001 q 699 1060 699 1026 q 685 1089 699 1078 q 651 1100 672 1100 q 590 1083 622 1100 l 554 1150 q 669 1181 601 1181 q 763 1151 728 1181 q 797 1071 797 1121 q 770 999 797 1031 q 700 950 743 967 l 647 1001 z "},"ỗ":{"ha":910,"x_min":44,"x_max":865,"o":"m 456 -11 q 244 38 338 -11 q 97 175 150 88 q 44 374 44 263 q 97 572 44 485 q 244 709 150 660 q 456 758 338 758 q 667 709 574 758 q 813 572 760 660 q 865 374 865 485 q 813 175 865 263 q 667 38 760 88 q 456 -11 574 -11 m 456 167 q 592 223 539 167 q 646 374 646 279 q 592 524 646 468 q 456 581 539 581 q 318 524 372 581 q 264 374 264 468 q 318 223 264 279 q 456 167 372 167 m 572 843 l 453 922 l 333 843 l 174 843 l 358 1001 l 547 1001 l 732 843 l 572 843 m 556 1050 q 489 1062 518 1050 q 425 1096 460 1074 q 392 1114 408 1106 q 364 1122 376 1122 q 321 1106 336 1122 q 303 1058 306 1089 l 192 1058 q 235 1187 193 1142 q 353 1232 278 1232 q 415 1221 389 1232 q 479 1188 440 1210 q 516 1167 501 1174 q 544 1160 531 1160 q 588 1177 572 1160 q 606 1222 603 1194 l 714 1222 q 671 1096 713 1142 q 556 1050 629 1050 z "},"ȍ":{"ha":910,"x_min":44,"x_max":865,"o":"m 456 -11 q 244 38 338 -11 q 97 175 150 88 q 44 374 44 263 q 97 572 44 485 q 244 709 150 660 q 456 758 338 758 q 667 709 574 758 q 813 572 760 660 q 865 374 865 485 q 813 175 865 263 q 667 38 760 88 q 456 -11 574 -11 m 456 167 q 592 223 539 167 q 646 374 646 279 q 592 524 646 468 q 456 581 539 581 q 318 524 372 581 q 264 374 264 468 q 318 223 264 279 q 456 167 372 167 m 89 1043 l 292 1043 l 392 843 l 233 843 l 89 1043 m 369 1043 l 572 1043 l 672 843 l 514 843 l 369 1043 z "},"ö":{"ha":910,"x_min":44,"x_max":865,"o":"m 456 -11 q 244 38 338 -11 q 97 175 150 88 q 44 374 44 263 q 97 572 44 485 q 244 709 150 660 q 456 758 338 758 q 667 709 574 758 q 813 572 760 660 q 865 374 865 485 q 813 175 865 263 q 667 38 760 88 q 456 -11 574 -11 m 456 167 q 592 223 539 167 q 646 374 646 279 q 592 524 646 468 q 456 581 539 581 q 318 524 372 581 q 264 374 264 468 q 318 223 264 279 q 456 167 372 167 m 313 850 q 243 877 271 850 q 215 946 215 904 q 243 1015 215 988 q 313 1042 271 1042 q 381 1015 354 1042 q 408 946 408 988 q 381 877 408 904 q 313 850 354 850 m 593 850 q 524 877 551 850 q 497 946 497 904 q 524 1015 497 988 q 593 1042 551 1042 q 663 1015 635 1042 q 690 946 690 988 q 663 877 690 904 q 593 850 635 850 z "},"ȫ":{"ha":910,"x_min":44,"x_max":865,"o":"m 456 -11 q 244 38 338 -11 q 97 175 150 88 q 44 374 44 263 q 97 572 44 485 q 244 709 150 660 q 456 758 338 758 q 667 709 574 758 q 813 572 760 660 q 865 374 865 485 q 813 175 865 263 q 667 38 760 88 q 456 -11 574 -11 m 456 167 q 592 223 539 167 q 646 374 646 279 q 592 524 646 468 q 456 581 539 581 q 318 524 372 581 q 264 374 264 468 q 318 223 264 279 q 456 167 372 167 m 317 850 q 251 876 278 850 q 225 942 225 901 q 251 1007 225 981 q 317 1033 278 1033 q 383 1007 357 1033 q 410 942 410 981 q 383 876 410 901 q 317 850 357 850 m 589 850 q 524 876 550 850 q 497 942 497 901 q 524 1007 497 981 q 589 1033 551 1033 q 654 1007 628 1033 q 681 942 681 981 q 654 876 681 901 q 589 850 628 850 m 196 1204 l 710 1204 l 710 1089 l 196 1089 l 196 1204 z "},"ȱ":{"ha":910,"x_min":44,"x_max":865,"o":"m 456 -11 q 244 38 338 -11 q 97 175 150 88 q 44 374 44 263 q 97 572 44 485 q 244 709 150 660 q 456 758 338 758 q 667 709 574 758 q 813 572 760 660 q 865 374 865 485 q 813 175 865 263 q 667 38 760 88 q 456 -11 574 -11 m 456 167 q 592 223 539 167 q 646 374 646 279 q 592 524 646 468 q 456 581 539 581 q 318 524 372 581 q 264 374 264 468 q 318 223 264 279 q 456 167 372 167 m 453 849 q 384 875 411 849 q 357 943 357 901 q 384 1012 357 985 q 453 1039 411 1039 q 522 1012 494 1039 q 549 943 549 985 q 522 875 549 901 q 453 849 494 849 m 196 1214 l 710 1214 l 710 1099 l 196 1099 l 196 1214 z "},"ọ":{"ha":910,"x_min":44,"x_max":865,"o":"m 456 -11 q 244 38 338 -11 q 97 175 150 88 q 44 374 44 263 q 97 572 44 485 q 244 709 150 660 q 456 758 338 758 q 667 709 574 758 q 813 572 760 660 q 865 374 865 485 q 813 175 865 263 q 667 38 760 88 q 456 -11 574 -11 m 456 167 q 592 223 539 167 q 646 374 646 279 q 592 524 646 468 q 456 581 539 581 q 318 524 372 581 q 264 374 264 468 q 318 223 264 279 q 456 167 372 167 m 453 -292 q 384 -266 411 -292 q 357 -199 357 -240 q 384 -129 357 -157 q 453 -101 411 -101 q 521 -129 493 -101 q 549 -199 549 -157 q 522 -266 549 -240 q 453 -292 494 -292 z "}}}
